<svg width="92" height="24" viewBox="0 0 92 24" fill="none" xmlns="http://www.w3.org/2000/svg">
<rect x="2.73535" y="0.571289" width="8.20723" height="8.72703" rx="1.0991" fill="#00B87C"/>
<rect y="10.5454" width="8.20723" height="8.72703" rx="1.0991" fill="#FEA162"/>
<rect x="12.1152" y="4.72778" width="8.20723" height="8.72703" rx="1.0991" fill="#1A61DB"/>
<rect x="9.37988" y="14.7019" width="8.20723" height="8.72703" rx="1.0991" fill="#DC1AA3"/>
<path d="M41.9732 6.59C41.9732 6.74333 41.9466 6.9 41.8932 7.06C41.8466 7.21333 41.7766 7.35667 41.6832 7.49L34.5232 17.65H41.7732V20H30.6732V18.83C30.6732 18.69 30.6966 18.5533 30.7432 18.42C30.7899 18.28 30.8566 18.1533 30.9432 18.04L38.1232 7.84H31.1832V5.49H41.9732V6.59ZM54.6778 17.6C55.1644 17.6 55.6011 17.52 55.9878 17.36C56.3744 17.1933 56.7011 16.96 56.9678 16.66C57.2344 16.36 57.4378 15.9967 57.5778 15.57C57.7178 15.1433 57.7878 14.6633 57.7878 14.13V5.49H60.7878V14.13C60.7878 15.01 60.6444 15.82 60.3578 16.56C60.0778 17.2933 59.6744 17.9267 59.1478 18.46C58.6211 18.9933 57.9811 19.41 57.2278 19.71C56.4744 20.01 55.6244 20.16 54.6778 20.16C53.7311 20.16 52.8778 20.01 52.1178 19.71C51.3644 19.41 50.7244 18.9933 50.1978 18.46C49.6711 17.9267 49.2644 17.2933 48.9778 16.56C48.6978 15.82 48.5578 15.01 48.5578 14.13V5.49H51.5578V14.13C51.5578 14.6633 51.6278 15.1433 51.7678 15.57C51.9078 15.9967 52.1111 16.36 52.3778 16.66C52.6444 16.96 52.9711 17.1933 53.3578 17.36C53.7444 17.52 54.1844 17.6 54.6778 17.6ZM72.9262 12.36C73.4129 12.36 73.8329 12.3 74.1862 12.18C74.5395 12.0533 74.8295 11.8833 75.0562 11.67C75.2829 11.45 75.4495 11.1933 75.5562 10.9C75.6629 10.6067 75.7162 10.2867 75.7162 9.94C75.7162 9.25333 75.4862 8.72 75.0262 8.34C74.5729 7.96 73.8795 7.77 72.9462 7.77H71.3862V12.36H72.9262ZM79.9562 20H77.2462C76.7395 20 76.3729 19.8067 76.1462 19.42L73.3862 14.97C73.2729 14.7967 73.1462 14.67 73.0062 14.59C72.8729 14.51 72.6729 14.47 72.4062 14.47H71.3862V20H68.3862V5.49H72.9462C73.9595 5.49 74.8262 5.59667 75.5462 5.81C76.2662 6.01667 76.8562 6.30667 77.3162 6.68C77.7762 7.05333 78.1129 7.5 78.3262 8.02C78.5395 8.53333 78.6462 9.1 78.6462 9.72C78.6462 10.2 78.5762 10.6567 78.4362 11.09C78.3029 11.5167 78.1062 11.9067 77.8462 12.26C77.5862 12.6133 77.2662 12.9267 76.8862 13.2C76.5062 13.4733 76.0729 13.6933 75.5862 13.86C75.7795 13.9667 75.9595 14.0967 76.1262 14.25C76.2929 14.3967 76.4429 14.5733 76.5762 14.78L79.9562 20ZM89.1406 20H86.1206V5.49H89.1406V20Z" fill="white"/>
</svg>
