<svg width="129" height="97" viewBox="0 0 129 97" fill="none" xmlns="http://www.w3.org/2000/svg">
<path d="M12.0039 64.6976V67.4132L59.7224 79.5527L117 58.5039V56.3354L12.0039 64.6976Z" fill="white"/>
<path d="M59.7224 79.7099C59.7098 79.713 59.6965 79.713 59.6838 79.7099L11.9621 67.5703C11.9272 67.5611 11.8964 67.5407 11.8743 67.5122C11.8522 67.4837 11.8401 67.4487 11.8398 67.4126V64.6939C11.8405 64.6539 11.856 64.6156 11.8834 64.5865C11.9108 64.5573 11.948 64.5394 11.9878 64.5362L116.984 56.1707C117.006 56.169 117.028 56.1717 117.049 56.1788C117.07 56.1858 117.09 56.1971 117.106 56.2118C117.123 56.2265 117.136 56.2445 117.145 56.2645C117.155 56.2845 117.16 56.3063 117.161 56.3284V58.497C117.16 58.5299 117.15 58.562 117.131 58.589C117.112 58.6159 117.086 58.6366 117.055 58.6482L59.7771 79.7099C59.7591 79.7132 59.7405 79.7132 59.7224 79.7099ZM12.1616 67.2871L59.7128 79.3881L116.839 58.3972V56.5118L12.1616 64.8451V67.2871Z" fill="#231F20"/>
<path d="M70.8384 37.9991C70.8834 37.8543 68.9079 35.5216 68.9079 35.5216C68.9079 35.5216 68.3963 33.2887 67.46 31.8087C66.5238 30.3286 65.3462 28.7295 64.0463 28.8196C62.7464 28.9097 59.9987 28.6073 59.5772 29.6948C59.1557 30.7823 61.0283 34.3151 62.2349 35.5216C63.4414 36.7282 65.5649 37.6355 65.5649 37.6355L67.2766 40.7179C67.2766 40.7179 70.2914 39.7205 70.8384 37.9991Z" fill="white"/>
<path d="M67.2731 40.8817C67.2438 40.8811 67.2152 40.8731 67.1899 40.8585C67.1646 40.8439 67.1434 40.8231 67.1283 40.7981L65.4423 37.7672C65.098 37.616 63.2383 36.7634 62.1122 35.6405C60.9861 34.5176 58.9398 30.8657 59.4192 29.6334C59.7892 28.6682 61.5749 28.6682 63.0099 28.6682C63.3895 28.6682 63.7499 28.6682 64.0298 28.6457C65.4101 28.5491 66.6038 30.1418 67.5948 31.7119C68.4796 33.1083 68.9815 35.1225 69.0588 35.4378C71.0697 37.8123 71.0279 37.9377 70.9892 38.0407C70.4262 39.8232 67.45 40.827 67.3213 40.8657C67.3062 40.8735 67.2899 40.8789 67.2731 40.8817ZM64.1489 28.9771H64.0556C63.7628 28.9996 63.396 28.9996 63.0099 28.9996C61.7454 28.9996 60.0176 28.9996 59.7281 29.7493C59.3387 30.7531 61.1727 34.2216 62.3471 35.3992C63.5215 36.5768 65.6032 37.468 65.6257 37.4776C65.6594 37.492 65.6876 37.5168 65.7061 37.5484L67.3503 40.5053C67.9166 40.2962 70.1784 39.3856 70.6643 37.9892C70.5291 37.7383 69.6218 36.6186 68.7788 35.6244C68.7614 35.604 68.7493 35.5797 68.7434 35.5536C68.7434 35.5311 68.2254 33.3271 67.3149 31.8889C66.4043 30.4507 65.3104 28.9803 64.1489 28.9803V28.9771Z" fill="#231F20"/>
<path d="M60.6808 23.5365L55.2988 26.2764L61.3041 38.0725L66.686 35.3326L60.6808 23.5365Z" fill="#231F20"/>
<path d="M61.306 38.2364C61.289 38.2398 61.2715 38.2398 61.2546 38.2364C61.2151 38.2229 61.1818 38.1955 61.1612 38.1592L55.1703 26.351C55.1603 26.3325 55.1541 26.3121 55.1521 26.2912C55.1501 26.2702 55.1523 26.2491 55.1586 26.229C55.1649 26.2089 55.1751 26.1903 55.1888 26.1742C55.2024 26.1581 55.2191 26.1449 55.2379 26.1354L60.6078 23.4038C60.6458 23.3847 60.6898 23.3815 60.7302 23.3947C60.7706 23.408 60.8041 23.4367 60.8234 23.4746L66.8305 35.2731C66.8465 35.3123 66.8465 35.3562 66.8305 35.3954C66.8168 35.4357 66.7879 35.4692 66.75 35.4887L61.3768 38.2042C61.3565 38.2211 61.3321 38.2322 61.306 38.2364ZM55.5146 26.3478L61.3736 37.86L66.4701 35.2667L60.6111 23.7545L55.5146 26.3478Z" fill="#231F20"/>
<path d="M64.345 29.4465C63.623 29.4605 62.9106 29.6146 62.2472 29.9001C61.9988 29.9845 61.7822 30.1428 61.6263 30.3538C61.5262 30.5586 61.506 30.7934 61.5697 31.0123C61.6333 31.2312 61.7762 31.4186 61.9705 31.5378C62.1694 31.6494 62.389 31.7192 62.6159 31.743C62.8427 31.7668 63.072 31.7441 63.2897 31.6762C62.9969 31.792 62.6462 31.9979 62.6655 32.3004C62.6848 32.6028 63.0452 32.7734 63.3476 32.7573C63.6501 32.7412 63.9461 32.6093 64.2485 32.6125C64.149 32.681 64.0676 32.7728 64.0115 32.8799C63.9555 32.987 63.9264 33.1061 63.9268 33.227C63.9282 33.4712 63.9843 33.7119 64.0909 33.9316C64.1413 34.0761 64.2303 34.2041 64.3483 34.3017C64.5214 34.4017 64.7225 34.4424 64.921 34.4175C65.8106 34.3894 66.6916 34.2334 67.5368 33.9542" fill="white"/>
<path d="M64.8215 34.5844C64.6206 34.5978 64.4209 34.5459 64.252 34.4364C64.1053 34.3228 63.9938 34.1699 63.9302 33.9956C63.8138 33.7547 63.7522 33.491 63.75 33.2234C63.7544 33.0901 63.785 32.9589 63.8401 32.8373H63.7951C63.6497 32.8755 63.501 32.9003 63.3511 32.9113C63.1116 32.9273 62.8753 32.85 62.6915 32.6958C62.6333 32.6462 62.5858 32.5852 62.552 32.5166C62.5183 32.448 62.499 32.3732 62.4952 32.2968C62.4885 32.1525 62.5368 32.0111 62.6304 31.9011C62.3621 31.8904 62.1013 31.8094 61.8742 31.6662C61.6447 31.5227 61.477 31.2987 61.4038 31.0381C61.3306 30.7775 61.3572 30.4989 61.4785 30.2569C61.6517 30.0152 61.8957 29.8331 62.1767 29.7357C62.8625 29.4446 63.5973 29.2863 64.3421 29.2692C64.3643 29.2678 64.3865 29.2711 64.4074 29.2788C64.4282 29.2865 64.4473 29.2984 64.4633 29.3138C64.4793 29.3292 64.492 29.3478 64.5005 29.3684C64.5089 29.3889 64.5131 29.411 64.5126 29.4332C64.5126 29.4771 64.4954 29.5191 64.4647 29.5504C64.434 29.5817 64.3923 29.5997 64.3485 29.6006C63.6458 29.6175 62.9526 29.7671 62.3054 30.0413C62.0897 30.1147 61.9005 30.2501 61.7616 30.4307C61.6845 30.5996 61.6717 30.7909 61.7256 30.9686C61.7795 31.1463 61.8965 31.2983 62.0544 31.3959C62.2349 31.4925 62.4327 31.5524 62.6365 31.5723C62.8402 31.5922 63.0459 31.5716 63.2417 31.5117C63.2826 31.5007 63.3263 31.5059 63.3635 31.5263C63.4006 31.5466 63.4285 31.5807 63.4412 31.6211C63.454 31.6613 63.4512 31.7048 63.4333 31.743C63.4154 31.7812 63.3837 31.8112 63.3446 31.8271C62.9939 31.9654 62.8202 32.1231 62.8266 32.2872C62.829 32.3195 62.8379 32.351 62.8528 32.3798C62.8677 32.4085 62.8884 32.434 62.9135 32.4545C63.0325 32.5497 63.1829 32.5968 63.335 32.5864C63.4644 32.5756 63.5926 32.5529 63.7179 32.5188C63.8904 32.4738 64.0673 32.4479 64.2455 32.4416C64.2819 32.4425 64.3169 32.4553 64.3454 32.4779C64.3738 32.5006 64.3941 32.5319 64.4032 32.5671C64.413 32.6015 64.4111 32.6383 64.3977 32.6715C64.3843 32.7047 64.3602 32.7325 64.3292 32.7505C64.2517 32.8039 64.1885 32.8755 64.1453 32.9592C64.1021 33.0428 64.0802 33.1358 64.0814 33.2299C64.0851 33.4527 64.1367 33.6722 64.2327 33.8734C64.2739 33.9905 64.3435 34.0955 64.4354 34.179C64.5801 34.2531 64.744 34.2811 64.9051 34.2595C65.7805 34.2334 66.6475 34.0805 67.4791 33.8058C67.5218 33.7922 67.5681 33.796 67.6079 33.8165C67.6478 33.837 67.6778 33.8725 67.6915 33.9152C67.7051 33.9579 67.7013 34.0042 67.6807 34.044C67.6602 34.0839 67.6247 34.1139 67.5821 34.1276C66.7212 34.4118 65.8241 34.571 64.918 34.6005L64.8215 34.5844Z" fill="#231F20"/>
<path d="M22.8857 26.7535C22.8857 26.7535 30.8554 29.971 36.1707 28.6518C41.486 27.3327 46.1964 24.2503 47.7537 26.7535C49.3109 29.2567 49.7807 62.1105 49.7807 62.1105L28.8027 65.8041L23.3684 36.0199L22.8857 26.7535Z" fill="#231F20"/>
<path d="M28.8017 65.9654C28.7643 65.9646 28.7283 65.9511 28.6997 65.9272C28.671 65.9032 28.6514 65.8701 28.644 65.8334L23.2097 36.0492L22.7239 26.7603C22.7224 26.7334 22.7278 26.7066 22.7396 26.6823C22.7515 26.6581 22.7693 26.6373 22.7914 26.622C22.8144 26.6087 22.8405 26.6017 22.8671 26.6017C22.8936 26.6017 22.9197 26.6087 22.9427 26.622C23.0231 26.6509 30.9317 29.8137 36.1343 28.5106C37.7039 28.0923 39.2505 27.5919 40.7675 27.0113C44.1105 25.7983 46.7488 24.8395 47.9039 26.6895C49.4805 29.2024 49.9374 60.7949 49.9567 62.1301C49.9566 62.1681 49.9435 62.2048 49.9195 62.2341C49.8954 62.2635 49.8619 62.2836 49.8247 62.291L28.8307 65.9621L28.8017 65.9654ZM23.0553 26.992L23.5282 36.0009L28.9304 65.6018L49.6317 61.9564C49.5963 59.643 49.1072 29.1734 47.6304 26.8182C46.6105 25.2095 44.0912 26.1136 40.8737 27.2783C39.3457 27.8616 37.7885 28.3653 36.2084 28.7873C31.4143 30.0068 24.4163 27.5068 23.0553 26.992Z" fill="#231F20"/>
<path d="M47.0132 32.6385C47.0132 32.6385 40.1278 31.7312 37.5892 36.8952C35.0506 42.0593 35.2211 66.7889 35.2211 66.7889L57.3574 62.6576C57.3574 62.6576 58.2455 51.6506 60.6907 47.3939C63.136 43.1371 61.8973 39.7459 60.6907 38.2434C59.674 36.9918 52.6277 31.9693 47.0132 32.6385Z" fill="#00B87C"/>
<path d="M48.2383 37.8475L51.5587 55.5276L56.4718 41.065L48.2383 37.8475Z" fill="#231F20"/>
<path d="M51.5639 55.6852C51.5287 55.6835 51.4951 55.6698 51.4688 55.6464C51.4425 55.623 51.4249 55.5913 51.4191 55.5565L48.0922 37.8829C48.0863 37.8546 48.0883 37.8253 48.0979 37.798C48.1076 37.7708 48.1245 37.7467 48.1469 37.7285C48.169 37.7102 48.1956 37.6983 48.2238 37.6937C48.2521 37.6892 48.2811 37.6923 48.3078 37.7027L56.5413 40.9202C56.5798 40.9347 56.6111 40.9637 56.6286 41.001C56.646 41.0382 56.6482 41.0808 56.6346 41.1197L51.7247 55.5984C51.7099 55.6275 51.6866 55.6514 51.6578 55.6669C51.6291 55.6824 51.5963 55.6888 51.5639 55.6852ZM48.4493 38.1049L51.6057 54.897L56.2743 41.1583L48.4493 38.1049Z" fill="#231F20"/>
<path d="M51.2892 40.9781L52.3542 43.8739C52.3542 43.8739 50.7197 51.0521 50.7454 51.1744L51.5627 55.5244L53.017 51.2419L53.0524 43.52L54.3715 41.1648L51.2892 40.9781Z" fill="white"/>
<path d="M51.5629 55.6885C51.5275 55.6863 51.4938 55.6726 51.4671 55.6493C51.4403 55.626 51.422 55.5945 51.4149 55.5598C51.4149 55.5598 50.6234 51.3352 50.5977 51.2129C50.5977 51.1679 50.5687 51.0585 52.2064 43.89L51.1575 41.036C51.1484 41.0109 51.1458 40.984 51.1497 40.9576C51.1536 40.9312 51.1641 40.9062 51.1801 40.8848C51.1962 40.8637 51.2172 40.8468 51.2413 40.8356C51.2654 40.8244 51.2919 40.8192 51.3184 40.8205L54.3975 41.0039C54.4247 41.0042 54.4513 41.0118 54.4745 41.026C54.4978 41.0401 54.5167 41.0603 54.5295 41.0843C54.543 41.1084 54.5501 41.1355 54.5501 41.1631C54.5501 41.1907 54.543 41.2179 54.5295 41.242L53.2425 43.5618L53.2071 51.2483C53.2088 51.2655 53.2088 51.2827 53.2071 51.2998L51.7142 55.5791C51.7031 55.6105 51.6826 55.6378 51.6556 55.6574C51.6286 55.6769 51.5963 55.6878 51.5629 55.6885ZM50.9194 51.1679C50.9677 51.4221 51.4053 53.7644 51.6176 54.8937L52.866 51.2194L52.9014 43.5135C52.9024 43.4863 52.9101 43.4598 52.9239 43.4363L54.1176 41.3063L51.5436 41.1551L52.525 43.8224C52.5345 43.8517 52.5345 43.8832 52.525 43.9125C51.8847 46.6666 50.9484 50.8268 50.9066 51.1679H50.9194Z" fill="#231F20"/>
<path d="M28.803 65.8038C28.803 65.8038 31.3416 36.0711 26.509 29.1599C21.6763 22.2488 18.8996 31.8658 18.6583 37.3227C18.417 42.7795 22.2812 64.993 22.2812 64.993L28.803 65.8038Z" fill="#231F20"/>
<path d="M28.802 65.9652H28.7859L22.2641 65.1576C22.2302 65.154 22.1985 65.1395 22.1735 65.1163C22.1486 65.0931 22.1318 65.0625 22.1258 65.0289C22.0872 64.8037 18.2648 42.7318 18.4997 37.3168C18.6734 33.3592 20.1084 27.4391 22.7403 26.6733C23.9694 26.3162 25.2821 27.1238 26.6431 29.0703C28.6669 31.9661 29.6708 39.0445 29.6321 50.0741C29.6 58.2851 28.9726 65.7432 28.9661 65.8172C28.9636 65.8579 28.9455 65.896 28.9155 65.9236C28.8855 65.9512 28.846 65.9661 28.8053 65.9652H28.802ZM22.4185 64.8552L28.6573 65.6242C28.8503 63.2239 30.9352 35.7724 26.3761 29.2666C25.0891 27.4423 23.9082 26.6926 22.8368 26.9951C20.3851 27.7094 18.9951 33.5909 18.8278 37.3457C18.5865 42.5066 22.1161 63.1049 22.4185 64.8552Z" fill="#231F20"/>
<path d="M84.6257 51.4161L12.0039 64.6978L59.3138 76.1103L117 56.3356L84.6257 51.4161Z" fill="white"/>
<path d="M59.3137 76.2767H59.2751L11.978 64.8642C11.9415 64.8542 11.9094 64.8324 11.8866 64.8021C11.8639 64.7718 11.8519 64.7348 11.8526 64.6969C11.8535 64.6591 11.8674 64.6227 11.892 64.594C11.9166 64.5653 11.9504 64.5459 11.9877 64.5393L84.6127 51.2575C84.6308 51.2543 84.6494 51.2543 84.6674 51.2575L117.039 56.177C117.076 56.1827 117.11 56.2007 117.136 56.2281C117.161 56.2555 117.177 56.2908 117.18 56.3283C117.183 56.3652 117.174 56.4022 117.154 56.4332C117.133 56.4642 117.103 56.4873 117.067 56.4988L59.3684 76.267C59.3508 76.2733 59.3323 76.2766 59.3137 76.2767ZM12.8017 64.7162L59.304 75.9356L116.302 56.399L84.6256 51.5728L12.8017 64.7162Z" fill="#231F20"/>
<path d="M100.774 58.3594C104.42 58.3594 107.376 57.4692 107.376 56.371C107.376 55.2728 104.42 54.3826 100.774 54.3826C97.1278 54.3826 94.1719 55.2728 94.1719 56.371C94.1719 57.4692 97.1278 58.3594 100.774 58.3594Z" fill="white"/>
<path d="M100.774 58.5202C97.4506 58.5202 94.0176 57.7158 94.0176 56.3709C94.0176 55.026 97.4571 54.2216 100.774 54.2216C104.092 54.2216 107.531 55.026 107.531 56.3709C107.531 57.7158 104.101 58.5202 100.774 58.5202ZM100.774 54.5434C96.9133 54.5434 94.3393 55.4893 94.3393 56.3709C94.3393 57.2525 96.9133 58.1984 100.774 58.1984C104.635 58.1984 107.209 57.2525 107.209 56.3709C107.209 55.4893 104.629 54.5434 100.774 54.5434Z" fill="#D1D3D4"/>
<path d="M105.753 50.9655L105.91 50.9913C106.388 51.0619 106.823 51.3072 107.13 51.6798C107.303 51.9433 107.398 52.25 107.406 52.5651C107.413 52.8802 107.332 53.191 107.172 53.4623C106.47 54.7268 104.758 55.0711 103.446 55.1998C103.26 55.2281 103.071 55.2138 102.892 55.1579C102.808 55.1376 102.732 55.0907 102.675 55.024C102.619 54.9574 102.586 54.8745 102.58 54.7876C102.574 54.7006 102.596 54.6141 102.643 54.5406C102.69 54.4672 102.759 54.4106 102.841 54.3793C102.978 54.3125 103.126 54.2711 103.278 54.257C104.096 54.1219 104.958 54.0222 105.704 53.6425C106.142 53.4237 106.75 52.9153 106.432 52.3748C106.321 52.201 106.161 52.0643 105.971 51.9823C105.222 51.6219 104.507 51.8954 103.764 52.1142C103.711 52.1339 103.654 52.1427 103.597 52.1399C103.529 52.12 103.47 52.0769 103.431 52.0181C103.392 51.9593 103.374 51.8886 103.381 51.8182C103.407 51.4964 103.729 51.2809 104.025 51.1747C104.573 50.9563 105.168 50.8842 105.753 50.9655Z" fill="white"/>
<path d="M103.223 55.3733C103.09 55.376 102.958 55.353 102.834 55.3057C102.721 55.2732 102.622 55.2068 102.549 55.1157C102.475 55.0246 102.432 54.9131 102.424 54.7964C102.416 54.6798 102.445 54.5635 102.505 54.4635C102.566 54.3635 102.656 54.2846 102.763 54.2375C102.917 54.1633 103.082 54.1154 103.252 54.096L103.554 54.0477C104.271 53.9718 104.972 53.7874 105.633 53.5007C105.945 53.364 106.197 53.1181 106.341 52.809C106.358 52.75 106.363 52.6878 106.355 52.6268C106.347 52.5657 106.325 52.5072 106.293 52.455C106.198 52.3094 106.061 52.1969 105.9 52.1333C105.273 51.8309 104.655 52.0175 104.002 52.217L103.809 52.2749C103.734 52.3025 103.653 52.3124 103.574 52.3038C103.463 52.2784 103.365 52.2127 103.3 52.1193C103.234 52.026 103.206 51.9118 103.22 51.7987C103.246 51.4769 103.513 51.1841 103.976 51.0072C104.549 50.7883 105.168 50.7207 105.775 50.8109L105.942 50.8399C106.458 50.9192 106.926 51.1862 107.258 51.5895C107.45 51.8781 107.557 52.2149 107.567 52.5614C107.576 52.9079 107.488 53.2502 107.312 53.549C106.737 54.5818 105.478 55.177 103.451 55.3669C103.387 55.3669 103.307 55.3733 103.223 55.3733ZM105.192 51.6475C105.486 51.6452 105.777 51.7102 106.042 51.8373C106.26 51.931 106.444 52.0894 106.569 52.291C106.625 52.3807 106.662 52.4814 106.675 52.5863C106.689 52.6912 106.681 52.7978 106.65 52.8991C106.479 53.2928 106.168 53.6091 105.778 53.7871C105.087 54.0924 104.353 54.2878 103.603 54.3662L103.303 54.4145C103.17 54.4284 103.039 54.4642 102.917 54.5207C102.873 54.5421 102.835 54.5732 102.805 54.6116C102.775 54.6501 102.754 54.6949 102.744 54.7427C102.751 54.8017 102.774 54.8576 102.811 54.9041C102.848 54.9507 102.897 54.9861 102.953 55.0065C103.108 55.0544 103.272 55.0654 103.432 55.0387C105.334 54.8617 106.511 54.318 107.029 53.3849C107.176 53.1409 107.251 52.8608 107.245 52.5764C107.24 52.2919 107.155 52.0147 107 51.7762C106.714 51.4386 106.315 51.2167 105.877 51.152L105.729 51.1262C105.177 51.0421 104.613 51.1031 104.092 51.3032C103.934 51.3643 103.567 51.5348 103.545 51.8212C103.545 51.8952 103.577 51.9756 103.622 51.9821C103.656 51.981 103.69 51.9744 103.722 51.9628L103.912 51.9049C104.324 51.7576 104.755 51.6709 105.192 51.6475Z" fill="#D1D3D4"/>
<path d="M105.138 49.6108C105.138 49.6108 103.899 55.7787 103.799 56.1487C103.699 56.5187 100.418 57.4743 98.4517 56.5477L96.415 50.2447L105.138 49.6108Z" fill="white"/>
<path d="M100.516 57.1006C99.7827 57.1198 99.0539 56.9804 98.3795 56.692C98.3596 56.6826 98.3419 56.6692 98.3275 56.6526C98.3131 56.636 98.3023 56.6165 98.2959 56.5955L96.2624 50.2924C96.2551 50.2693 96.2531 50.2447 96.2565 50.2207C96.26 50.1966 96.2689 50.1737 96.2825 50.1535C96.2962 50.1334 96.3142 50.1166 96.3352 50.1045C96.3562 50.0923 96.3798 50.0851 96.404 50.0833L105.123 49.4398C105.148 49.4381 105.173 49.4422 105.196 49.4517C105.219 49.4612 105.239 49.4758 105.255 49.4945C105.272 49.5131 105.284 49.5352 105.291 49.5592C105.297 49.5832 105.298 49.6084 105.294 49.6328C105.242 49.8838 104.052 55.8072 103.952 56.1804C103.92 56.2995 103.795 56.4024 103.54 56.5215C102.579 56.9064 101.552 57.103 100.516 57.1006ZM98.5854 56.4314C100.471 57.2679 103.46 56.3702 103.653 56.0903C103.733 55.7686 104.721 50.8651 104.94 49.7873L96.6357 50.3889L98.5854 56.4314Z" fill="#D1D3D4"/>
<path d="M100.843 51.6769C103.256 51.5779 105.178 50.6513 105.135 49.6073C105.092 48.5633 103.101 47.7973 100.688 47.8963C98.2754 47.9954 96.3541 48.9219 96.3969 49.9659C96.4398 51.0099 98.4305 51.7759 100.843 51.6769Z" fill="#D1D3D4"/>
<path d="M100.424 51.8498C99.4876 51.8648 98.5558 51.7111 97.6735 51.3961C96.7694 51.0486 96.2578 50.5435 96.2353 49.9676C96.187 48.8189 98.14 47.8344 100.682 47.7153C101.76 47.6507 102.84 47.7994 103.861 48.1529C104.762 48.5004 105.273 49.0088 105.296 49.5815C105.318 50.1542 104.855 50.7012 103.983 51.1226C102.994 51.5577 101.929 51.7939 100.849 51.8176C100.708 51.8391 100.566 51.8498 100.424 51.8498ZM101.11 48.05H100.695C98.4135 48.1433 96.512 49.0152 96.557 49.9515C96.5731 50.3826 97.0235 50.7977 97.7893 51.0937C99.7721 51.7321 101.917 51.6443 103.841 50.8459C104.581 50.4888 104.993 50.0384 104.974 49.6072C104.955 49.1761 104.507 48.761 103.745 48.465C102.898 48.1712 102.006 48.0306 101.11 48.05Z" fill="#D1D3D4"/>
<path d="M59.6035 60.8909C59.6035 60.8909 75.3692 55.9199 75.6395 55.9199C75.9097 55.9199 95.842 59.3369 95.842 59.3369L79.3009 64.9996L59.6035 60.8909Z" fill="white"/>
<path d="M79.3013 65.1672H79.2691L59.5717 61.0488C59.5358 61.0411 59.5035 61.0218 59.4796 60.9939C59.4558 60.966 59.4418 60.9311 59.4398 60.8944C59.4374 60.8576 59.4476 60.821 59.4686 60.7906C59.4896 60.7603 59.5203 60.7379 59.5556 60.7271C63.2589 59.5591 75.3631 55.7464 75.643 55.7464C75.923 55.7464 93.8315 58.8191 95.8713 59.1698C95.9095 59.1737 95.9451 59.1909 95.972 59.2183C95.9988 59.2458 96.0152 59.2817 96.0182 59.32C96.0213 59.3582 96.0108 59.3964 95.9887 59.4277C95.9666 59.4591 95.9342 59.4817 95.8971 59.4916L79.3496 65.1543C79.3343 65.1613 79.318 65.1656 79.3013 65.1672ZM60.2699 60.859L79.2917 64.8294L95.1828 59.3918C88.2202 58.1982 75.9905 56.11 75.643 56.0843C75.2569 56.1454 64.932 59.3854 60.2602 60.859H60.2699Z" fill="#231F20"/>
<path d="M81.5179 62.9793H81.4954L70.8777 61.4703C70.8426 61.4657 70.81 61.4496 70.785 61.4246C70.76 61.3996 70.7439 61.3671 70.7393 61.332C70.7354 61.297 70.7427 61.2617 70.76 61.2311C70.7773 61.2005 70.8039 61.1761 70.8358 61.1615L79.9638 57.2812C79.9914 57.2748 80.02 57.2748 80.0475 57.2812L90.308 58.7226C90.3475 58.7227 90.3857 58.7371 90.4154 58.763C90.4452 58.789 90.4646 58.8248 90.4701 58.864C90.4756 58.9031 90.4667 58.9429 90.4453 58.976C90.4238 59.0091 90.391 59.0334 90.3531 59.0444L81.579 62.989C81.5582 62.9901 81.5373 62.9868 81.5179 62.9793ZM71.4986 61.229L81.4921 62.6576L89.716 58.9575L80.0636 57.5997L71.4986 61.229Z" fill="#D1D3D4"/>
<path d="M79.2925 64.9998L59.5146 62.6672L59.6047 60.8911L79.2925 63.5295V64.9998Z" fill="white"/>
<path d="M79.3018 65.1673H79.2825L59.5046 62.8378C59.4827 62.8362 59.4614 62.8302 59.4419 62.8202C59.4224 62.8103 59.405 62.7965 59.3909 62.7797C59.3768 62.7629 59.3663 62.7434 59.3598 62.7225C59.3534 62.7015 59.3512 62.6795 59.3534 62.6576L59.4435 60.8816C59.4435 60.8587 59.4487 60.836 59.4587 60.8154C59.4687 60.7948 59.4833 60.7767 59.5014 60.7625C59.5191 60.7477 59.5396 60.7367 59.5618 60.73C59.5839 60.7234 59.6071 60.7213 59.6301 60.7239L79.3018 63.3655C79.3419 63.3702 79.3788 63.3896 79.4055 63.4199C79.4322 63.4501 79.4468 63.4892 79.4466 63.5296V65C79.4468 65.0236 79.4421 65.0469 79.4326 65.0686C79.4232 65.0902 79.4093 65.1096 79.3919 65.1255C79.3663 65.1476 79.3351 65.1621 79.3018 65.1673ZM59.6751 62.5225L79.1152 64.8134V63.6744L59.7491 61.0811L59.6751 62.5225Z" fill="#231F20"/>
<path d="M79.291 64.9993L82.9171 38.6771L99.5837 37.8309L95.8418 59.3366L79.291 64.9993Z" fill="white"/>
<path d="M79.3009 65.1668C79.2631 65.1667 79.2266 65.153 79.198 65.1282C79.176 65.1101 79.1588 65.0868 79.1482 65.0604C79.1375 65.034 79.1336 65.0053 79.1369 64.977L82.763 38.6548C82.7668 38.616 82.7846 38.58 82.813 38.5534C82.8414 38.5268 82.8785 38.5113 82.9174 38.51L99.5711 37.6638C99.596 37.6629 99.6208 37.6676 99.6436 37.6776C99.6665 37.6875 99.6868 37.7024 99.7031 37.7212C99.7195 37.7401 99.7314 37.7623 99.7381 37.7863C99.7447 37.8103 99.7459 37.8355 99.7416 37.86L95.9965 59.3657C95.992 59.3952 95.9793 59.4228 95.96 59.4456C95.9407 59.4683 95.9154 59.4852 95.8871 59.4944L79.3396 65.1572C79.3272 65.1621 79.3142 65.1653 79.3009 65.1668ZM83.0622 38.8478L79.494 64.755L95.7101 59.2113L99.4006 38.008L83.0622 38.8478Z" fill="#231F20"/>
<path d="M70.6941 60.276H70.678L67.4605 59.9124C67.4244 59.9083 67.3907 59.8921 67.365 59.8664C67.3393 59.8406 67.3231 59.807 67.3189 59.7709C67.3139 59.7349 67.3213 59.6983 67.3401 59.6673C67.3588 59.6362 67.3877 59.6126 67.4219 59.6003L73.0075 57.5605C73.0341 57.5557 73.0613 57.5557 73.0879 57.5605L76.2153 58.0463C76.2507 58.0519 76.2833 58.0692 76.3078 58.0954C76.3323 58.1217 76.3473 58.1553 76.3504 58.1911C76.3534 58.2267 76.3446 58.2624 76.3254 58.2926C76.3063 58.3228 76.2778 58.3459 76.2442 58.3584L70.7584 60.2728C70.7375 60.2785 70.7155 60.2796 70.6941 60.276ZM68.1651 59.6679L70.678 59.951L75.5203 58.2586L73.0686 57.879L68.1651 59.6679Z" fill="#D1D3D4"/>
<path d="M38.2235 35.8429C35.4049 40.1451 33.3236 44.8873 32.0653 49.8744C30.6785 55.3795 30.3439 60.447 32.5189 61.808C34.6939 63.169 49.874 64.4045 49.874 64.4045C49.874 64.4045 49.459 60.5435 52.1745 58.4554C52.1745 58.4554 41.3284 55.92 41.4957 54.3788C41.663 52.8377 46.56 42.3294 46.6437 39.8841C46.7273 37.4388 41.2093 34.0701 38.2235 35.8429Z" fill="#00B87C"/>
<path d="M58.1448 64.7516C58.1448 64.7516 63.769 66.5856 65.8989 65.8038C68.0289 65.0219 68.1512 64.6616 67.9839 63.6641C67.8165 62.6667 63.6338 59.6326 60.5836 59.3624C57.5335 59.0921 55.6931 61.2639 55.7381 62.3514C55.7832 63.4389 58.1448 64.7516 58.1448 64.7516Z" fill="#231F20"/>
<path d="M64.5004 66.1576C61.9811 66.1576 58.2875 64.9639 58.0976 64.9028H58.0687C57.9722 64.8481 55.6459 63.5321 55.5977 62.3706C55.5751 61.8333 55.9451 61.1351 56.5629 60.5431C57.1058 60.0468 57.748 59.6716 58.447 59.4425C59.1459 59.2134 59.8856 59.1356 60.6169 59.2143C63.7282 59.4942 67.9496 62.5701 68.1458 63.648C68.3421 64.7258 68.0976 65.1827 65.9579 65.9678C65.4865 66.1136 64.9935 66.1778 64.5004 66.1576ZM58.2135 64.6036C58.5352 64.7065 63.8473 66.386 65.8486 65.6524C67.9399 64.8867 67.9882 64.5714 67.8305 63.693C67.6729 62.8146 63.5995 59.7902 60.5912 59.5103C59.9032 59.4363 59.2074 59.5097 58.5501 59.7255C57.8927 59.9413 57.2888 60.2946 56.7785 60.7619C56.2315 61.2831 55.8937 61.9041 55.9097 62.3449C55.9484 63.1557 57.57 64.2432 58.2102 64.6036H58.2135Z" fill="#231F20"/>
<path d="M61.1891 38.9442C61.1891 38.9442 69.6125 49.208 69.8409 47.6314C69.9696 46.7981 64.9793 38.8477 64.9793 38.8477L71.0475 36.3445C71.0475 36.3445 79.6414 49.1919 77.7205 52.7376C75.7997 56.2833 72.2186 57.3772 65.2206 53.3811C58.2226 49.385 55.7998 46.9461 55.7998 46.9461L61.1891 38.9442Z" fill="#00B87C"/>
<path d="M51.6694 58.8988C51.6694 58.8988 55.5722 59.523 56.5471 58.8988C57.522 58.2746 58.9698 57.6118 59.6037 57.7308C60.2375 57.8499 67.168 61.6723 66.444 62.2611C65.7201 62.8499 62.8212 60.9001 62.8212 60.9001C62.8212 60.9001 65.2664 62.7115 64.7677 63.5738C64.269 64.4361 63.6802 64.0725 62.7761 63.3003C61.872 62.5281 59.6037 60.8904 59.6037 60.8904C59.6037 60.8904 62.7311 64.2527 62.4125 65.2051C62.094 66.1574 60.4209 64.9316 58.381 62.4412C58.381 62.4412 60.6333 65.6105 59.4685 65.7939C58.3038 65.9772 56.5471 63.8891 56.5471 63.8891C56.5471 63.8891 54.8032 65.1568 53.217 64.9991C52.0915 64.8695 50.975 64.6707 49.874 64.4039C49.7168 63.4097 49.7976 62.3924 50.1097 61.4355C50.4218 60.4785 50.9563 59.6092 51.6694 58.8988Z" fill="white"/>
<path d="M59.3224 65.971C58.2445 65.971 56.8932 64.536 56.5167 64.1113C56.0791 64.4041 54.5862 65.305 53.1995 65.1635C52.0663 65.0339 50.9423 64.834 49.834 64.565C49.804 64.5574 49.7767 64.5417 49.7551 64.5195C49.7335 64.4974 49.7185 64.4697 49.7117 64.4395C49.5557 63.4207 49.6407 62.3795 49.9597 61.3995C50.2788 60.4194 50.823 59.5278 51.5489 58.7961C51.5672 58.7766 51.5899 58.7621 51.6152 58.7537C51.6405 58.7452 51.6675 58.7432 51.6937 58.7478C52.7619 58.9183 55.6995 59.2562 56.4556 58.7735C57.2117 58.2909 58.8494 57.4125 59.6377 57.5798C60.0399 57.6667 66.3944 60.9904 66.6518 62.0843C66.6661 62.1422 66.6641 62.203 66.6459 62.2598C66.6277 62.3166 66.5941 62.3673 66.5488 62.4061C66.108 62.7632 65.101 62.4061 64.2226 61.9395C64.7567 62.5187 65.1878 63.1911 64.9111 63.6738C64.847 63.8141 64.7521 63.9382 64.6335 64.0368C64.5148 64.1354 64.3755 64.2059 64.2258 64.2432C63.7947 64.3173 63.3442 64.0212 62.6653 63.4453C62.2181 63.0624 61.4202 62.4576 60.7348 61.9492C61.6582 63.0592 62.7908 64.6004 62.5656 65.2728C62.5378 65.3793 62.4804 65.4756 62.4001 65.5508C62.3198 65.6259 62.2199 65.6768 62.1119 65.6976C61.4684 65.8166 60.4066 64.9189 59.5122 63.9923C59.8339 64.6358 60.072 65.2793 59.9176 65.6589C59.882 65.7463 59.8234 65.8223 59.7481 65.879C59.6727 65.9356 59.5834 65.9708 59.4897 65.9807C59.4338 65.9806 59.3779 65.9773 59.3224 65.971ZM56.5457 63.7188C56.5696 63.7185 56.5932 63.7236 56.6149 63.7336C56.6366 63.7436 56.6558 63.7583 56.6711 63.7767C57.1409 64.3366 58.5534 65.7587 59.4414 65.6236C59.4782 65.6222 59.514 65.6106 59.5446 65.5902C59.5753 65.5697 59.5997 65.5412 59.6151 65.5077C59.8178 65.0219 58.8816 63.4228 58.2445 62.5316C58.223 62.4963 58.2152 62.4544 58.2228 62.4138C58.2303 62.3732 58.2526 62.3368 58.2854 62.3117C58.3181 62.2865 58.359 62.2744 58.4001 62.2775C58.4413 62.2807 58.4798 62.299 58.5083 62.3288C60.4388 64.684 61.6229 65.4273 62.0476 65.3501C62.1119 65.3501 62.1956 65.3018 62.247 65.1441C62.4562 64.52 60.6576 62.2709 59.4736 61C59.4455 60.9692 59.43 60.9291 59.43 60.8874C59.43 60.8458 59.4455 60.8056 59.4736 60.7748C59.5004 60.744 59.5379 60.7245 59.5785 60.7203C59.6191 60.7161 59.6598 60.7276 59.6924 60.7523C59.7181 60.7684 61.9736 62.4029 62.8745 63.1686C63.4472 63.6545 63.859 63.944 64.1614 63.8925C64.3223 63.8636 64.4832 63.7317 64.6119 63.4839C64.9336 62.9498 63.6113 61.695 62.7104 61.029C62.6741 61.0034 62.6495 60.9644 62.6419 60.9207C62.6344 60.8769 62.6445 60.832 62.6701 60.7957C62.6957 60.7595 62.7347 60.7348 62.7784 60.7273C62.8222 60.7198 62.8671 60.7299 62.9034 60.7555C64.0649 61.5373 65.8925 62.4769 66.3268 62.1262C66.3268 61.9749 65.6672 61.2896 63.1898 59.8128C62.0254 59.0854 60.8116 58.4403 59.5572 57.8823C59.0199 57.7665 57.6428 58.3746 56.6261 59.0277C55.6802 59.6358 52.3115 59.1564 51.7162 59.0663C51.0591 59.7485 50.5651 60.5708 50.2714 61.4714C49.9777 62.3719 49.892 63.3273 50.0206 64.2658C51.0812 64.5171 52.1555 64.7061 53.2381 64.832C54.7407 64.9801 56.4363 63.7638 56.4556 63.7542C56.4817 63.7352 56.5133 63.725 56.5457 63.7252V63.7188Z" fill="#231F20"/>
<path d="M52.1744 58.6231C52.1552 58.6261 52.1356 58.6261 52.1165 58.6231L41.4376 54.5466C41.4167 54.5389 41.3976 54.5269 41.3815 54.5114C41.3654 54.4958 41.3528 54.4772 41.3443 54.4565C41.3356 54.4356 41.3311 54.4132 41.3311 54.3905C41.3311 54.3679 41.3356 54.3455 41.3443 54.3246C41.3926 54.2152 46.1963 43.2918 44.1371 37.391C44.13 37.3705 44.1271 37.3488 44.1284 37.3272C44.1298 37.3055 44.1354 37.2844 44.145 37.2649C44.1546 37.2455 44.1679 37.2281 44.1842 37.2139C44.2005 37.1996 44.2195 37.1887 44.2401 37.1818C44.2815 37.1673 44.3269 37.1696 44.3667 37.1882C44.4064 37.2069 44.4372 37.2404 44.4524 37.2816C45.334 39.8169 45.1313 43.4817 43.8443 48.1695C43.2663 50.2505 42.5559 52.2924 41.7176 54.2827L52.2355 58.2982C52.2761 58.314 52.3089 58.3451 52.3269 58.3847C52.3449 58.4244 52.3468 58.4695 52.332 58.5105C52.3203 58.5431 52.2989 58.5713 52.2708 58.5914C52.2426 58.6115 52.209 58.6226 52.1744 58.6231Z" fill="#231F20"/>
<path d="M58.1454 56.0844C58.1306 56.0876 58.1152 56.0876 58.1004 56.0844C58.0794 56.0788 58.0597 56.0691 58.0425 56.0559C58.0253 56.0427 58.0109 56.0261 58.0001 56.0073C57.9894 55.9884 57.9824 55.9676 57.9798 55.9461C57.9771 55.9245 57.9787 55.9026 57.9846 55.8817C57.9846 55.8592 58.6281 53.4751 59.4389 48.562C60.2497 43.6489 60.5232 38.3046 60.5264 38.266C60.5289 38.2222 60.5485 38.1811 60.581 38.1516C60.6135 38.1221 60.6563 38.1066 60.7001 38.1083C60.7439 38.1108 60.785 38.1305 60.8145 38.163C60.844 38.1955 60.8595 38.2382 60.8578 38.2821C60.8578 38.3336 60.5746 43.6939 59.767 48.6263C58.9595 53.5587 58.3095 55.959 58.3063 55.9815C58.2928 56.0127 58.2703 56.0392 58.2416 56.0576C58.213 56.0759 58.1795 56.0853 58.1454 56.0844Z" fill="#231F20"/>
<path d="M51.83 19.9842C52.0745 19.9198 52.3319 19.8651 52.5989 19.8169C53.4258 19.6689 54.2431 19.0447 55.0249 18.7133C55.9771 18.3094 56.9592 17.9803 57.9625 17.7287C59.0596 17.4553 60.2501 17.2815 61.3022 17.6998C61.8368 17.927 62.3228 18.2547 62.734 18.665C63.8376 19.7268 64.642 21.1779 64.613 22.7094C64.5841 24.2409 63.5802 25.7853 62.0937 26.1457C60.9676 26.4192 61.1478 26.9147 61.0609 27.9121C61.0079 28.947 60.6742 29.948 60.0957 30.8078C58.2874 33.2885 54.523 31.9725 52.2321 30.9204C50.7907 30.2769 49.3943 29.2602 48.6028 27.8509C47.7244 26.2937 48.2264 23.8967 48.9664 22.3233C49.2232 21.7337 49.6169 21.2139 50.115 20.807C50.613 20.4002 51.201 20.1181 51.83 19.9842Z" fill="white"/>
<path d="M57.0255 32.4131C55.6999 32.4131 54.0783 31.9734 52.1606 31.0939C50.9702 30.5469 49.3614 29.5592 48.4573 27.9569C47.5854 26.4125 48.0101 23.9929 48.8177 22.278C49.0805 21.6619 49.4874 21.118 50.0042 20.6919C50.521 20.2658 51.1325 19.97 51.7874 19.8295C52.0255 19.7652 52.2829 19.7072 52.5693 19.6558C53.1051 19.5221 53.6165 19.305 54.0847 19.0123C54.3743 18.8546 54.6703 18.6905 54.9599 18.5683C55.9196 18.1622 56.9092 17.8309 57.9199 17.5773C58.9238 17.3263 60.2172 17.0979 61.3626 17.5547C61.9189 17.796 62.4228 18.1436 62.8459 18.5779C64.0975 19.7812 64.7989 21.2999 64.7764 22.7381C64.7474 24.4273 63.6117 25.9556 62.1348 26.332C61.2983 26.5347 61.2854 26.8243 61.25 27.5257C61.25 27.6576 61.25 27.7992 61.2243 27.9536C61.1714 29.0215 60.8264 30.0543 60.2269 30.9395C59.5019 31.9219 58.4347 32.4131 57.0255 32.4131ZM51.8775 20.1384C51.2681 20.2691 50.699 20.5443 50.2181 20.9407C49.7371 21.3371 49.3584 21.8432 49.1137 22.4164C48.3415 24.0541 47.9297 26.3546 48.7437 27.7992C49.606 29.3243 51.1536 30.2735 52.3022 30.8011C56.0924 32.5418 58.6696 32.5193 59.9695 30.7368C60.533 29.8972 60.8547 28.9188 60.8993 27.9086C60.8993 27.7574 60.9219 27.619 60.9251 27.4903C60.9605 26.7761 60.9862 26.258 62.0544 25.9974C63.3961 25.6757 64.4257 24.26 64.4514 22.7156C64.4772 21.3642 63.8079 19.9325 62.6239 18.7903C62.23 18.3829 61.7614 18.0552 61.2436 17.825C60.1851 17.4035 58.9528 17.6223 58.0004 17.8636C57.0053 18.1097 56.0307 18.4324 55.0853 18.8289C54.8119 18.9447 54.5351 19.0991 54.2424 19.26C53.7452 19.5703 53.2023 19.8005 52.6336 19.9421C52.3537 19.9904 52.1059 20.0451 51.8775 20.1062V20.1384Z" fill="#231F20"/>
<path d="M56.7787 35.9526L56.4827 41.0652C56.4827 41.0652 54.1468 43.7389 51.1385 42.0948C48.1301 40.4506 48.2427 37.8509 48.2427 37.8509L50.2151 28.2467C50.2151 28.2467 52.9435 27.6032 53.6385 22.2493C55.9648 24.0884 58.7432 25.2675 61.6822 25.6631C61.6822 25.6631 61.6307 31.6733 60.5721 34.0607C59.5136 36.4481 56.7787 35.9526 56.7787 35.9526Z" fill="white"/>
<path d="M53.1033 42.7862C52.3833 42.781 51.6766 42.5916 51.0505 42.236C47.9875 40.5629 48.0711 37.9503 48.0776 37.8409L50.0531 28.2303C50.0594 28.2002 50.0743 28.1726 50.096 28.1509C50.1177 28.1292 50.1453 28.1143 50.1754 28.108C50.2011 28.108 52.8073 27.4195 53.4733 22.2426C53.4776 22.2139 53.4893 22.1869 53.5074 22.1643C53.5255 22.1417 53.5493 22.1243 53.5762 22.1139C53.6037 22.1039 53.6334 22.1014 53.6621 22.1065C53.6909 22.1115 53.7179 22.1241 53.7403 22.1428C56.0469 23.9568 58.796 25.1219 61.7036 25.518C61.7423 25.5234 61.7776 25.5428 61.8031 25.5724C61.8285 25.602 61.8423 25.6398 61.842 25.6788C61.842 25.9266 61.7776 31.7502 60.7158 34.1408C59.7796 36.2547 57.5627 36.2129 56.9192 36.1485L56.6329 41.0906C56.6303 41.126 56.6168 41.1597 56.5942 41.1871C56.5749 41.1935 55.1496 42.7862 53.1033 42.7862ZM50.3427 28.3751L48.4122 37.8827C48.4122 37.9567 48.3414 40.3795 51.221 41.9529C53.9141 43.4265 56.0215 41.3319 56.3304 40.9876L56.6232 35.9297C56.6251 35.9073 56.6315 35.8855 56.642 35.8656C56.6525 35.8457 56.6669 35.8281 56.6843 35.8139C56.702 35.7993 56.7228 35.7889 56.745 35.7833C56.7673 35.7777 56.7905 35.7772 56.813 35.7817C56.9192 35.801 59.4449 36.2225 60.4391 33.9832C61.3819 31.8532 61.517 26.7052 61.5331 25.7882C58.7151 25.3679 56.0465 24.2509 53.7693 22.5386C53.0711 27.2071 50.8607 28.2046 50.3427 28.3751Z" fill="#231F20"/>
<path d="M51.325 30.9462C50.6278 31.05 49.9178 30.8742 49.3495 30.4571C48.9672 30.1547 48.6689 29.7592 48.483 29.3086C48.2971 28.8579 48.2299 28.3672 48.2877 27.8831C48.3045 27.5211 48.4012 27.1673 48.5709 26.8471C48.6576 26.6861 48.7776 26.5455 48.923 26.4345C49.0684 26.3235 49.2357 26.2448 49.4139 26.2036C49.8505 26.1759 50.2846 26.2886 50.6526 26.5254C51.2285 26.8214 51.2317 27.1496 51.5599 27.6386C51.5245 27.5936 51.4988 27.4681 51.4634 27.4263" fill="white"/>
<path d="M50.9268 31.1261C50.3245 31.1272 49.7378 30.9343 49.2537 30.5759C48.8474 30.2569 48.5303 29.8385 48.333 29.3611C48.1357 28.8837 48.065 28.3634 48.1276 27.8507C48.1449 27.4634 48.2493 27.0851 48.4333 26.7438C48.5341 26.5636 48.6724 26.4071 48.839 26.285C49.0055 26.1629 49.1963 26.078 49.3985 26.036C49.871 26.005 50.3411 26.1256 50.7402 26.3803C51.0774 26.5467 51.3434 26.8287 51.4899 27.175C51.5092 27.2072 51.5253 27.2426 51.5478 27.278C51.5689 27.2891 51.5875 27.3044 51.6025 27.323C51.636 27.3698 51.661 27.422 51.6765 27.4774C51.6839 27.4983 51.6925 27.5187 51.7022 27.5386C51.726 27.5727 51.7353 27.6149 51.728 27.6559C51.7208 27.6969 51.6976 27.7334 51.6636 27.7574C51.6307 27.7817 51.5898 27.7926 51.5491 27.7878C51.5085 27.783 51.4712 27.7629 51.4448 27.7316C51.4355 27.7211 51.4279 27.7091 51.4223 27.6962C51.342 27.5735 51.2679 27.4468 51.2003 27.3166C51.0804 27.0345 50.862 26.8058 50.5858 26.6731C50.2507 26.4459 49.8512 26.3331 49.4468 26.3513C49.2931 26.3851 49.1485 26.4518 49.023 26.5468C48.8974 26.6418 48.794 26.7628 48.7196 26.9015C48.5604 27.1994 48.4703 27.5293 48.4558 27.8668C48.3971 28.3258 48.4581 28.7921 48.6329 29.2206C48.8076 29.6491 49.0902 30.025 49.4532 30.312C49.9858 30.7077 50.6528 30.8776 51.3097 30.785C51.3518 30.7794 51.3945 30.7904 51.4287 30.8156C51.4629 30.8408 51.486 30.8783 51.4931 30.9201C51.4968 30.9409 51.4963 30.9621 51.4916 30.9827C51.4869 31.0032 51.4781 31.0226 51.4658 31.0397C51.4535 31.0568 51.438 31.0712 51.42 31.0822C51.402 31.0932 51.382 31.1004 51.3612 31.1035C51.2172 31.1227 51.072 31.1303 50.9268 31.1261Z" fill="#231F20"/>
<path d="M56.6142 38.6395C56.0311 38.5995 55.4666 38.4177 54.9698 38.1099C54.4729 37.802 54.0589 37.3774 53.7635 36.8731C52.7146 35.126 53.12 34.0095 53.12 34.0095C53.12 34.0095 54.5325 35.8081 56.7558 35.94L56.6142 38.6395Z" fill="#231F20"/>
<path d="M56.6142 38.7996C56.0033 38.7614 55.4112 38.5732 54.8904 38.2517C54.3696 37.9301 53.9361 37.4851 53.6284 36.956C52.5537 35.1606 52.9849 33.9991 52.9849 33.9508C52.9958 33.925 53.0132 33.9023 53.0353 33.8851C53.0575 33.8679 53.0837 33.8566 53.1115 33.8524C53.1393 33.8482 53.1676 33.8512 53.1939 33.8611C53.2202 33.871 53.2435 33.8875 53.2616 33.909C53.2616 33.909 54.6612 35.6561 56.7815 35.7945C56.8025 35.7953 56.8231 35.8003 56.8421 35.8092C56.8612 35.8181 56.8782 35.8307 56.8923 35.8463C56.9064 35.8619 56.9172 35.8801 56.9242 35.8999C56.9311 35.9198 56.934 35.9408 56.9327 35.9618L56.7751 38.6484C56.7734 38.6896 56.7556 38.7286 56.7255 38.7568C56.6954 38.7851 56.6555 38.8005 56.6142 38.7996ZM53.239 34.3434C53.194 34.7681 53.239 35.6304 53.9147 36.779C54.1866 37.237 54.5601 37.6264 55.0064 37.917C55.4527 38.2077 55.9599 38.3919 56.4887 38.4553L56.6238 36.0872C55.3265 35.9193 54.1289 35.3023 53.239 34.3434Z" fill="#231F20"/>
<path d="M57.1635 27.8313C57.1635 27.8313 58.2767 30.7656 57.7684 31.1131C57.26 31.4606 56.1982 30.9072 56.1982 30.9072" fill="white"/>
<path d="M57.3311 31.3902C56.9127 31.3611 56.505 31.2449 56.1342 31.0491C56.0969 31.0293 56.0688 30.9955 56.0562 30.9552C56.0435 30.9149 56.0473 30.8712 56.0666 30.8336C56.0865 30.7954 56.1206 30.7667 56.1615 30.7534C56.2025 30.7402 56.2469 30.7435 56.2854 30.7628C56.5557 30.9043 57.3407 31.2197 57.6882 30.9816C57.9038 30.8336 57.5917 29.3728 57.0222 27.8896C57.0145 27.8697 57.0107 27.8485 57.0112 27.8272C57.0117 27.8059 57.0165 27.7849 57.0251 27.7655C57.0338 27.746 57.0463 27.7285 57.0618 27.7139C57.0773 27.6993 57.0956 27.6879 57.1155 27.6804C57.1557 27.6656 57.2 27.6671 57.2391 27.6846C57.2781 27.702 57.3088 27.734 57.3246 27.7737C57.6721 28.6907 58.4218 30.8657 57.8716 31.2454C57.7104 31.3476 57.5218 31.3981 57.3311 31.3902Z" fill="#231F20"/>
<path d="M55.5651 27.3091C55.6684 26.9895 55.5685 26.6711 55.3419 26.5978C55.1153 26.5246 54.8479 26.7243 54.7446 27.0439C54.6413 27.3635 54.7413 27.6819 54.9679 27.7551C55.1944 27.8283 55.4618 27.6286 55.5651 27.3091Z" fill="#231F20"/>
<path d="M59.5599 28.1262C59.5645 27.7904 59.3752 27.5155 59.1371 27.5123C58.899 27.509 58.7023 27.7786 58.6977 28.1145C58.6932 28.4503 58.8825 28.7251 59.1206 28.7284C59.3586 28.7316 59.5554 28.462 59.5599 28.1262Z" fill="#231F20"/>
<path d="M56.8032 34.8903C56.6246 34.8891 56.447 34.8631 56.2755 34.8131C55.9214 34.7046 55.5966 34.517 55.3257 34.2645C55.0548 34.012 54.8449 33.7012 54.7118 33.3556C54.4925 32.7931 54.4098 32.1866 54.4705 31.586C54.4735 31.5631 54.4811 31.5411 54.4927 31.5213C54.5043 31.5014 54.5197 31.484 54.5381 31.4701C54.6121 31.4186 54.6539 31.3865 58.4988 32.2295C58.5353 32.2383 58.5677 32.2594 58.5906 32.2893C58.6134 32.3191 58.6253 32.356 58.6243 32.3935C58.6243 32.4579 58.5535 33.9733 57.6204 34.6458C57.3806 34.8113 57.0945 34.8969 56.8032 34.8903ZM54.7826 31.7694C54.7499 32.2648 54.8268 32.7613 55.0078 33.2237C55.1211 33.5269 55.302 33.8004 55.5367 34.0234C55.7714 34.2463 56.0537 34.413 56.3624 34.5106C56.5373 34.5712 56.7234 34.5925 56.9074 34.573C57.0915 34.5535 57.269 34.4938 57.4274 34.398C58.0902 33.9154 58.2543 32.8858 58.2929 32.519C57.0799 32.2455 55.307 31.8691 54.7826 31.7694Z" fill="#231F20"/>
<path d="M54.8486 33.2947C55.4181 34.6718 56.8467 35.0032 57.5095 34.5238C57.3583 33.9961 57.0816 33.4524 56.57 33.2368C56.0073 33.0525 55.3976 33.073 54.8486 33.2947Z" fill="#231F20"/>
<path d="M56.8077 34.8905C56.628 34.8895 56.4493 34.8636 56.2768 34.8132C55.9227 34.7048 55.5979 34.5172 55.327 34.2647C55.0561 34.0121 54.8462 33.7013 54.7131 33.3557C54.6972 33.3154 54.6972 33.2705 54.7131 33.2302C54.7221 33.2103 54.735 33.1923 54.751 33.1774C54.767 33.1624 54.7859 33.1509 54.8064 33.1434C55.3944 32.9163 56.0434 32.9026 56.6404 33.1047C57.123 33.2881 57.4705 33.7482 57.6764 34.4786C57.6853 34.5103 57.6841 34.544 57.6732 34.5751C57.6623 34.6062 57.6421 34.6331 57.6153 34.6524C57.378 34.8151 57.0953 34.8984 56.8077 34.8905ZM55.0799 33.3782C55.2044 33.6436 55.3834 33.8799 55.6051 34.0717C55.8268 34.2635 56.0864 34.4065 56.3669 34.4915C56.6837 34.5961 57.0283 34.5777 57.3322 34.44C57.1552 33.8802 56.8849 33.5262 56.5246 33.3911C56.0569 33.232 55.5504 33.2275 55.0799 33.3782Z" fill="#231F20"/>
<path d="M28.787 57.8731H28.7452C28.7247 57.8679 28.7054 57.8586 28.6884 57.8459C28.6715 57.8332 28.6573 57.8173 28.6465 57.7991C28.6357 57.7808 28.6287 57.7606 28.6257 57.7397C28.6228 57.7187 28.624 57.6974 28.6293 57.6769C29.9476 51.6442 30.0471 45.4089 28.9221 39.3372C27.693 32.9409 25.8913 30.4087 25.8913 30.383C25.8661 30.3484 25.8557 30.3053 25.8623 30.263C25.8689 30.2208 25.8921 30.1829 25.9266 30.1577C25.9612 30.1326 26.0044 30.1221 26.0466 30.1288C26.0888 30.1354 26.1267 30.1586 26.1519 30.1931C26.2259 30.2961 28.0019 32.7993 29.2278 39.2761C30.3622 45.3935 30.2616 51.6761 28.9318 57.7541C28.9231 57.7866 28.9045 57.8155 28.8785 57.8369C28.8525 57.8582 28.8205 57.8709 28.787 57.8731Z" fill="white"/>
</svg>
