<svg width="74" height="99" viewBox="0 0 74 99" fill="none" xmlns="http://www.w3.org/2000/svg">
<path d="M29.1133 24.2128C29.6673 22.2589 30.9543 20.5944 32.7058 19.5662C34.4565 18.5568 36.4648 18.083 38.482 18.2034C40.2234 18.236 41.9146 18.7921 43.3355 19.7994C44.7147 20.8403 45.6736 22.5085 45.6342 24.2358C45.5843 24.9923 45.3827 25.7311 45.0414 26.408C44.7001 27.085 44.226 27.6864 43.6475 28.1764C42.4856 29.1475 41.116 29.8385 39.6445 30.196C37.905 30.72 36.0631 30.8069 34.282 30.4488C33.3946 30.2676 32.5515 29.9133 31.801 29.4062C31.0505 28.8991 30.4072 28.2491 29.908 27.4934C28.9589 25.9565 28.8177 23.8812 29.7569 22.3411" fill="#231F20"/>
<path d="M36.3163 30.8208C35.6149 30.8235 34.9155 30.7475 34.2311 30.5942C33.3214 30.4085 32.4574 30.0448 31.6887 29.524C30.9201 29.0033 30.2618 28.3359 29.7519 27.56C29.1517 26.5749 28.875 25.4265 28.9605 24.2761C28.9507 24.2452 28.9507 24.2119 28.9605 24.1809C28.9605 24.1514 28.9605 24.1218 28.9835 24.0922C29.0561 23.4392 29.2665 22.8091 29.6009 22.2435C29.6233 22.2085 29.6578 22.1831 29.6979 22.1722C29.7379 22.1612 29.7806 22.1656 29.8176 22.1843C30.5194 21.0538 31.4808 20.107 32.622 19.4226C34.3996 18.3917 36.4425 17.9095 38.4935 18.0369C40.2687 18.0735 41.9914 18.6458 43.4356 19.6788C44.9396 20.815 45.8361 22.5686 45.7836 24.2532C45.7319 25.0296 45.5244 25.7876 45.1735 26.4821C44.8226 27.1766 44.3354 27.7934 43.741 28.2955C42.5633 29.2881 41.1701 29.992 39.6724 30.3512C38.5797 30.6569 37.4509 30.8148 36.3163 30.8208ZM29.2988 24.1514C29.178 25.2809 29.4355 26.4186 30.0311 27.3859C30.5171 28.1252 31.1444 28.761 31.8771 29.257C32.6097 29.7529 33.4331 30.0991 34.3 30.2757C36.0552 30.6281 37.8702 30.5412 39.5837 30.0228C41.032 29.6799 42.381 29.0054 43.5243 28.0525C44.0855 27.5799 44.5458 26.999 44.8775 26.3445C45.2093 25.69 45.4058 24.9754 45.4552 24.2433C45.5077 22.6638 44.6572 21.0153 43.2386 19.9382C41.6788 18.7593 39.7873 18.4375 38.4771 18.3784C36.4903 18.2509 34.5105 18.7173 32.7895 19.7182C31.1078 20.702 29.8607 22.2858 29.2988 24.1514Z" fill="#231F20"/>
<path d="M51.6686 43.7663C52.0955 43.7663 52.5191 43.7663 52.946 43.7663C53.0284 43.7849 53.1143 43.7807 53.1944 43.7541C53.2745 43.7274 53.3458 43.6794 53.4006 43.6151C53.4554 43.5509 53.4916 43.4729 53.5052 43.3895C53.5188 43.3062 53.5094 43.2207 53.478 43.1424C53.4255 41.9536 53.4419 40.0457 52.5914 39.0901C51.7409 38.1345 50.1581 38.2331 49.7443 36.6929C49.4816 35.7078 49.9709 34.7029 50.3256 33.7375C50.6802 32.7721 50.8674 31.5767 50.1515 30.851C49.718 30.4077 49.0252 30.2435 48.6869 29.7214C48.0499 28.7362 49.1072 27.5376 49.1828 26.3719C49.2583 25.2061 48.3717 24.2801 47.4555 23.6036C44.5 21.4133 42.2014 19.3084 38.2148 19.2723C35.5089 19.246 32.4287 20.195 30.4584 22.1193C29.6342 22.9206 29.1055 23.7186 28.1302 24.3852C26.925 25.2061 25.9432 26.1387 25.999 27.7215C26.0253 28.5326 26.3274 29.3634 26.0778 30.1351C25.8282 30.9068 25.0434 31.3994 24.8398 32.1711C24.472 33.5569 25.5163 35.0904 25.1682 36.6437C25.0604 37.1777 24.8556 37.6875 24.564 38.1477C24.2304 38.6049 23.8397 39.0177 23.4015 39.3758C22.4124 40.2048 21.5397 41.1636 20.8073 42.2262C20.5729 42.5952 20.3739 42.9855 20.2129 43.3919C20.297 43.3838 20.3817 43.3838 20.4657 43.3919H35.637C41.0225 43.3919 46.2766 43.7466 51.6621 43.7466L51.6686 43.7663Z" fill="white"/>
<path d="M52.9812 43.9463H52.8926H51.6579C48.9618 43.9463 46.256 43.8577 43.6388 43.769C41.0215 43.6804 38.3222 43.5917 35.6328 43.5917H20.4123C20.3554 43.5885 20.2984 43.5885 20.2415 43.5917C20.2063 43.6032 20.1684 43.6032 20.1331 43.5917C20.1123 43.5837 20.0932 43.5717 20.0771 43.5562C20.0609 43.5408 20.048 43.5223 20.0392 43.5017C20.0303 43.4812 20.0256 43.4592 20.0254 43.4368C20.0252 43.4145 20.0294 43.3923 20.0379 43.3717C20.2038 42.9561 20.4083 42.557 20.6487 42.1796C21.3911 41.1051 22.2747 40.1353 23.2758 39.2964L23.3316 39.2472C23.737 38.9106 24.0998 38.5257 24.412 38.1011C24.6926 37.658 24.8896 37.1672 24.9932 36.653C25.164 35.9075 24.9932 35.1457 24.8224 34.4068C24.6517 33.668 24.4941 32.8996 24.6714 32.1738C24.81 31.756 25.0336 31.3714 25.3282 31.0442C25.5697 30.7725 25.7649 30.463 25.9061 30.128C26.0278 29.6296 26.0278 29.1093 25.9061 28.6109C25.8607 28.3336 25.83 28.0541 25.8142 27.7735C25.7583 26.0758 26.842 25.0972 28.0209 24.2894C28.5896 23.879 29.1048 23.3991 29.5544 22.8609C29.7942 22.5949 30.0404 22.3191 30.3261 22.0432C32.1848 20.2273 35.196 19.1108 38.2073 19.1469C41.7998 19.1797 44.0164 20.8512 46.5778 22.7854L47.5629 23.5144C48.8009 24.4273 49.4216 25.4354 49.3592 26.4304C49.3029 26.9004 49.1779 27.3596 48.9881 27.7932C48.7287 28.4861 48.4824 29.1363 48.8338 29.6748C49.0342 29.9318 49.2916 30.1387 49.5858 30.2791C49.8367 30.4145 50.0695 30.5811 50.2786 30.7749C51.1357 31.6451 50.7778 33.0736 50.4921 33.842C50.4461 33.9668 50.3936 34.0949 50.3443 34.2229C50.0159 35.0373 49.6876 35.8846 49.9141 36.6858C50.144 37.5429 50.7384 37.8286 51.4247 38.157C51.9109 38.3514 52.3522 38.6431 52.7218 39.014C53.5329 39.9204 53.592 41.5886 53.638 42.8069V43.1681C53.6604 43.2941 53.6511 43.4237 53.611 43.5452C53.5709 43.6667 53.5012 43.7764 53.4081 43.8642C53.2782 43.9363 53.1286 43.965 52.9812 43.9463ZM20.4517 43.2403H35.6197C38.3157 43.2403 41.0215 43.329 43.6388 43.4176C46.256 43.5063 48.9553 43.595 51.6447 43.595C52.0585 43.595 52.469 43.595 52.8827 43.595H52.9254C53.0174 43.6079 53.1112 43.593 53.1947 43.5523C53.2866 43.4866 53.2899 43.3093 53.2833 43.1484V42.7839C53.2407 41.6181 53.1815 40.0189 52.4525 39.2045C52.1135 38.8667 51.709 38.6018 51.2638 38.4262C50.5643 38.0979 49.8419 37.7465 49.5693 36.7383C49.3263 35.8287 49.6777 34.929 50.0127 34.062C50.0619 33.9372 50.1112 33.8125 50.1571 33.6877C50.4166 32.9915 50.7449 31.7174 50.0192 30.9785C49.832 30.8036 49.6221 30.6545 49.3953 30.5352C49.0573 30.3689 48.7627 30.126 48.5349 29.8259C48.0883 29.1429 48.3773 28.3777 48.6564 27.6389C48.827 27.2346 48.9376 26.8076 48.9848 26.3713C49.0571 25.268 48.1245 24.3386 47.3429 23.7443C47.0145 23.498 46.6861 23.255 46.3578 23.012C43.8424 21.1139 41.6685 19.4753 38.1876 19.4425H38.0792C35.2026 19.4425 32.3293 20.5097 30.5527 22.2436C30.2769 22.5128 30.0306 22.7821 29.7942 23.0448C29.3327 23.6084 28.802 24.1115 28.2146 24.5422C26.9438 25.4092 26.1064 26.2827 26.1557 27.7308C26.1706 27.9982 26.2002 28.2646 26.2443 28.5288C26.3758 29.0813 26.369 29.6576 26.2246 30.2068C26.074 30.5796 25.8608 30.9239 25.5941 31.2248C25.3279 31.5156 25.1234 31.8575 24.9932 32.2297C24.8192 32.8864 24.9768 33.5695 25.1443 34.3018C25.3117 35.034 25.5055 35.878 25.315 36.6989C25.2024 37.2526 24.9899 37.7812 24.6878 38.2588C24.3603 38.7069 23.9787 39.1128 23.5516 39.4672L23.4958 39.5165C22.5206 40.3377 21.6592 41.2852 20.9344 42.334C20.7496 42.6227 20.5882 42.9258 20.4517 43.2403Z" fill="#231F20"/>
<path d="M51.2387 85.0267H22.9485C19.8782 63.9873 18.5679 50.2609 21.7237 46.9541C22.7844 45.8474 24.5839 45.0363 26.5016 44.4452C29.137 43.6999 31.8396 43.2171 34.57 43.0036C36.3361 42.8499 38.1156 43.0134 39.8241 43.4863C41.0753 43.8771 44.0208 44.1628 46.9927 45.1053C49.9646 46.0477 53.0382 47.6831 54.3682 50.7502C56.3418 55.3147 51.2387 85.0267 51.2387 85.0267Z" fill="#00B87C"/>
<path d="M51.4036 46.954C51.4036 46.954 73.3593 71.1427 65.1957 77.0076C57.0321 82.8725 49.4629 68.2365 49.4629 68.2365L51.4036 46.954Z" fill="#00B87C"/>
<path d="M62.6335 71.8297C62.6028 71.8294 62.5728 71.8207 62.5467 71.8045C62.5206 71.7882 62.4995 71.7652 62.4857 71.7378C59.9473 66.4837 52.7426 57.3481 52.6703 57.2594C52.6568 57.2426 52.6466 57.2233 52.6405 57.2025C52.6344 57.1818 52.6324 57.16 52.6347 57.1385C52.637 57.117 52.6435 57.0962 52.6538 57.0772C52.6642 57.0582 52.6782 57.0415 52.695 57.0279C52.7118 57.0143 52.7311 57.0042 52.7519 56.9981C52.7726 56.9919 52.7943 56.99 52.8158 56.9923C52.8373 56.9945 52.8582 57.001 52.8772 57.0114C52.8961 57.0217 52.9129 57.0357 52.9265 57.0525C52.9987 57.1445 60.2297 66.2998 62.778 71.5933C62.7875 71.6127 62.7931 71.6338 62.7944 71.6553C62.7958 71.6769 62.7929 71.6985 62.7859 71.719C62.7789 71.7394 62.7679 71.7583 62.7536 71.7745C62.7392 71.7906 62.7219 71.8038 62.7024 71.8133C62.6807 71.823 62.6573 71.8285 62.6335 71.8297Z" fill="#231F20"/>
<path d="M56.3093 76.7311C56.2725 76.7296 56.237 76.717 56.2075 76.695C56.1418 76.6425 49.5807 71.3588 47.6925 63.123C47.6872 63.102 47.6861 63.0803 47.6893 63.0589C47.6926 63.0375 47.7001 63.0171 47.7114 62.9987C47.7228 62.9803 47.7377 62.9644 47.7553 62.9519C47.773 62.9394 47.7929 62.9306 47.814 62.9259C47.8562 62.9161 47.9007 62.9233 47.9376 62.9461C47.9745 62.9688 48.0009 63.0053 48.011 63.0474C49.8763 71.1683 56.3487 76.3863 56.4143 76.4389C56.4482 76.466 56.4699 76.5053 56.4748 76.5484C56.4798 76.5915 56.4675 76.6347 56.4406 76.6687C56.4245 76.688 56.4044 76.7036 56.3818 76.7143C56.3591 76.7251 56.3344 76.7308 56.3093 76.7311Z" fill="#231F20"/>
<path d="M42.9404 30.1441C43.479 27.389 48.0993 26.8603 47.7578 30.1244C47.6889 31.2546 47.2238 32.3243 46.4443 33.1455C45.6299 33.9205 44.3459 34.2555 43.3345 33.7596" fill="white"/>
<path d="M44.3669 34.1631C43.9796 34.1657 43.5967 34.0803 43.2471 33.9136C43.2098 33.8918 43.1821 33.8566 43.1696 33.8152C43.1572 33.7737 43.1609 33.7291 43.1801 33.6904C43.1993 33.6516 43.2325 33.6215 43.2729 33.6063C43.3134 33.591 43.3582 33.5917 43.3982 33.6082C44.2914 34.0482 45.49 33.8052 46.3142 33.0236C47.2107 32.1731 47.5062 30.968 47.5949 30.1043C47.7131 28.9813 47.1877 28.2194 46.1927 28.0684C44.9646 27.8877 43.3982 28.7054 43.1092 30.1766C43.1053 30.1983 43.097 30.2191 43.0849 30.2376C43.0728 30.2561 43.0571 30.2719 43.0387 30.2842C43.0203 30.2965 42.9996 30.3049 42.9778 30.309C42.9561 30.3131 42.9338 30.3127 42.9122 30.3079C42.8903 30.304 42.8695 30.2957 42.8508 30.2837C42.8322 30.2716 42.8161 30.2559 42.8036 30.2376C42.7911 30.2193 42.7823 30.1986 42.7779 30.1769C42.7734 30.1551 42.7733 30.1327 42.7775 30.1109C43.1059 28.469 44.8628 27.5265 46.242 27.7334C47.168 27.8746 48.0973 28.5773 47.9331 30.1404C47.8346 31.0599 47.5194 32.3472 46.5474 33.2699C45.9602 33.8335 45.1807 34.1527 44.3669 34.1631Z" fill="#231F20"/>
<path d="M32.6223 29.7473C32.2742 26.9626 27.6965 26.1351 27.8148 29.3926C27.8109 30.5276 28.2074 31.6276 28.9345 32.4991C29.6964 33.3299 30.9508 33.7535 31.9951 33.3299" fill="white"/>
<path d="M31.1304 33.6646C30.696 33.6548 30.2681 33.5566 29.8729 33.3759C29.4777 33.1953 29.1234 32.9359 28.8318 32.6138C27.9287 31.6287 27.7021 30.3152 27.6693 29.399C27.6135 27.826 28.5888 27.189 29.5214 27.1003C30.9104 26.9886 32.6049 28.0362 32.8052 29.7273C32.8147 29.7515 32.8186 29.7775 32.8166 29.8034C32.8146 29.8293 32.8067 29.8544 32.7935 29.8768C32.7803 29.8992 32.7622 29.9183 32.7405 29.9326C32.7188 29.9469 32.6942 29.9561 32.6684 29.9594C32.6426 29.9628 32.6164 29.9602 32.5918 29.9519C32.5672 29.9436 32.5448 29.9298 32.5263 29.9115C32.5078 29.8933 32.4938 29.871 32.4852 29.8465C32.4766 29.822 32.4737 29.7958 32.4768 29.77C32.2929 28.2825 30.7856 27.3564 29.5476 27.4714C28.5428 27.5502 27.9681 28.2759 28.0075 29.4055C28.0371 30.2725 28.2472 31.494 29.0813 32.4037C29.8497 33.241 31.0319 33.5661 31.9514 33.1918C31.9949 33.1748 32.0434 33.1758 32.0862 33.1946C32.129 33.2134 32.1626 33.2484 32.1796 33.2919C32.1966 33.3355 32.1956 33.384 32.1768 33.4268C32.158 33.4696 32.123 33.5032 32.0795 33.5202C31.7757 33.6301 31.4532 33.6792 31.1304 33.6646Z" fill="#231F20"/>
<path d="M46.9859 45.1044C45.4227 44.6321 43.8313 44.2592 42.221 43.9879L42.2407 43.9452L42.1554 42.0045L41.955 37.4892L41.7646 33.2728L33.4795 32.9838L33.0854 36.4154L32.9639 37.5254L32.3072 43.2425C30.342 43.4884 28.3995 43.8903 26.4981 44.4444C26.0772 45.8986 25.9733 47.4262 26.1936 48.924C26.4138 50.4217 26.953 51.8548 27.7747 53.1262C28.5964 54.3977 29.6815 55.478 30.9566 56.294C32.2317 57.1101 33.6671 57.6429 35.1659 57.8565C36.6646 58.0701 38.1918 57.9595 39.6441 57.5322C41.0964 57.1048 42.44 56.3707 43.5842 55.3794C44.7284 54.3881 45.6465 53.1627 46.2764 51.7861C46.9063 50.4095 47.2333 48.9137 47.2354 47.3998C47.2349 46.6279 47.1512 45.8584 46.9859 45.1044Z" fill="white"/>
<path d="M36.6604 58.1428C33.811 58.1402 31.0788 57.0075 29.0633 54.9933C27.0479 52.979 25.9135 50.2476 25.9092 47.3981C25.9082 46.3833 26.0531 45.3736 26.3394 44.4C26.3472 44.3731 26.3614 44.3486 26.3809 44.3286C26.4003 44.3086 26.4244 44.2936 26.451 44.285C28.3196 43.7402 30.2278 43.3416 32.1583 43.093L33.3142 32.9657C33.3198 32.9236 33.3406 32.8851 33.3726 32.8572C33.4047 32.8294 33.4458 32.8143 33.4883 32.8146L41.7733 33.1036C41.8161 33.1044 41.8569 33.1215 41.8874 33.1515C41.9179 33.1814 41.9359 33.2218 41.9375 33.2645L42.4104 43.8516C43.9751 44.1193 45.5215 44.4845 47.0406 44.9451C47.0684 44.9545 47.0932 44.971 47.1128 44.9929C47.1323 45.0147 47.1459 45.0412 47.1522 45.0699C47.499 46.6404 47.489 48.2687 47.1231 49.8349C46.7572 51.4011 46.0447 52.8653 45.038 54.1196C44.0313 55.374 42.756 56.3866 41.3062 57.0828C39.8563 57.7791 38.2688 58.1413 36.6604 58.1428ZM26.6382 44.574C26.2364 46.0052 26.1458 47.5059 26.3724 48.9751C26.5991 50.4443 27.1378 51.8479 27.9524 53.0914C28.7669 54.335 29.8383 55.3896 31.0945 56.1845C32.3507 56.9793 33.7626 57.4959 35.2352 57.6994C36.7077 57.903 38.2068 57.7888 39.6315 57.3645C41.0562 56.9402 42.3736 56.2157 43.4949 55.2397C44.6162 54.2637 45.5154 53.0589 46.1321 51.7063C46.7488 50.3537 47.0687 48.8847 47.0701 47.3981C47.07 46.6721 46.9952 45.948 46.8468 45.2373C45.3191 44.7832 43.7652 44.4224 42.1937 44.157C42.1679 44.1514 42.1437 44.1403 42.1227 44.1244C42.1018 44.1086 42.0845 44.0883 42.0722 44.065C42.06 44.0411 42.0537 44.0147 42.0537 43.9878C42.0537 43.961 42.06 43.9346 42.0722 43.9107L41.6059 33.4353L33.6327 33.1594L32.4801 43.2605C32.4753 43.298 32.4582 43.3329 32.4315 43.3596C32.4047 43.3864 32.3699 43.4035 32.3323 43.4083C30.4071 43.6496 28.5034 44.0393 26.6382 44.574Z" fill="#231F20"/>
<path d="M37.2176 38.3872L37.9565 38.4135C38.7901 38.4425 39.6212 38.3069 40.4025 38.0147C41.1837 37.7224 41.8997 37.2791 42.5095 36.7101C43.1194 36.141 43.6112 35.4575 43.9569 34.6984C44.3026 33.9393 44.4953 33.1195 44.5241 32.2859V31.9575C44.557 30.9724 44.5767 29.9872 44.6161 29.0021C44.6424 28.3453 44.9445 27.5211 44.4519 26.9628C44.1624 26.6836 43.8297 26.453 43.4668 26.2798C41.5441 25.1572 40.0414 23.4366 39.1879 21.3803C37.7398 23.3735 35.6732 24.8317 33.3099 25.5278C32.7188 25.6985 32.0916 25.8299 31.6187 26.2207C30.5613 27.0974 31.1951 28.2895 31.1557 29.4093L31.0736 31.836C31.0196 33.5195 31.6366 35.1555 32.7888 36.3841C33.9411 37.6127 35.5341 38.3332 37.2176 38.3872Z" fill="white"/>
<path d="M38.1647 38.5865H37.9348L37.1959 38.5635C35.468 38.501 33.8353 37.7559 32.6559 36.4915C31.4764 35.2271 30.8465 33.5467 30.9041 31.8185L30.9895 29.3918C30.9903 29.0761 30.9651 28.7609 30.914 28.4493C30.8023 27.6218 30.6874 26.7647 31.5116 26.0817C31.9623 25.7592 32.4759 25.5354 33.0189 25.4249L33.2619 25.356C35.5864 24.6784 37.6204 23.2486 39.0447 21.2906C39.0622 21.2667 39.0857 21.2478 39.1128 21.2357C39.1398 21.2236 39.1696 21.2187 39.1991 21.2216C39.2291 21.2246 39.2578 21.2356 39.282 21.2536C39.3063 21.2715 39.3253 21.2956 39.337 21.3234C40.1735 23.3534 41.6568 25.0503 43.5567 26.1507L43.6913 26.2295C44.0222 26.3962 44.322 26.6183 44.578 26.8862C44.9983 27.3624 44.9063 27.983 44.8374 28.5281C44.8101 28.6978 44.7915 28.8688 44.7816 29.0404C44.7586 29.6052 44.7454 30.1701 44.729 30.7349C44.729 31.1552 44.706 31.5723 44.6896 31.9926V32.321C44.621 34.0056 43.9035 35.5984 42.6874 36.7662C41.4713 37.9339 39.8507 38.5862 38.1647 38.5865ZM37.2189 38.2187L37.9611 38.2417C38.7725 38.2702 39.5816 38.1386 40.3422 37.8543C41.1027 37.57 41.7998 37.1386 42.3935 36.5848C42.9873 36.031 43.4661 35.3656 43.8026 34.6267C44.1391 33.8877 44.3267 33.0897 44.3547 32.2783V31.9499L44.3941 30.6955C44.3941 30.1307 44.4236 29.5625 44.4466 28.9977C44.4567 28.8151 44.4765 28.6332 44.5057 28.4526C44.578 27.9305 44.6436 27.4379 44.3284 27.08C44.093 26.848 43.8212 26.6561 43.5239 26.5119L43.3892 26.4363C41.5128 25.3482 40.0262 23.6973 39.14 21.7175C37.6799 23.612 35.6544 24.9923 33.3571 25.6581L33.1109 25.727C32.614 25.8279 32.1434 26.0303 31.7284 26.3214C31.0453 26.8862 31.1406 27.5791 31.2489 28.3837C31.305 28.7145 31.3314 29.0497 31.3277 29.3852L31.2424 31.812C31.2138 32.6251 31.3458 33.436 31.6308 34.1981C31.9157 34.9602 32.3481 35.6587 32.9031 36.2537C33.4582 36.8487 34.125 37.3285 34.8655 37.6656C35.606 38.0028 36.4057 38.1907 37.2189 38.2187Z" fill="#231F20"/>
<path d="M37.9399 32.8634C37.5006 32.8646 37.0617 32.8361 36.6263 32.778C36.5821 32.7715 36.5422 32.7479 36.5152 32.7123C36.4882 32.6767 36.4762 32.6319 36.4818 32.5875C36.4884 32.5433 36.512 32.5034 36.5476 32.4764C36.5832 32.4494 36.628 32.4374 36.6723 32.4431C37.271 32.5211 37.8757 32.542 38.4784 32.5055C38.4928 32.5056 38.5069 32.5017 38.5191 32.4941C38.5313 32.4866 38.5411 32.4757 38.5474 32.4628C38.8199 32.0227 38.1237 29.9112 37.618 28.6831C37.6096 28.6615 37.6055 28.6385 37.606 28.6154C37.6065 28.5922 37.6115 28.5694 37.6208 28.5482C37.6301 28.527 37.6435 28.5079 37.6602 28.4919C37.6769 28.4758 37.6966 28.4633 37.7182 28.4549C37.7398 28.4464 37.7628 28.4424 37.7859 28.4428C37.809 28.4433 37.8319 28.4484 37.853 28.4577C37.8742 28.467 37.8934 28.4804 37.9094 28.4971C37.9254 28.5138 37.938 28.5335 37.9464 28.555C38.1763 29.1133 39.2961 31.9242 38.8528 32.6434C38.8185 32.701 38.7707 32.7495 38.7135 32.7844C38.6562 32.8193 38.5913 32.8397 38.5244 32.8437C38.3175 32.8568 38.1237 32.8634 37.9399 32.8634Z" fill="#231F20"/>
<path d="M21.7227 46.954C21.7227 46.954 -0.232908 71.1427 7.93068 77.0076C16.0943 82.8725 23.6635 68.2365 23.6635 68.2365L21.7227 46.954Z" fill="#00B87C"/>
<path d="M20.6811 55.5051C21.1321 54.4784 21.6323 53.4735 22.1818 52.4905C22.3031 52.2363 22.4792 52.012 22.6973 51.8338C22.8089 51.7456 22.946 51.6961 23.0881 51.6925C23.2302 51.689 23.3697 51.7316 23.4855 51.8141C23.5828 51.929 23.65 52.0663 23.6809 52.2136C23.7119 52.361 23.7057 52.5137 23.6628 52.658C23.5483 53.3542 23.2777 54.0154 22.8714 54.5922C23.0403 53.8562 23.411 53.1819 23.9419 52.6449C24.0313 52.5334 24.1465 52.4453 24.2775 52.3881C24.4084 52.3309 24.5513 52.3063 24.6939 52.3165C24.8436 52.3544 24.9765 52.4411 25.0715 52.5628C25.6659 53.2655 25.285 54.3295 24.8778 55.157C25.1013 54.4806 25.5699 53.9125 26.1913 53.5644C26.2814 53.4977 26.3889 53.4585 26.5008 53.4515C26.6126 53.4445 26.7241 53.47 26.8218 53.525C26.9991 53.6694 26.9663 53.9453 26.9105 54.1817C26.7565 54.7905 26.5533 55.3857 26.303 55.9615C26.4632 55.5053 26.7645 55.1119 27.1633 54.8385C27.587 54.6119 28.247 54.7925 28.3127 55.2687C28.3153 55.5289 28.2348 55.7831 28.0828 55.9944C27.6692 56.7529 27.3946 57.5792 27.2717 58.4343C27.231 58.6003 27.2484 58.7753 27.321 58.9301C27.4001 59.0318 27.4892 59.1253 27.587 59.2093C27.9449 59.6066 27.7249 60.2437 27.3965 60.664C26.8666 61.3115 26.1426 61.7714 25.3314 61.976C24.5201 62.1806 23.6646 62.119 22.8911 61.8002C20.6942 60.8052 19.7386 57.6527 20.6811 55.5051Z" fill="white"/>
<path d="M24.3672 62.2441C23.8388 62.2423 23.3165 62.1305 22.8337 61.9158C20.6532 60.9602 19.5105 57.742 20.535 55.4236C20.9849 54.3958 21.4906 53.3778 22.0423 52.396C22.175 52.1174 22.3692 51.8726 22.6104 51.6801C22.7531 51.575 22.9257 51.5183 23.103 51.5183C23.2802 51.5183 23.4528 51.575 23.5955 51.6801C23.7007 51.7832 23.7792 51.9102 23.8244 52.0504C23.8696 52.1905 23.8801 52.3395 23.855 52.4846C23.9602 52.3546 24.0968 52.2535 24.2519 52.1909C24.4071 52.1283 24.5756 52.1062 24.7416 52.1267C24.9289 52.1728 25.0954 52.2803 25.2145 52.4321C25.3704 52.6258 25.4809 52.8521 25.5377 53.0942C25.5945 53.3363 25.5963 53.5881 25.5428 53.831C25.7242 53.661 25.9261 53.5143 26.1438 53.3942C26.2617 53.3066 26.4038 53.2574 26.5506 53.2533C26.6975 53.2492 26.8421 53.2904 26.9647 53.3712C27.2537 53.611 27.1454 54.0444 27.1092 54.1889C27.0731 54.3334 27.0074 54.5698 26.9483 54.7603C27.0023 54.7197 27.0594 54.6834 27.1191 54.6519C27.2715 54.5738 27.4404 54.5331 27.6117 54.5331C27.7829 54.5331 27.9518 54.5738 28.1042 54.6519C28.2145 54.7033 28.3103 54.7811 28.3831 54.8785C28.4558 54.976 28.5033 55.0899 28.5213 55.2102C28.5327 55.4955 28.4509 55.7768 28.2881 56.0114V56.041C27.8816 56.781 27.6134 57.5889 27.4967 58.4251C27.465 58.5527 27.4742 58.6871 27.523 58.8093C27.5605 58.8608 27.6047 58.9072 27.6543 58.9472C27.6938 58.9833 27.7364 59.0227 27.7726 59.0621C28.1863 59.5186 27.9794 60.2312 27.5854 60.7336C27.1996 61.214 26.709 61.5998 26.1513 61.8616C25.5935 62.1234 24.9833 62.2543 24.3672 62.2441ZM23.1358 51.864C23.0182 51.8675 22.9041 51.9052 22.8074 51.9723C22.6076 52.1353 22.4481 52.342 22.3411 52.5766C21.796 53.5453 21.2936 54.5469 20.847 55.5714C19.9012 57.7355 20.9553 60.7303 22.9782 61.6202C23.7165 61.9277 24.5344 61.988 25.3098 61.7921C26.0852 61.5962 26.7764 61.1546 27.28 60.5333C27.5755 60.1589 27.7627 59.6105 27.4803 59.2986C27.4521 59.2666 27.4214 59.2369 27.3884 59.2099C27.3122 59.1479 27.2458 59.0748 27.1913 58.9932C27.0997 58.8044 27.0754 58.5901 27.1224 58.3856C27.2466 57.5109 27.5269 56.6656 27.9499 55.8899L27.9696 55.8571C28.0927 55.6843 28.1603 55.4782 28.1633 55.266C28.1515 55.1998 28.1238 55.1375 28.0826 55.0843C28.0414 55.0311 27.988 54.9887 27.9269 54.9606C27.8243 54.9119 27.7121 54.8866 27.5985 54.8866C27.4849 54.8866 27.3727 54.9119 27.2701 54.9606C26.9035 55.2172 26.6285 55.5842 26.4853 56.0082C26.4761 56.0283 26.463 56.0464 26.4468 56.0614C26.4306 56.0764 26.4115 56.0881 26.3908 56.0958C26.37 56.1034 26.3479 56.1068 26.3258 56.1059C26.3037 56.1049 26.282 56.0996 26.262 56.0903C26.2417 56.0817 26.2234 56.0692 26.208 56.0534C26.1927 56.0376 26.1806 56.0189 26.1727 55.9983C26.1647 55.9778 26.161 55.9559 26.1616 55.9339C26.1623 55.9119 26.1674 55.8902 26.1766 55.8702C26.4227 55.3028 26.6226 54.7163 26.7743 54.1167C26.8367 53.8704 26.8268 53.7095 26.7414 53.6405C26.6561 53.5716 26.3737 53.6635 26.3014 53.7029C25.8818 53.9343 25.5324 54.2747 25.29 54.6881C25.2145 54.8752 25.1324 55.0558 25.0503 55.2233C25.0317 55.2615 24.9994 55.2912 24.9597 55.3065C24.9201 55.3217 24.8762 55.3213 24.8368 55.3054C24.7969 55.2892 24.7646 55.2586 24.7464 55.2197C24.7281 55.1807 24.7252 55.1363 24.7383 55.0953C24.8015 54.9024 24.884 54.7165 24.9846 54.5403C25.2407 53.8835 25.3885 53.1644 24.9649 52.6652C24.8922 52.5724 24.7923 52.5047 24.6792 52.4715C24.5117 52.4386 24.3114 52.5372 24.0815 52.767C23.9634 52.8863 23.8537 53.0136 23.7532 53.148C23.6053 53.701 23.3607 54.2235 23.0307 54.6913C23.0087 54.7239 22.9759 54.7477 22.938 54.7585C22.9002 54.7693 22.8598 54.7665 22.8238 54.7505C22.7879 54.7341 22.7585 54.7061 22.7406 54.6709C22.7227 54.6356 22.7173 54.5954 22.7253 54.5567C22.8551 53.9918 23.0999 53.4597 23.4445 52.9936C23.474 52.8754 23.497 52.7539 23.5167 52.6357C23.5726 52.3073 23.5167 52.0643 23.3952 51.9461C23.3226 51.8862 23.2296 51.8568 23.1358 51.864Z" fill="#231F20"/>
<path d="M51.4949 55.4107C51.0439 54.3818 50.5448 53.378 49.9975 52.3994C49.8765 52.144 49.6991 51.9194 49.4786 51.7427C49.3674 51.6553 49.2309 51.6062 49.0895 51.6026C48.9481 51.5991 48.8093 51.6413 48.6938 51.723C48.5954 51.8372 48.5272 51.9744 48.4957 52.1219C48.4641 52.2693 48.4701 52.4224 48.5132 52.5669C48.6289 53.2633 48.9006 53.9245 49.3079 54.5011C49.139 53.7651 48.7682 53.0907 48.2373 52.5538C48.147 52.4433 48.0317 52.356 47.901 52.2989C47.7702 52.2418 47.6277 52.2166 47.4853 52.2254C47.3348 52.2632 47.2016 52.3512 47.1077 52.4749C46.51 53.1744 46.8943 54.2416 47.2982 55.0659C47.0766 54.3893 46.6074 53.8216 45.9846 53.4765C45.895 53.409 45.7877 53.3689 45.6757 53.3614C45.5638 53.3538 45.452 53.379 45.3541 53.4338C45.1768 53.5783 45.2096 53.8574 45.2688 54.0906C45.4198 54.7002 45.623 55.2957 45.8763 55.8704C45.7147 55.4149 45.4136 55.0219 45.0159 54.7474C44.589 54.5208 43.929 54.7014 43.8633 55.1775C43.8634 55.4389 43.9449 55.6937 44.0964 55.9065C44.5114 56.6641 44.7851 57.4909 44.9043 58.3464C44.9439 58.5123 44.9277 58.6866 44.8583 58.8423C44.7771 58.9432 44.687 59.0366 44.589 59.1214C44.2311 59.5155 44.4544 60.1558 44.7828 60.5729C45.3118 61.2205 46.0352 61.6806 46.846 61.8853C47.6568 62.0899 48.5119 62.0281 49.2849 61.7091C51.4818 60.7173 52.4373 57.5649 51.4949 55.4107Z" fill="white"/>
<path d="M47.8088 62.1555C47.2027 62.1601 46.6033 62.0285 46.0548 61.7704C45.5064 61.5124 45.0228 61.1345 44.6399 60.6647C44.2491 60.1623 44.0389 59.4529 44.456 58.9932C44.4921 58.9538 44.5315 58.9177 44.5709 58.8816C44.6224 58.8422 44.6668 58.7945 44.7023 58.7404C44.7529 58.6186 44.7622 58.4836 44.7286 58.3561C44.6113 57.5211 44.3432 56.7144 43.9372 55.9754L43.9207 55.9425C43.758 55.7079 43.6761 55.4266 43.6876 55.1413C43.7056 55.0206 43.7535 54.9063 43.8269 54.8088C43.9003 54.7113 43.9969 54.6337 44.1079 54.583C44.2607 54.506 44.4294 54.4658 44.6005 54.4658C44.7716 54.4658 44.9403 54.506 45.0931 54.583C45.1513 54.6153 45.2072 54.6515 45.2605 54.6914C45.2014 54.5009 45.1489 54.3105 45.1029 54.12C45.0668 53.9788 44.9551 53.5421 45.2441 53.3023C45.3669 53.2219 45.5114 53.181 45.6582 53.1851C45.805 53.1892 45.9469 53.2382 46.0651 53.3253C46.2826 53.4457 46.4844 53.5924 46.666 53.7621C46.6126 53.5192 46.6143 53.2674 46.6712 53.0253C46.728 52.7832 46.8385 52.5569 46.9944 52.3632C47.1138 52.2125 47.2803 52.1061 47.4673 52.0611C47.6309 52.0424 47.7966 52.0652 47.9492 52.1271C48.1018 52.1891 48.2364 52.2883 48.3408 52.4157C48.3162 52.2701 48.327 52.1208 48.3721 51.9802C48.4173 51.8397 48.4955 51.712 48.6002 51.6079C48.7433 51.5038 48.9158 51.4477 49.0928 51.4477C49.2698 51.4477 49.4422 51.5038 49.5853 51.6079C49.8282 51.7987 50.0228 52.0439 50.1534 52.3238C50.7018 53.3089 51.2075 54.3203 51.6574 55.3482C52.6754 57.6665 51.5326 60.8847 49.3587 61.8403C48.8697 62.0523 48.3418 62.1597 47.8088 62.1555ZM44.5972 54.7965C44.483 54.7963 44.3705 54.8233 44.2688 54.8753C44.207 54.9019 44.1528 54.9435 44.1109 54.9962C44.0691 55.0489 44.041 55.1112 44.0291 55.1774C44.0354 55.3905 44.1039 55.5971 44.2261 55.7718L44.2425 55.8013C44.6691 56.5766 44.9496 57.4237 45.0701 58.3003C45.1185 58.5036 45.0941 58.7174 45.0011 58.9045C44.9469 58.9874 44.8804 59.0615 44.8041 59.1246C44.7719 59.1513 44.7412 59.1798 44.7121 59.2099C44.4297 59.5383 44.6202 60.0703 44.9124 60.4447C45.4164 61.0655 46.1075 61.5068 46.8828 61.7027C47.6581 61.8986 48.4759 61.8386 49.2143 61.5316C51.2371 60.6417 52.2945 57.6468 51.3455 55.4861C50.8989 54.4681 50.3964 53.46 49.8546 52.488C49.7455 52.2547 49.5863 52.0484 49.3883 51.8837C49.3059 51.82 49.2059 51.7833 49.1018 51.7786C48.9978 51.7739 48.8949 51.8015 48.8071 51.8575C48.6724 51.9724 48.6297 52.1858 48.6856 52.5438C48.7053 52.6653 48.7315 52.7835 48.7611 52.905C49.1033 53.3708 49.3469 53.9016 49.477 54.4648C49.4852 54.5031 49.4803 54.5431 49.463 54.5782C49.4457 54.6134 49.4171 54.6417 49.3817 54.6586C49.3462 54.6749 49.306 54.6783 49.2682 54.6681C49.2304 54.6579 49.1974 54.6348 49.1749 54.6027C48.8431 54.1343 48.5973 53.6106 48.4491 53.0561C48.3485 52.9227 48.2388 52.7966 48.1207 52.6784C47.8942 52.4453 47.6906 52.35 47.5231 52.3829C47.4111 52.4148 47.3122 52.4815 47.2407 52.5733C46.8171 53.0725 46.9648 53.8081 47.2177 54.4484C47.3194 54.6245 47.403 54.8104 47.4673 55.0034C47.4757 55.0249 47.4798 55.0479 47.4793 55.0711C47.4788 55.0942 47.4738 55.117 47.4645 55.1382C47.4552 55.1594 47.4418 55.1786 47.4251 55.1946C47.4084 55.2106 47.3887 55.2232 47.3671 55.2316C47.3455 55.24 47.3225 55.2441 47.2994 55.2436C47.2763 55.2431 47.2534 55.2381 47.2323 55.2288C47.2111 55.2195 47.1919 55.2061 47.1759 55.1894C47.1599 55.1727 47.1473 55.153 47.1389 55.1314C47.0568 54.9672 46.9747 54.7866 46.8992 54.5962C46.658 54.183 46.3096 53.8426 45.891 53.611C45.8188 53.5716 45.5626 53.4501 45.4477 53.5519C45.3328 53.6537 45.3558 53.7785 45.4182 54.0248C45.5694 54.6246 45.7692 55.211 46.0158 55.7783C46.0341 55.8193 46.0354 55.8658 46.0194 55.9077C46.0034 55.9496 45.9714 55.9834 45.9304 56.0016C45.8895 56.0199 45.843 56.0212 45.8011 56.0052C45.7592 55.9892 45.7254 55.9572 45.7071 55.9163C45.4904 55.4598 45.2835 55.0625 44.919 54.872C44.8195 54.8209 44.709 54.7949 44.5972 54.7965Z" fill="#231F20"/>
<path d="M10.4908 71.8287C10.4669 71.8333 10.4424 71.8333 10.4185 71.8287C10.3991 71.8193 10.3817 71.8061 10.3674 71.7899C10.3531 71.7737 10.3421 71.7549 10.3351 71.7344C10.3281 71.714 10.3251 71.6924 10.3265 71.6708C10.3279 71.6492 10.3335 71.6281 10.343 71.6087C12.8945 66.3152 20.1255 57.1599 20.1945 57.068C20.2219 57.034 20.2617 57.0123 20.3051 57.0077C20.3485 57.0031 20.392 57.0159 20.426 57.0433C20.4599 57.0708 20.4816 57.1106 20.4862 57.154C20.4908 57.1974 20.478 57.2409 20.4506 57.2748C20.3784 57.3635 13.1736 66.4893 10.6352 71.7532C10.6196 71.7771 10.5981 71.7965 10.5728 71.8098C10.5475 71.823 10.5193 71.8295 10.4908 71.8287Z" fill="#231F20"/>
<path d="M16.8122 76.7311C16.7871 76.7308 16.7623 76.7251 16.7396 76.7143C16.717 76.7036 16.6969 76.688 16.6808 76.6687C16.654 76.6347 16.6416 76.5915 16.6466 76.5484C16.6515 76.5053 16.6732 76.466 16.7071 76.4389C16.7727 76.3863 23.2452 71.1848 25.1104 63.0474C25.1205 63.0053 25.1469 62.9688 25.1838 62.9461C25.2207 62.9233 25.2652 62.9161 25.3074 62.9259C25.3285 62.9306 25.3485 62.9394 25.3661 62.9519C25.3837 62.9644 25.3986 62.9803 25.41 62.9987C25.4213 63.0171 25.4288 63.0375 25.4321 63.0589C25.4353 63.0803 25.4343 63.102 25.4289 63.123C23.5407 71.3588 16.9796 76.6425 16.914 76.695C16.8844 76.717 16.8489 76.7296 16.8122 76.7311Z" fill="#231F20"/>
<path d="M33.82 30.5153C32.0171 30.5153 30.5361 29.1525 30.5361 27.4811C30.5361 26.4565 31.1042 25.2349 33.82 25.2349C36.5357 25.2349 37.1038 26.4565 37.1038 27.4811C37.0939 29.1394 35.6261 30.5153 33.82 30.5153ZM33.82 25.5633C31.8497 25.5633 30.8645 26.2201 30.8645 27.4811C30.8645 28.9752 32.178 30.1869 33.82 30.1869C35.4619 30.1869 36.7754 28.9752 36.7754 27.4811C36.7655 26.2069 35.7738 25.5633 33.82 25.5633Z" fill="#231F20"/>
<path d="M41.9166 30.5153C40.1105 30.5153 38.6328 29.1525 38.6328 27.4811C38.6328 26.4565 39.2009 25.2349 41.9166 25.2349C44.6324 25.2349 45.2005 26.4565 45.2005 27.4811C45.1906 29.1394 43.7227 30.5153 41.9166 30.5153ZM41.9166 25.5633C39.9463 25.5633 38.9612 26.2201 38.9612 27.4811C38.9612 28.9752 40.2747 30.1869 41.9166 30.1869C43.5585 30.1869 44.8721 28.9752 44.8721 27.4811C44.8622 26.2069 43.8705 25.5633 41.9166 25.5633Z" fill="#231F20"/>
<path d="M38.8041 27.645C38.7717 27.6444 38.7401 27.6353 38.7122 27.6188C37.6482 26.9062 37.0703 27.5597 37.0539 27.5859C37.0411 27.6052 37.0243 27.6215 37.0048 27.6339C36.9852 27.6462 36.9633 27.6543 36.9404 27.6576C36.9175 27.6609 36.8942 27.6593 36.8719 27.6529C36.8497 27.6465 36.829 27.6356 36.8114 27.6207C36.7937 27.6058 36.7793 27.5873 36.7693 27.5665C36.7592 27.5456 36.7537 27.5229 36.753 27.4998C36.7523 27.4767 36.7566 27.4537 36.7654 27.4323C36.7742 27.4109 36.7875 27.3917 36.8043 27.3758C36.8043 27.3758 37.5924 26.4727 38.8961 27.3462C38.9246 27.3661 38.9461 27.3946 38.9574 27.4274C38.9687 27.4603 38.9693 27.4959 38.9591 27.5292C38.9488 27.5624 38.9283 27.5915 38.9005 27.6123C38.8727 27.6332 38.8389 27.6446 38.8041 27.645Z" fill="#231F20"/>
<path d="M37.6935 35.3779C37.3354 35.3931 36.9801 35.3091 36.6666 35.1353C36.3531 34.9615 36.0937 34.7045 35.917 34.3927C35.8977 34.3522 35.8951 34.3057 35.9099 34.2632C35.9246 34.2208 35.9555 34.1859 35.9958 34.1661C36.0158 34.1561 36.0376 34.1502 36.0599 34.1488C36.0822 34.1474 36.1046 34.1504 36.1257 34.1577C36.1468 34.1651 36.1662 34.1766 36.1828 34.1916C36.1994 34.2065 36.2129 34.2247 36.2224 34.2449C36.5015 34.8163 37.2075 35.0462 37.7789 35.0199C38.2774 34.9873 38.7554 34.809 39.1535 34.5072C39.5516 34.2054 39.8524 33.7933 40.0185 33.3222C40.0324 33.2786 40.063 33.2424 40.1037 33.2215C40.1238 33.2111 40.1458 33.2048 40.1684 33.2029C40.1909 33.201 40.2136 33.2036 40.2352 33.2105C40.2567 33.2174 40.2767 33.2285 40.294 33.2431C40.3113 33.2578 40.3255 33.2757 40.3359 33.2958C40.3463 33.3159 40.3526 33.3379 40.3544 33.3604C40.3563 33.383 40.3537 33.4057 40.3468 33.4273C40.1625 33.9655 39.8219 34.4367 39.3686 34.7806C38.9154 35.1245 38.3699 35.3256 37.8019 35.3582L37.6935 35.3779Z" fill="#231F20"/>
<path d="M43.3326 70.7367C35.5565 70.6316 27.8263 66.4677 27.7508 66.425C27.7125 66.4041 27.684 66.3689 27.6717 66.327C27.6594 66.2851 27.6642 66.2401 27.6851 66.2017C27.706 66.1634 27.7413 66.135 27.7832 66.1227C27.8251 66.1103 27.8701 66.1152 27.9084 66.1361C27.984 66.1788 35.6451 70.3032 43.3424 70.405C43.3859 70.405 43.4277 70.4223 43.4585 70.4531C43.4893 70.4839 43.5066 70.5257 43.5066 70.5692C43.5066 70.6128 43.4893 70.6545 43.4585 70.6853C43.4277 70.7161 43.3859 70.7334 43.3424 70.7334L43.3326 70.7367Z" fill="#231F20"/>
</svg>
