<svg width="61" height="81" viewBox="0 0 61 81" fill="none" xmlns="http://www.w3.org/2000/svg">
<path d="M35.4117 74.7159C44.0657 74.7159 51.0812 74.3084 51.0812 73.8057C51.0812 73.303 44.0657 72.8955 35.4117 72.8955C26.7577 72.8955 19.7422 73.303 19.7422 73.8057C19.7422 74.3084 26.7577 74.7159 35.4117 74.7159Z" fill="#D1D3D4"/>
<path d="M31.7877 67.8369L31.5372 70.6724L27.8885 70.8097L27.875 67.4033L31.7877 67.8369Z" fill="white"/>
<path d="M27.8859 70.951C27.8678 70.9512 27.8499 70.9478 27.8333 70.9409C27.8166 70.9339 27.8015 70.9236 27.789 70.9106C27.7754 70.8978 27.7646 70.8823 27.7572 70.8652C27.7498 70.8481 27.7459 70.8296 27.7459 70.811L27.7324 67.4045C27.7327 67.3846 27.7372 67.365 27.7455 67.3469C27.7539 67.3288 27.7659 67.3127 27.7809 67.2995C27.7953 67.2864 27.8124 67.2764 27.831 67.2704C27.8495 67.2644 27.8692 67.2624 27.8886 67.2645L31.8013 67.6981C31.8373 67.7021 31.8702 67.7203 31.8929 67.7485C31.9156 67.7767 31.9262 67.8128 31.9224 67.8489L31.672 70.6844C31.6694 70.718 31.6545 70.7495 31.6302 70.7728C31.6058 70.7962 31.5738 70.8097 31.5401 70.811L27.8913 70.951H27.8859ZM28.0125 67.558V70.6682L31.3947 70.539L31.6235 67.9593L28.0125 67.558Z" fill="#231F20"/>
<path d="M31.579 70.668C31.579 70.668 31.7245 73.3958 31.4309 73.482C31.1374 73.5681 24.3407 73.9371 23.0617 73.5197C22.1057 73.2073 27.8953 70.8107 27.8953 70.8107L31.579 70.668Z" fill="#231F20"/>
<path d="M25.8709 73.8454C24.5891 73.8454 23.4662 73.7943 23.0112 73.6462C22.8442 73.5923 22.8146 73.4819 22.8146 73.4227C22.7903 72.8383 26.3152 71.3142 27.8367 70.6868H27.8825L31.5797 70.5225C31.6152 70.5217 31.6497 70.5348 31.6758 70.5589C31.7019 70.583 31.7177 70.6163 31.7197 70.6518C31.8678 73.4819 31.5743 73.5708 31.4774 73.6139C31.2781 73.665 28.2891 73.8454 25.8709 73.8454ZM23.0919 73.3903C24.3199 73.7916 30.8526 73.4415 31.3616 73.3553C31.4801 73.1534 31.4935 71.9174 31.4424 70.8052L27.9121 70.9399C25.6555 71.8689 23.2912 73.0268 23.0919 73.3903Z" fill="#231F20"/>
<path d="M38.3613 67.8369L38.6118 70.6724L42.5567 70.8097L42.274 67.4033L38.3613 67.8369Z" fill="white"/>
<path d="M42.5551 70.951L38.6102 70.811C38.5765 70.8098 38.5444 70.7962 38.5201 70.7729C38.4957 70.7495 38.4808 70.718 38.4782 70.6844L38.2251 67.8489C38.2221 67.8126 38.2333 67.7765 38.2564 67.7484C38.2796 67.7202 38.3128 67.7022 38.349 67.6981L42.2616 67.2645C42.2804 67.2624 42.2994 67.2642 42.3175 67.2697C42.3356 67.2753 42.3523 67.2845 42.3667 67.2969C42.3945 67.3207 42.4119 67.3546 42.4151 67.3911L42.6952 70.7921C42.6965 70.8119 42.6935 70.8318 42.6866 70.8503C42.6796 70.8689 42.6688 70.8858 42.6548 70.8999C42.6427 70.9149 42.6276 70.9272 42.6104 70.9361C42.5933 70.9449 42.5744 70.95 42.5551 70.951ZM38.7394 70.539L42.4044 70.6656L42.1351 67.5581L38.4998 67.9593L38.7394 70.539Z" fill="#231F20"/>
<path d="M38.579 70.668C38.579 70.668 38.4336 73.3958 38.7271 73.482C39.0206 73.5681 45.8173 73.9371 47.0964 73.5197C48.0523 73.2073 42.559 70.8107 42.559 70.8107L38.579 70.668Z" fill="#231F20"/>
<path d="M44.274 73.8454C41.8505 73.8454 38.8669 73.665 38.6837 73.6111C38.5868 73.5815 38.2933 73.4926 38.4414 70.649C38.4441 70.6145 38.4598 70.5823 38.4852 70.5588C38.5107 70.5353 38.5441 70.5224 38.5787 70.5225L42.5587 70.6652H42.6072C44.0398 71.2899 47.3654 72.806 47.3358 73.3957C47.332 73.4508 47.3102 73.5031 47.2737 73.5445C47.2372 73.5859 47.188 73.614 47.1338 73.6246C46.6814 73.7942 45.5585 73.8454 44.274 73.8454ZM38.7807 73.358C39.2869 73.4442 45.8251 73.7942 47.053 73.393C46.8995 73.0402 44.6133 71.8662 42.5156 70.9479L38.6918 70.8133C38.6514 71.92 38.6649 73.156 38.7807 73.358Z" fill="#231F20"/>
<path d="M32.429 68.2223L34.6048 47.5172L37.9278 68.2223H42.9552L41.7677 38.5825L26.8926 37.6992L26.941 68.2223H32.429Z" fill="#231F20"/>
<path d="M26.4789 19.7217L19.2109 26.4941L21.8687 32.3295L29.0074 27.9536L26.4789 19.7217Z" fill="#68E1FD"/>
<path d="M41.0736 37.8676L42.8644 31.8007C42.8644 31.8007 42.2181 22.5132 39.6572 19.2172C35.863 17.1733 28.0781 17.6553 26.4812 19.7234C24.8844 21.7915 27.7092 38.013 27.7092 38.013L41.0736 37.8676Z" fill="#00B87C"/>
<path d="M28.5248 10.6983C28.5679 10.7279 28.6109 10.7575 28.6567 10.7845C28.0077 10.3832 28.8856 8.53866 29.1522 8.14551C29.6261 8.73793 30.4151 8.98567 31.1691 9.07184C31.9231 9.15801 32.6932 9.10954 33.4365 9.25495C34.1797 9.40036 34.9364 9.79351 35.2541 10.4829C35.2245 10.4182 35.72 10.4559 35.7658 10.4829C36.0066 10.5988 36.1943 10.8019 36.2909 11.0511C36.4079 11.3604 36.4628 11.6899 36.4524 12.0205C36.4659 13.4283 36.1261 14.8171 35.4642 16.0597C35.2161 16.5696 34.8606 17.0197 34.422 17.3792C33.3691 18.187 32.1035 17.5354 31.0829 16.9591C28.6783 15.6127 28.0751 12.594 27.8516 10.0466C28.0375 10.3004 28.2651 10.5207 28.5248 10.6983Z" fill="white"/>
<path d="M33.3042 17.8914C32.4506 17.8914 31.5996 17.4121 31.0126 17.0836C28.4733 15.6537 27.9185 12.39 27.7193 10.0634C27.7166 10.0332 27.7239 10.003 27.7399 9.97723C27.7559 9.95149 27.7799 9.93165 27.8081 9.92069C27.8366 9.90965 27.868 9.90842 27.8972 9.9172C27.9265 9.92598 27.952 9.94426 27.9697 9.96916C28.0645 10.098 28.1699 10.2187 28.2848 10.33C28.2363 9.55716 28.8556 8.33731 29.0361 8.07072C29.0486 8.05275 29.0651 8.03784 29.0842 8.02711C29.1033 8.01639 29.1246 8.01012 29.1465 8.00879C29.1681 8.00914 29.1894 8.01413 29.2089 8.02342C29.2284 8.03271 29.2457 8.04609 29.2596 8.06265C29.6446 8.54197 30.2936 8.83548 31.1849 8.93512C31.4838 8.97013 31.7962 8.98359 32.0951 8.99436C32.5538 9.0037 33.0111 9.04781 33.4631 9.12631C34.3302 9.29596 34.998 9.72681 35.3238 10.3192C35.4878 10.3078 35.6525 10.3178 35.8139 10.3488C36.0907 10.4771 36.309 10.705 36.4252 10.987C36.5504 11.3132 36.609 11.6611 36.5975 12.0103C36.6127 13.4459 36.2654 14.862 35.5877 16.1276C35.3314 16.6551 34.9639 17.1209 34.5106 17.4929C34.1647 17.7577 33.7397 17.8981 33.3042 17.8914ZM28.037 10.4727C28.2632 12.6943 28.8772 15.5595 31.1499 16.8412C32.2405 17.4579 33.385 17.9965 34.3382 17.2721C34.7641 16.9244 35.1087 16.4879 35.348 15.993C36.0002 14.7688 36.3336 13.4 36.3175 12.013C36.3282 11.7009 36.277 11.3897 36.1667 11.0975C36.0856 10.8842 35.9282 10.7085 35.725 10.6047C35.6009 10.5887 35.4757 10.5833 35.3507 10.5885C35.3401 10.5972 35.3283 10.6045 35.3157 10.6101C35.2993 10.6177 35.2815 10.6221 35.2634 10.6229C35.2453 10.6236 35.2272 10.6208 35.2101 10.6146C35.1931 10.6083 35.1775 10.5987 35.1642 10.5864C35.1509 10.5741 35.1401 10.5592 35.1326 10.5427C34.7637 9.73489 33.8077 9.4656 33.4146 9.3929C32.9769 9.31748 32.5339 9.27696 32.0897 9.27172C31.7854 9.27172 31.4677 9.24479 31.158 9.20979C30.2828 9.11015 29.6177 8.83279 29.1788 8.3804C28.9257 8.83548 28.4679 9.88568 28.5837 10.4269C28.5909 10.4751 28.608 10.5213 28.634 10.5626C28.6599 10.6038 28.6941 10.6392 28.7345 10.6666C28.7633 10.6874 28.7832 10.7183 28.79 10.7532C28.7968 10.7881 28.7902 10.8243 28.7713 10.8544C28.7525 10.8845 28.7229 10.9064 28.6886 10.9155C28.6542 10.9247 28.6177 10.9204 28.5864 10.9036L28.449 10.812C28.3016 10.7118 28.1637 10.5982 28.037 10.4727Z" fill="#231F20"/>
<path d="M30.8622 17.3268L30.8406 19.6561C30.8406 19.6561 31.2473 20.9433 32.7391 20.4882C33.1668 20.3565 33.5498 20.1089 33.8454 19.7728C34.141 19.4368 34.3378 19.0254 34.414 18.5844V14.4078C34.414 14.4078 33.5038 13.573 33.6896 11.1172C32.2415 11.6138 30.7145 11.8402 29.1846 11.785C29.1846 11.785 29.0149 14.8817 29.268 16.0424C29.5212 17.203 30.8622 17.3268 30.8622 17.3268Z" fill="white"/>
<path d="M32.1344 20.7241C31.82 20.7198 31.5146 20.6191 31.2594 20.4356C31.0041 20.2522 30.8114 19.9947 30.7072 19.6981C30.7045 19.6839 30.7045 19.6693 30.7072 19.6551L30.726 17.4443C30.3679 17.3742 29.3635 17.0942 29.14 16.0709C28.8868 14.9049 29.0484 11.9051 29.0538 11.7786C29.0547 11.7599 29.0595 11.7417 29.0678 11.725C29.0762 11.7083 29.0879 11.6935 29.1023 11.6816C29.1161 11.6693 29.1323 11.6599 29.1499 11.6538C29.1675 11.6478 29.1861 11.6454 29.2046 11.6466C31.41 11.7947 33.6289 10.995 33.6504 10.9869C33.6723 10.979 33.6957 10.9767 33.7187 10.98C33.7417 10.9832 33.7636 10.9921 33.7824 11.0057C33.8008 11.0199 33.8156 11.0383 33.8254 11.0594C33.8352 11.0805 33.8399 11.1037 33.8389 11.1269C33.6612 13.4697 34.5094 14.2963 34.5175 14.3044C34.5322 14.3171 34.5439 14.3328 34.5518 14.3505C34.5597 14.3682 34.5636 14.3874 34.5633 14.4068V18.5833C34.4844 19.0537 34.2768 19.4932 33.9636 19.8529C33.6504 20.2127 33.2438 20.4788 32.7887 20.6218C32.577 20.6886 32.3564 20.7231 32.1344 20.7241ZM30.9791 19.647C31.0357 19.8032 31.4396 20.7537 32.6972 20.3687C33.1015 20.2445 33.463 20.0098 33.7409 19.691C34.0188 19.3721 34.202 18.9819 34.2698 18.5645V14.4606C34.084 14.2587 33.4215 13.3835 33.5319 11.3154C32.1689 11.7558 30.7416 11.9643 29.3096 11.9321C29.28 12.546 29.1803 15.0207 29.3958 16.0117C29.622 17.0565 30.8122 17.1831 30.8634 17.1857C30.8981 17.1891 30.9304 17.2053 30.9538 17.2312C30.9772 17.2571 30.9901 17.2909 30.9899 17.3258L30.9791 19.647Z" fill="#231F20"/>
<path d="M33.5293 14.3816C33.5719 14.1747 33.6783 13.9863 33.8336 13.8431C33.9871 13.7154 34.161 13.6144 34.3479 13.5441C34.446 13.4958 34.5536 13.4701 34.663 13.4688C34.7399 13.4766 34.8147 13.4985 34.8838 13.5334C35.0511 13.6048 35.1883 13.7324 35.2716 13.8942C35.3205 14.0322 35.3361 14.1798 35.3173 14.3251C35.3071 14.4845 35.2764 14.642 35.2258 14.7936C35.1167 15.0947 34.8931 15.3405 34.6037 15.4776C34.3114 15.6098 33.9789 15.6224 33.6774 15.5126" fill="white"/>
<path d="M34.0963 15.7189C33.9364 15.7191 33.7777 15.6908 33.6277 15.6354C33.5931 15.6221 33.5652 15.5957 33.5501 15.5619C33.5349 15.5281 33.5338 15.4896 33.5469 15.455C33.5608 15.4215 33.5868 15.3944 33.6198 15.3794C33.6528 15.3644 33.6903 15.3626 33.7247 15.3742C33.8563 15.4238 33.9965 15.4468 34.1371 15.4416C34.2776 15.4364 34.4158 15.4033 34.5434 15.3441C34.671 15.285 34.7855 15.2009 34.8803 15.097C34.9751 14.993 35.0482 14.8712 35.0953 14.7387C35.1409 14.5992 35.1681 14.4544 35.1761 14.3078C35.1943 14.1858 35.1832 14.0612 35.1438 13.9443C35.0732 13.8137 34.9602 13.7111 34.8233 13.6535C34.771 13.6243 34.7133 13.606 34.6537 13.5996C34.5655 13.6039 34.4792 13.6269 34.4006 13.6669C34.2287 13.7298 34.0686 13.8208 33.9266 13.9362C33.7878 14.0597 33.6933 14.2252 33.6573 14.4075C33.6541 14.4254 33.6474 14.4425 33.6375 14.4578C33.6276 14.4731 33.6147 14.4862 33.5997 14.4965C33.5846 14.5068 33.5677 14.514 33.5499 14.5176C33.532 14.5213 33.5136 14.5214 33.4958 14.5179C33.4779 14.5146 33.4608 14.5079 33.4455 14.498C33.4302 14.4881 33.417 14.4752 33.4068 14.4602C33.3965 14.4452 33.3893 14.4282 33.3856 14.4104C33.382 14.3926 33.3819 14.3742 33.3854 14.3563C33.4309 14.1169 33.5528 13.8987 33.7327 13.7343C33.8978 13.5956 34.0854 13.4863 34.2875 13.4111C34.4046 13.3527 34.5336 13.3223 34.6645 13.3223C34.7586 13.3317 34.85 13.3591 34.9337 13.403C35.133 13.4862 35.2949 13.6395 35.3888 13.8339C35.4462 13.9924 35.4656 14.1621 35.4454 14.3294C35.4362 14.5009 35.4035 14.6703 35.3484 14.8329C35.2272 15.1661 34.9795 15.438 34.6591 15.5896C34.4833 15.6737 34.2911 15.7179 34.0963 15.7189Z" fill="#231F20"/>
<path d="M30.8516 18.4434C31.3575 18.3635 31.8271 18.1315 32.198 17.7783C32.3526 17.6495 32.47 17.4818 32.5382 17.2924C32.6064 17.1031 32.6228 16.899 32.5857 16.7012C32.3613 16.9252 32.0903 17.0973 31.7921 17.2053C31.4938 17.3132 31.1755 17.3544 30.8596 17.3259L30.8516 18.4434Z" fill="#231F20"/>
<path d="M30.8518 18.5753C30.8229 18.5761 30.7946 18.5676 30.771 18.5511C30.7575 18.5384 30.7469 18.5229 30.7399 18.5057C30.733 18.4885 30.7298 18.47 30.7306 18.4515V17.3339C30.7316 17.3149 30.7364 17.2963 30.7448 17.2792C30.7531 17.2621 30.7647 17.2468 30.7791 17.2343C30.7932 17.2217 30.8099 17.2123 30.828 17.2067C30.8462 17.2011 30.8653 17.1995 30.8841 17.202C31.1794 17.2277 31.4768 17.189 31.7558 17.0886C32.0347 16.9881 32.2886 16.8284 32.4998 16.6203C32.5168 16.6035 32.5379 16.5912 32.5609 16.5846C32.584 16.578 32.6083 16.5773 32.6317 16.5826C32.6548 16.5891 32.6759 16.6015 32.6929 16.6184C32.7098 16.6354 32.7222 16.6565 32.7287 16.6796C32.7711 16.9016 32.7535 17.131 32.6778 17.344C32.6021 17.557 32.4709 17.7459 32.2978 17.8914C31.9043 18.2633 31.4062 18.5058 30.8706 18.5861L30.8518 18.5753ZM30.9945 17.474V18.2818C31.4132 18.1775 31.7992 17.9702 32.1174 17.6786C32.3238 17.5031 32.4534 17.2537 32.4782 16.9839C32.0568 17.3168 31.5313 17.4904 30.9945 17.474Z" fill="#231F20"/>
<path d="M30.7144 15.2039C30.5529 15.2159 30.3932 15.1637 30.2701 15.0585C30.0492 14.8269 30.4505 14.0756 30.8275 13.4859C30.8365 13.47 30.8487 13.4561 30.8633 13.4451C30.8779 13.4341 30.8946 13.4262 30.9123 13.4218C30.9301 13.4175 30.9486 13.4168 30.9666 13.4198C30.9846 13.4228 31.0018 13.4295 31.0172 13.4394C31.0326 13.4492 31.0458 13.4622 31.056 13.4773C31.0663 13.4925 31.0733 13.5095 31.0767 13.5275C31.0801 13.5455 31.0798 13.5639 31.0759 13.5818C31.0719 13.5996 31.0643 13.6165 31.0537 13.6313C30.7063 14.1699 30.4343 14.765 30.472 14.8835C30.5582 14.9669 30.8679 14.9373 31.0483 14.8835C31.0652 14.8781 31.0831 14.8763 31.1008 14.878C31.1185 14.8798 31.1357 14.8851 31.1513 14.8937C31.1669 14.9022 31.1806 14.9138 31.1916 14.9278C31.2026 14.9418 31.2106 14.9579 31.2152 14.975C31.2252 15.0093 31.2212 15.0462 31.204 15.0775C31.1869 15.1088 31.158 15.132 31.1237 15.142C30.9901 15.1786 30.8528 15.1994 30.7144 15.2039Z" fill="#231F20"/>
<path d="M31.239 16.0448C31.1245 16.0451 31.0104 16.0306 30.8997 16.0017C30.8827 15.9967 30.8669 15.9885 30.8531 15.9774C30.8393 15.9663 30.8278 15.9527 30.8193 15.9372C30.8108 15.9217 30.8055 15.9046 30.8035 15.8871C30.8016 15.8695 30.8032 15.8517 30.8081 15.8347C30.8187 15.8008 30.842 15.7724 30.8732 15.7553C30.9043 15.7382 30.9408 15.7339 30.9751 15.7432C31.1867 15.7998 31.4115 15.7808 31.6106 15.6893C31.6896 15.6398 31.7577 15.5746 31.8105 15.4977C31.8633 15.4208 31.8997 15.3339 31.9176 15.2423C31.9271 15.208 31.9495 15.1787 31.9801 15.1607C32.0108 15.1426 32.0472 15.1371 32.0818 15.1454C32.1157 15.1554 32.1446 15.178 32.1626 15.2084C32.1806 15.2389 32.1864 15.2751 32.1788 15.3096C32.1528 15.4367 32.1006 15.5569 32.0254 15.6626C31.9503 15.7684 31.854 15.8572 31.7425 15.9236C31.5876 16.0058 31.4144 16.0475 31.239 16.0448Z" fill="#231F20"/>
<path d="M32.6224 13.2457C32.6037 13.2458 32.5852 13.2421 32.5681 13.2347C32.5509 13.2272 32.5355 13.2163 32.5228 13.2026C32.4136 13.0827 32.266 13.0046 32.1054 12.9818C32.0465 12.9794 31.9878 12.9895 31.9331 13.0113C31.8783 13.0331 31.8288 13.0662 31.7877 13.1084C31.762 13.1332 31.7277 13.1471 31.6921 13.1471C31.6564 13.1471 31.6221 13.1332 31.5965 13.1084C31.5838 13.0959 31.5738 13.081 31.567 13.0646C31.5602 13.0482 31.5566 13.0306 31.5566 13.0128C31.5566 12.995 31.5602 12.9774 31.567 12.961C31.5738 12.9446 31.5838 12.9297 31.5965 12.9172C31.6638 12.8504 31.7443 12.7985 31.8329 12.7646C31.9215 12.7308 32.0161 12.7158 32.1108 12.7206C32.3423 12.7488 32.5562 12.8586 32.714 13.0303C32.7388 13.0559 32.7527 13.0902 32.7527 13.1259C32.7527 13.1616 32.7388 13.1959 32.714 13.2215C32.687 13.2395 32.6548 13.2481 32.6224 13.2457Z" fill="#231F20"/>
<path d="M30.2471 13.2596C30.2195 13.2592 30.1927 13.2506 30.1701 13.2347C30.1475 13.2189 30.1303 13.1966 30.1205 13.1708C30.1205 13.1708 30.064 13.0254 29.9563 12.9984C29.8485 12.9715 29.7112 13.0631 29.617 13.1465C29.6035 13.1582 29.5879 13.1671 29.571 13.1728C29.5542 13.1784 29.5363 13.1807 29.5186 13.1794C29.5008 13.1782 29.4835 13.1734 29.4676 13.1655C29.4516 13.1575 29.4374 13.1465 29.4258 13.1331C29.4141 13.1196 29.4052 13.104 29.3996 13.0871C29.3939 13.0703 29.3917 13.0524 29.3929 13.0347C29.3942 13.0169 29.3989 12.9996 29.4068 12.9837C29.4148 12.9678 29.4258 12.9536 29.4392 12.9419C29.5121 12.8614 29.6041 12.8004 29.7067 12.7647C29.8092 12.7289 29.9191 12.7195 30.0263 12.7372C30.107 12.7629 30.1805 12.8072 30.2409 12.8667C30.3012 12.9261 30.3467 12.9989 30.3736 13.0792C30.3858 13.1128 30.3841 13.1498 30.3689 13.1821C30.3538 13.2144 30.3264 13.2394 30.2929 13.2516C30.2782 13.2568 30.2627 13.2596 30.2471 13.2596Z" fill="#231F20"/>
<path d="M32.2945 20.7617L33.1481 21.3461L32.6069 22.2589L33.7944 28.5009L32.2783 30.0896L31.1016 27.8007L31.9498 22.1135L31.527 21.2491L32.2945 20.7617Z" fill="white"/>
<path d="M28.1554 18.659C28.0961 18.6805 28.4247 22.9298 32.4477 27.7607C32.4477 27.7607 33.1075 27.6745 34.9682 23.6407C36.829 19.6068 36.5651 18.2012 36.5651 18.2012C37.1589 18.1998 37.7494 18.2906 38.3154 18.4705C38.951 18.6589 39.5554 18.9402 40.1088 19.3052C40.1088 19.3052 38.5793 25.9107 42.5512 29.3225L41.7649 38.5912L26.8925 37.708L26.3027 29.3818C26.3027 29.3818 26.9382 28.6816 27.2479 25.1487C27.4413 23.1207 27.4052 21.0774 27.1402 19.0575L28.1554 18.659Z" fill="#231F20"/>
<path d="M25.9394 17.5068L13.0488 16.9912L12.4271 32.5342L25.3176 33.0498L25.9394 17.5068Z" fill="#231F20"/>
<path d="M24.8438 18.1846L13.9609 17.7285L13.364 31.9718L24.2469 32.4279L24.8438 18.1846Z" fill="white"/>
<path d="M24.2488 32.5537L13.3671 32.0986C13.3488 32.0987 13.3308 32.0949 13.314 32.0874C13.2973 32.08 13.2824 32.0691 13.2702 32.0555C13.2448 32.0276 13.2313 31.9909 13.2325 31.9532L13.8303 17.7108C13.8317 17.6742 13.8474 17.6395 13.8741 17.6143C13.9008 17.5892 13.9363 17.5755 13.973 17.5762L24.8466 18.0421C24.8835 18.0441 24.9182 18.0605 24.9433 18.0876C24.9684 18.1147 24.982 18.1505 24.9813 18.1875L24.3835 32.4325C24.3832 32.4507 24.3793 32.4687 24.3719 32.4854C24.3645 32.502 24.3537 32.517 24.3404 32.5294C24.3132 32.5471 24.2811 32.5556 24.2488 32.5537ZM13.5099 31.8266L24.1142 32.2844L24.6985 18.3167L14.0969 17.8751L13.5099 31.8266Z" fill="#231F20"/>
<path d="M21.5746 17.6392L17.9076 17.4855C17.6609 17.4752 17.4526 17.6668 17.4422 17.9134L17.4201 18.4407C17.4098 18.6874 17.6014 18.8957 17.848 18.9061L21.5151 19.0598C21.7618 19.0701 21.9701 18.8785 21.9804 18.6319L22.0025 18.1045C22.0129 17.8579 21.8213 17.6496 21.5746 17.6392Z" fill="white"/>
<path d="M21.5357 19.1982H21.5115L17.8438 19.0447C17.7671 19.0415 17.6917 19.0233 17.622 18.991C17.5523 18.9588 17.4896 18.913 17.4376 18.8565C17.3856 18.8 17.3452 18.7338 17.3188 18.6616C17.2924 18.5895 17.2805 18.5128 17.2837 18.4361L17.3053 17.8975C17.3128 17.7434 17.3805 17.5984 17.4938 17.4936C17.5499 17.441 17.616 17.4 17.6881 17.3732C17.7602 17.3464 17.837 17.3342 17.9138 17.3374L21.5842 17.4909C21.7389 17.4989 21.8846 17.5664 21.9908 17.6794C22.0951 17.7938 22.1502 17.9447 22.1443 18.0995L22.1227 18.638C22.1158 18.789 22.0509 18.9315 21.9415 19.0358C21.8322 19.1402 21.6868 19.1983 21.5357 19.1982ZM21.5222 18.9289C21.5624 18.9307 21.6026 18.9245 21.6403 18.9107C21.6781 18.8969 21.7128 18.8757 21.7423 18.8484C21.7719 18.8211 21.7957 18.7882 21.8125 18.7517C21.8292 18.7151 21.8386 18.6756 21.84 18.6353L21.8642 18.0968C21.8662 18.0156 21.8374 17.9367 21.7834 17.876C21.7281 17.8169 21.6516 17.782 21.5707 17.779L17.9004 17.6255C17.8194 17.6214 17.74 17.6494 17.6796 17.7036C17.6202 17.7602 17.5846 17.8372 17.5799 17.9191L17.5584 18.4576C17.5582 18.5357 17.5874 18.611 17.6404 18.6685C17.6933 18.7259 17.766 18.7612 17.8438 18.7673L21.5222 18.9289Z" fill="#231F20"/>
<path d="M19.5055 21.4238L15.1001 21.2434C15.0824 21.2427 15.065 21.2385 15.0489 21.2311C15.0329 21.2237 15.0184 21.2132 15.0064 21.2002C14.9944 21.1871 14.9851 21.1719 14.979 21.1553C14.9729 21.1387 14.9701 21.121 14.9708 21.1033C14.9708 21.0854 14.9744 21.0677 14.9816 21.0513C14.9887 21.0348 14.9992 21.0201 15.0124 21.0079C15.0256 20.9958 15.0411 20.9865 15.0581 20.9806C15.075 20.9748 15.093 20.9726 15.1108 20.9741L19.5109 21.1572C19.5466 21.1572 19.5809 21.1714 19.6061 21.1966C19.6314 21.2219 19.6455 21.2561 19.6455 21.2918C19.6455 21.3275 19.6314 21.3618 19.6061 21.387C19.5809 21.4123 19.5466 21.4265 19.5109 21.4265L19.5055 21.4238Z" fill="#D1D3D4"/>
<path d="M23.5853 21.597L22.5512 21.5539C22.5336 21.5532 22.5162 21.549 22.5001 21.5416C22.484 21.5342 22.4696 21.5237 22.4576 21.5107C22.4456 21.4977 22.4363 21.4824 22.4301 21.4658C22.424 21.4492 22.4213 21.4316 22.422 21.4139C22.4219 21.396 22.4256 21.3782 22.4327 21.3618C22.4399 21.3454 22.4504 21.3306 22.4636 21.3185C22.4767 21.3063 22.4923 21.297 22.5092 21.2912C22.5262 21.2854 22.5442 21.2831 22.562 21.2846L23.5961 21.3277C23.6137 21.3284 23.6311 21.3326 23.6472 21.34C23.6633 21.3474 23.6777 21.3579 23.6897 21.3709C23.7017 21.3839 23.711 21.3992 23.7172 21.4158C23.7233 21.4324 23.726 21.4501 23.7253 21.4677C23.7232 21.5032 23.7075 21.5365 23.6814 21.5606C23.6552 21.5847 23.6208 21.5978 23.5853 21.597Z" fill="#D1D3D4"/>
<path d="M18.4518 22.8864L15.0454 22.7436C15.0277 22.7429 15.0103 22.7388 14.9943 22.7314C14.9782 22.7239 14.9637 22.7134 14.9517 22.7004C14.9397 22.6874 14.9304 22.6722 14.9243 22.6556C14.9182 22.6389 14.9154 22.6213 14.9161 22.6036C14.9156 22.5856 14.919 22.5676 14.926 22.551C14.933 22.5344 14.9435 22.5194 14.9568 22.5072C14.9701 22.495 14.9858 22.4857 15.0029 22.48C15.0201 22.4744 15.0382 22.4724 15.0562 22.4744L18.4626 22.6171C18.4983 22.6171 18.5325 22.6313 18.5578 22.6565C18.583 22.6818 18.5972 22.716 18.5972 22.7517C18.5972 22.7874 18.583 22.8217 18.5578 22.8469C18.5325 22.8722 18.4983 22.8864 18.4626 22.8864H18.4518Z" fill="#D1D3D4"/>
<path d="M23.519 23.1L22.0433 23.0381C22.0081 23.0354 21.9752 23.0194 21.9512 22.9934C21.9272 22.9675 21.914 22.9334 21.9141 22.8981C21.9147 22.8801 21.919 22.8625 21.9266 22.8463C21.9342 22.83 21.9449 22.8154 21.9582 22.8034C21.9715 22.7914 21.9871 22.7821 22.004 22.7762C22.0209 22.7702 22.0389 22.7677 22.0568 22.7688L23.5298 22.8307C23.5655 22.8307 23.5997 22.8449 23.625 22.8702C23.6502 22.8954 23.6644 22.9297 23.6644 22.9654C23.6644 23.0011 23.6502 23.0353 23.625 23.0606C23.5997 23.0858 23.5655 23.1 23.5298 23.1H23.519Z" fill="#D1D3D4"/>
<path d="M20.186 24.4752L14.9808 24.257C14.9456 24.2543 14.9127 24.2384 14.8887 24.2124C14.8647 24.1864 14.8515 24.1524 14.8516 24.117C14.8515 24.0991 14.8552 24.0814 14.8623 24.0649C14.8695 24.0485 14.88 24.0337 14.8931 24.0216C14.9063 24.0094 14.9219 24.0001 14.9388 23.9943C14.9558 23.9885 14.9737 23.9863 14.9916 23.9878L20.1968 24.2059C20.2325 24.2059 20.2668 24.2201 20.292 24.2453C20.3173 24.2706 20.3314 24.3048 20.3314 24.3405C20.3314 24.3762 20.3173 24.4105 20.292 24.4357C20.2668 24.461 20.2325 24.4752 20.1968 24.4752H20.186Z" fill="#D1D3D4"/>
<path d="M23.457 24.5996L22.423 24.5566C22.4053 24.5557 22.388 24.5513 22.372 24.5437C22.356 24.5362 22.3416 24.5255 22.3298 24.5124C22.3058 24.4859 22.2933 24.4509 22.2951 24.4152C22.296 24.3975 22.3003 24.3802 22.3079 24.3642C22.3155 24.3482 22.3262 24.3338 22.3393 24.322C22.3524 24.3101 22.3678 24.3009 22.3844 24.2949C22.4011 24.289 22.4188 24.2864 22.4365 24.2873L23.4678 24.3304C23.5033 24.3324 23.5366 24.3482 23.5607 24.3743C23.5848 24.4004 23.5978 24.4349 23.5971 24.4704C23.5964 24.4881 23.5922 24.5054 23.5848 24.5215C23.5774 24.5376 23.5669 24.552 23.5539 24.5641C23.5409 24.5761 23.5256 24.5854 23.509 24.5915C23.4924 24.5976 23.4747 24.6004 23.457 24.5996Z" fill="#D1D3D4"/>
<path d="M17.4382 25.8542L14.9204 25.7465C14.9027 25.7458 14.8853 25.7417 14.8693 25.7343C14.8532 25.7268 14.8387 25.7163 14.8267 25.7033C14.8147 25.6903 14.8054 25.6751 14.7993 25.6585C14.7932 25.6418 14.7904 25.6242 14.7911 25.6065C14.7914 25.5888 14.7954 25.5714 14.8027 25.5553C14.81 25.5392 14.8206 25.5247 14.8337 25.5129C14.8468 25.501 14.8622 25.4919 14.879 25.4863C14.8958 25.4806 14.9135 25.4785 14.9312 25.4799L17.4516 25.585C17.4693 25.5857 17.4867 25.5898 17.5028 25.5972C17.5188 25.6047 17.5333 25.6152 17.5453 25.6282C17.5573 25.6412 17.5666 25.6564 17.5727 25.673C17.5788 25.6897 17.5816 25.7073 17.5809 25.725C17.5788 25.7609 17.5627 25.7946 17.536 25.8188C17.5093 25.843 17.4742 25.8557 17.4382 25.8542Z" fill="#D1D3D4"/>
<path d="M23.3962 26.0917L21.6782 26.019C21.6605 26.0183 21.6431 26.0141 21.6271 26.0067C21.611 25.9993 21.5965 25.9888 21.5845 25.9758C21.5725 25.9628 21.5632 25.9475 21.5571 25.9309C21.551 25.9143 21.5482 25.8967 21.5489 25.879C21.5492 25.8613 21.5532 25.8438 21.5605 25.8277C21.5678 25.8116 21.5784 25.7972 21.5915 25.7853C21.6046 25.7735 21.6201 25.7644 21.6368 25.7587C21.6536 25.7531 21.6713 25.7509 21.689 25.7524L23.407 25.8224C23.4427 25.8224 23.4769 25.8366 23.5022 25.8619C23.5274 25.8871 23.5416 25.9214 23.5416 25.9571C23.5416 25.9928 23.5274 26.027 23.5022 26.0523C23.4769 26.0775 23.4427 26.0917 23.407 26.0917H23.3962Z" fill="#D1D3D4"/>
<path d="M19.0138 27.437L14.8561 27.2619C14.8383 27.2616 14.8207 27.2577 14.8045 27.2504C14.7882 27.2431 14.7736 27.2326 14.7616 27.2195C14.7495 27.2064 14.7402 27.191 14.7342 27.1742C14.7282 27.1575 14.7257 27.1397 14.7268 27.1219C14.7267 27.104 14.7304 27.0862 14.7376 27.0698C14.7447 27.0534 14.7552 27.0386 14.7684 27.0265C14.7816 27.0143 14.7971 27.005 14.8141 26.9992C14.831 26.9934 14.849 26.9911 14.8668 26.9926L19.0246 27.1677C19.0422 27.1684 19.0596 27.1725 19.0757 27.18C19.0918 27.1874 19.1062 27.1979 19.1182 27.2109C19.1302 27.2239 19.1395 27.2391 19.1456 27.2557C19.1518 27.2724 19.1545 27.29 19.1538 27.3077C19.1517 27.3432 19.136 27.3765 19.1099 27.4006C19.0837 27.4247 19.0493 27.4377 19.0138 27.437Z" fill="#D1D3D4"/>
<path d="M23.3306 27.6048L22.2993 27.5617C22.2816 27.561 22.2642 27.5569 22.2482 27.5494C22.2321 27.542 22.2176 27.5315 22.2056 27.5185C22.1936 27.5055 22.1843 27.4903 22.1782 27.4736C22.1721 27.457 22.1693 27.4394 22.17 27.4217C22.17 27.4038 22.1736 27.386 22.1808 27.3696C22.188 27.3532 22.1984 27.3384 22.2116 27.3263C22.2248 27.3141 22.2403 27.3048 22.2573 27.299C22.2742 27.2932 22.2922 27.2909 22.3101 27.2924L23.3414 27.3355C23.3771 27.3355 23.4114 27.3497 23.4366 27.375C23.4619 27.4002 23.4761 27.4345 23.4761 27.4702C23.4761 27.5059 23.4619 27.5401 23.4366 27.5654C23.4114 27.5906 23.3771 27.6048 23.3414 27.6048H23.3306Z" fill="#D1D3D4"/>
<path d="M18.0131 28.8858L14.7817 28.7512C14.764 28.7505 14.7466 28.7463 14.7306 28.7389C14.7145 28.7315 14.7001 28.721 14.6881 28.708C14.676 28.695 14.6667 28.6797 14.6606 28.6631C14.6545 28.6465 14.6517 28.6288 14.6525 28.6112C14.6524 28.5932 14.6561 28.5755 14.6632 28.5591C14.6704 28.5426 14.6809 28.5279 14.694 28.5157C14.7072 28.5036 14.7228 28.4943 14.7397 28.4885C14.7567 28.4826 14.7746 28.4804 14.7925 28.4819L18.0239 28.6165C18.0596 28.6165 18.0938 28.6307 18.1191 28.656C18.1443 28.6812 18.1585 28.7155 18.1585 28.7512C18.1585 28.7869 18.1443 28.8211 18.1191 28.8464C18.0938 28.8716 18.0596 28.8858 18.0239 28.8858H18.0131Z" fill="#D1D3D4"/>
<path d="M23.2687 29.1066L21.5507 29.0339C21.5149 29.0339 21.4807 29.0197 21.4555 28.9945C21.4302 28.9692 21.416 28.935 21.416 28.8993C21.416 28.8636 21.4302 28.8293 21.4555 28.8041C21.4807 28.7788 21.5149 28.7646 21.5507 28.7646L23.266 28.8374C23.3017 28.8374 23.3359 28.8515 23.3612 28.8768C23.3864 28.902 23.4006 28.9363 23.4006 28.972C23.4006 29.0077 23.3864 29.042 23.3612 29.0672C23.3359 29.0925 23.3017 29.1066 23.266 29.1066H23.2687Z" fill="#D1D3D4"/>
<path d="M22.1605 31.3953C22.5383 31.3953 22.8445 31.0891 22.8445 30.7113C22.8445 30.3336 22.5383 30.0273 22.1605 30.0273C21.7828 30.0273 21.4766 30.3336 21.4766 30.7113C21.4766 31.0891 21.7828 31.3953 22.1605 31.3953Z" fill="#D1D3D4"/>
<path d="M20.5372 30.6692L19.7563 30.6369C19.7386 30.6362 19.7213 30.6321 19.7052 30.6246C19.6891 30.6172 19.6747 30.6067 19.6627 30.5937C19.6507 30.5807 19.6413 30.5655 19.6352 30.5488C19.6291 30.5322 19.6263 30.5146 19.6271 30.4969C19.627 30.479 19.6307 30.4612 19.6378 30.4448C19.645 30.4284 19.6555 30.4136 19.6687 30.4015C19.6818 30.3893 19.6974 30.38 19.7143 30.3742C19.7313 30.3684 19.7492 30.3661 19.7671 30.3676L20.548 30.4C20.5837 30.4 20.618 30.4141 20.6432 30.4394C20.6685 30.4646 20.6826 30.4989 20.6826 30.5346C20.6826 30.5703 20.6685 30.6045 20.6432 30.6298C20.618 30.655 20.5837 30.6692 20.548 30.6692H20.5372Z" fill="#D1D3D4"/>
<path d="M42.5505 29.3232C42.5505 29.3232 43.2587 35.6971 42.2462 36.5615C41.2337 37.4259 27.8423 35.7348 27.8423 35.7348C27.8423 35.7348 24.3901 36.0984 23.4449 35.549C22.4998 34.9997 17.9893 33.9657 18.851 33.6398C19.7127 33.314 22.6856 33.5187 23.488 33.551C23.488 33.551 21.4738 32.6058 22.2413 32.525C23.0087 32.4442 25.6719 33.4406 26.434 33.4729C27.196 33.5052 37.3587 33.3113 37.3587 33.3113L37.7384 30.7316" fill="white"/>
<path d="M40.2308 36.9363C36.4608 36.9363 28.9667 36.0073 27.8438 35.8592C27.5557 35.8888 24.3297 36.2038 23.3791 35.6545C22.6682 35.3373 21.9346 35.0736 21.1844 34.8655C19.1945 34.2408 18.6155 34.0146 18.6074 33.7291C18.6074 33.6564 18.637 33.5568 18.804 33.4949C19.5284 33.2256 21.6261 33.3037 22.8432 33.3629C21.8927 32.854 21.9277 32.6493 21.9411 32.5739C21.9546 32.4985 22.0596 32.3908 22.2373 32.3719C22.6951 32.3235 23.7103 32.6143 24.6959 32.8944C25.2685 33.0834 25.8557 33.2248 26.4516 33.3171C27.1571 33.3467 36.1107 33.1798 37.2471 33.1583L37.6106 30.697C37.6088 30.6759 37.6118 30.6547 37.6193 30.6349C37.6269 30.6151 37.6388 30.5973 37.6542 30.5828C37.6697 30.5683 37.6882 30.5575 37.7084 30.5512C37.7286 30.5449 37.75 30.5432 37.7709 30.5464C37.7918 30.5495 37.8118 30.5574 37.8293 30.5693C37.8467 30.5813 37.8613 30.5971 37.8718 30.6154C37.8823 30.6338 37.8884 30.6544 37.8899 30.6755C37.8913 30.6966 37.8879 30.7178 37.8799 30.7374L37.5029 33.3225C37.4984 33.3551 37.4823 33.385 37.4576 33.4068C37.4329 33.4285 37.4012 33.4407 37.3683 33.441C36.9536 33.441 27.1948 33.6376 26.4354 33.6053C25.8177 33.5104 25.2088 33.3645 24.6151 33.169C23.7022 32.8997 22.6628 32.6116 22.2643 32.6547C22.666 32.9588 23.1026 33.2137 23.5649 33.4141C23.5939 33.4279 23.6174 33.4511 23.6316 33.4799C23.6457 33.5088 23.6498 33.5415 23.643 33.5729C23.6355 33.6047 23.6171 33.6329 23.5911 33.6525C23.565 33.6722 23.5329 33.6822 23.5003 33.6807L23.1071 33.6618C22.0812 33.608 19.6953 33.4868 18.9413 33.7507C19.2106 33.958 20.4466 34.3431 21.2814 34.607C22.0519 34.8165 22.8047 35.0866 23.5326 35.4148C24.4266 35.9345 27.8115 35.5845 27.8411 35.5791H27.8734C33.2321 36.2577 41.4614 37.0467 42.1723 36.4408C42.9559 35.7703 42.622 31.0767 42.4254 29.3237C42.4295 29.2929 42.4437 29.2643 42.4658 29.2425C42.4879 29.2207 42.5167 29.2068 42.5475 29.2031C42.5784 29.1994 42.6096 29.2061 42.6362 29.2221C42.6628 29.238 42.6834 29.2624 42.6947 29.2914C42.7674 29.9511 43.3814 35.7541 42.3446 36.6535C42.1077 36.8636 41.324 36.9363 40.2308 36.9363Z" fill="#231F20"/>
<path d="M40.1103 19.3164C40.1103 19.3164 43.883 25.1194 43.6971 29.8615L37.6033 31.5391L36.4265 28.6578C36.4265 28.6578 35.7506 22.2408 40.1103 19.3164Z" fill="#00B87C"/>
<path d="M11.0241 26.2949C11.1965 25.0293 11.3769 23.6667 12.2009 22.6354C12.4002 22.3876 13.0868 21.6229 13.4396 21.9218C13.7924 22.2207 13.3238 22.5734 13.1192 22.7296C12.7276 23.0434 12.4065 23.4361 12.1767 23.8821C12.508 23.561 12.8737 23.2774 13.2673 23.0366C13.3638 22.9647 13.4736 22.9125 13.5904 22.8831C13.6492 22.8695 13.7106 22.8726 13.7677 22.8921C13.8249 22.9117 13.8754 22.9468 13.9135 22.9935C13.9402 23.0417 13.9541 23.0959 13.9541 23.151C13.9541 23.2061 13.9402 23.2603 13.9135 23.3086C13.8612 23.4086 13.793 23.4996 13.7116 23.5779C13.3378 23.9703 13.0124 24.406 12.7422 24.8758C12.9961 24.5245 13.3471 24.255 13.752 24.1003C13.8947 24.0464 14.0805 24.0222 14.1694 24.1434C14.2582 24.2645 14.1694 24.453 14.067 24.5823L13.2403 25.6594C13.3561 25.5302 13.752 25.3174 13.9324 25.4467C14.1667 25.6163 13.7897 25.8694 13.6631 25.9852C13.4245 26.2533 13.2259 26.5544 13.0734 26.8793C12.9755 27.0527 12.8657 27.2192 12.7449 27.3774C11.9909 28.3711 10.8949 27.2428 11.0241 26.2949Z" fill="white"/>
<path d="M12.0739 27.901C11.9562 27.9 11.8399 27.8753 11.7319 27.8283C11.4491 27.6875 11.2164 27.4632 11.0652 27.1858C10.914 26.9084 10.8515 26.5913 10.8863 26.2773L11.0237 26.2961L10.8863 26.2773L11.0237 26.2961L10.889 26.2557C11.056 25.0143 11.2472 23.606 12.09 22.5504C12.1951 22.4185 12.7417 21.7614 13.1968 21.7183C13.2557 21.7108 13.3155 21.7155 13.3725 21.7322C13.4295 21.7489 13.4825 21.7772 13.528 21.8153C13.5834 21.8567 13.6285 21.9103 13.6597 21.9719C13.691 22.0336 13.7077 22.1016 13.7084 22.1707C13.7084 22.44 13.4391 22.6716 13.2399 22.8197L13.2049 22.8466C13.1034 22.9314 13.0063 23.0213 12.914 23.1159L13.1968 22.9274C13.3083 22.8458 13.4344 22.7863 13.5684 22.7524C13.6497 22.7293 13.7361 22.7311 13.8164 22.7576C13.8967 22.7841 13.9672 22.834 14.0188 22.901C14.0704 22.968 14.1007 23.0489 14.1059 23.1333C14.111 23.2177 14.0908 23.3017 14.0477 23.3744C13.9916 23.475 13.9198 23.5659 13.835 23.6437C13.703 23.781 13.5819 23.913 13.4634 24.0665C13.5468 24.0261 13.6276 23.9884 13.7138 23.9561C13.8064 23.9043 13.9137 23.885 14.0185 23.9011C14.1234 23.9172 14.2199 23.9678 14.2928 24.0449C14.3735 24.1553 14.4193 24.3492 14.1877 24.6535L13.7246 25.2567C13.8285 25.238 13.9356 25.2602 14.0235 25.3186C14.0617 25.344 14.0935 25.3778 14.1164 25.4175C14.1393 25.4573 14.1526 25.5018 14.1554 25.5475C14.1554 25.7387 13.9723 25.9003 13.8323 26.0188L13.765 26.0807C13.5814 26.2736 13.4296 26.4945 13.3153 26.7351C13.2776 26.8051 13.2399 26.8751 13.1995 26.9424C13.0977 27.1202 12.9844 27.2911 12.8602 27.454C12.7737 27.5853 12.6573 27.6942 12.5207 27.7719C12.384 27.8496 12.2309 27.8938 12.0739 27.901ZM13.2479 21.993H13.2237C12.976 22.0172 12.5747 22.3888 12.3082 22.7228C11.5138 23.7191 11.336 25.0278 11.1637 26.2934V26.315C11.1377 26.5685 11.1885 26.8239 11.3095 27.0481C11.4305 27.2724 11.6162 27.4551 11.8423 27.5725C11.9889 27.6316 12.152 27.6349 12.3009 27.5818C12.4498 27.5287 12.574 27.4229 12.6501 27.2844C12.7671 27.1316 12.8741 26.9715 12.9706 26.8051L13.0837 26.6004C13.2106 26.3344 13.3798 26.0907 13.5845 25.8787C13.6098 25.8535 13.6368 25.8301 13.6653 25.8087C13.7192 25.7603 13.8888 25.6148 13.8888 25.5583C13.7838 25.4802 13.4661 25.6256 13.3503 25.7387C13.3247 25.7636 13.2904 25.7774 13.2547 25.7774C13.219 25.7774 13.1847 25.7636 13.1591 25.7387C13.1317 25.7156 13.1143 25.683 13.1103 25.6474C13.1063 25.6118 13.116 25.5761 13.1375 25.5475L13.9642 24.4704C14.0585 24.3465 14.0989 24.2415 14.0666 24.2011C14.0343 24.1607 13.9077 24.1688 13.8107 24.2011C13.4308 24.3462 13.1015 24.5989 12.8629 24.9282C12.8418 24.9569 12.8106 24.9765 12.7756 24.983C12.7405 24.9895 12.7044 24.9824 12.6744 24.9632C12.6441 24.9442 12.6223 24.9143 12.6138 24.8796C12.6053 24.8449 12.6106 24.8082 12.6286 24.7774C12.9047 24.2992 13.2365 23.8554 13.6169 23.4552C13.6866 23.3897 13.7465 23.3144 13.7946 23.2317C13.8099 23.2046 13.818 23.174 13.818 23.1428C13.818 23.1117 13.8099 23.0811 13.7946 23.054C13.7719 23.0292 13.7427 23.0113 13.7103 23.0023C13.678 22.9933 13.6437 22.9934 13.6115 23.0028C13.5136 23.0292 13.422 23.075 13.3422 23.1374C12.9529 23.3733 12.5916 23.6524 12.2651 23.9695C12.2432 23.9969 12.2116 24.0149 12.1769 24.0197C12.1421 24.0246 12.1069 24.0159 12.0783 23.9956C12.0497 23.9753 12.03 23.9448 12.0232 23.9104C12.0163 23.876 12.0229 23.8403 12.0416 23.8107C12.2796 23.347 12.6127 22.9387 13.0191 22.6123L13.0568 22.5827C13.1833 22.4831 13.4176 22.2946 13.4203 22.1465C13.4203 22.1303 13.4203 22.0792 13.3395 22.0092C13.3114 21.9943 13.2794 21.9886 13.2479 21.993Z" fill="#231F20"/>
<path d="M41.7905 37.8901L26.541 37.251L26.4908 38.4482L41.7403 39.0874L41.7905 37.8901Z" fill="white"/>
<path d="M41.7457 39.2213L26.4936 38.5831C26.4575 38.5804 26.4238 38.564 26.3994 38.5373C26.3862 38.5245 26.376 38.5089 26.3695 38.4917C26.363 38.4745 26.3603 38.4561 26.3617 38.4377L26.4128 37.2394C26.4149 37.2032 26.4309 37.1692 26.4576 37.1446C26.4842 37.12 26.5193 37.1067 26.5555 37.1075L41.8104 37.7456C41.8474 37.7477 41.8822 37.7641 41.9073 37.7914C41.92 37.8046 41.9299 37.8202 41.9364 37.8374C41.9429 37.8545 41.9458 37.8728 41.945 37.8911L41.8938 39.0894C41.8928 39.1078 41.8882 39.1258 41.8802 39.1424C41.8721 39.159 41.8609 39.1738 41.8472 39.1861C41.8334 39.1983 41.8174 39.2078 41.8 39.2138C41.7826 39.2199 41.7641 39.2224 41.7457 39.2213ZM26.639 38.3111L41.6111 38.9386L41.6515 38.0176L26.6794 37.401L26.639 38.3111Z" fill="#231F20"/>
<path d="M35.7201 37.7106L32.0234 37.5557L31.9579 39.1188L35.6546 39.2738L35.7201 37.7106Z" fill="white"/>
<path d="M35.662 39.4094L31.9647 39.256C31.9277 39.2539 31.8929 39.2375 31.8678 39.2102C31.8433 39.1828 31.8299 39.1473 31.8301 39.1105L31.8974 37.546C31.9001 37.5101 31.9164 37.4765 31.9428 37.452C31.9693 37.4275 32.0041 37.414 32.0401 37.4141L35.7374 37.5676C35.7744 37.5696 35.8092 37.5861 35.8343 37.6133C35.847 37.6265 35.8569 37.6421 35.8634 37.6593C35.8699 37.6764 35.8728 37.6947 35.872 37.713L35.8074 39.2775C35.8053 39.3142 35.7889 39.3485 35.7617 39.3732C35.7345 39.3979 35.6987 39.4109 35.662 39.4094ZM32.1182 38.984L35.5381 39.1267L35.5919 37.8395L32.1721 37.6968L32.1182 38.984Z" fill="#231F20"/>
<path d="M30.2327 14.2426H28.9401C28.7775 14.2419 28.6218 14.177 28.5068 14.062C28.3918 13.947 28.3269 13.7913 28.3262 13.6286V12.8962C28.3269 12.7336 28.3918 12.5778 28.5068 12.4628C28.6218 12.3478 28.7775 12.2829 28.9401 12.2822H30.2327C30.3953 12.2829 30.5511 12.3478 30.666 12.4628C30.781 12.5778 30.8459 12.7336 30.8467 12.8962V13.6071C30.8492 13.6894 30.8352 13.7714 30.8055 13.8482C30.7758 13.9251 30.731 13.9952 30.6738 14.0544C30.6165 14.1136 30.548 14.1608 30.4723 14.1931C30.3965 14.2255 30.3151 14.2423 30.2327 14.2426ZM28.9401 12.5731C28.8523 12.5729 28.7678 12.6062 28.7037 12.6663C28.6397 12.7263 28.6009 12.8086 28.5955 12.8962V13.6071C28.5925 13.6541 28.5992 13.7013 28.6152 13.7456C28.6312 13.79 28.6562 13.8305 28.6885 13.8649C28.7208 13.8992 28.7598 13.9265 28.8031 13.9452C28.8463 13.9638 28.893 13.9734 28.9401 13.9733H30.2327C30.3239 13.9726 30.4111 13.9361 30.4756 13.8716C30.5401 13.8071 30.5767 13.7198 30.5774 13.6286V12.8962C30.5739 12.8069 30.5362 12.7223 30.472 12.6601C30.4078 12.598 30.3221 12.5629 30.2327 12.5623L28.9401 12.5731Z" fill="#231F20"/>
<path d="M32.9729 14.2426H31.6804C31.5178 14.2419 31.362 14.177 31.247 14.062C31.132 13.947 31.0671 13.7913 31.0664 13.6286V12.8962C31.0671 12.7336 31.132 12.5778 31.247 12.4628C31.362 12.3478 31.5178 12.2829 31.6804 12.2822H32.9729C33.1355 12.2829 33.2913 12.3478 33.4063 12.4628C33.5213 12.5778 33.5862 12.7336 33.5869 12.8962V13.6071C33.5894 13.6894 33.5754 13.7714 33.5457 13.8482C33.516 13.9251 33.4712 13.9952 33.414 14.0544C33.3568 14.1136 33.2883 14.1608 33.2125 14.1931C33.1368 14.2255 33.0553 14.2423 32.9729 14.2426ZM31.6804 12.5731C31.5928 12.5735 31.5086 12.6071 31.4446 12.667C31.3807 12.7269 31.3418 12.8088 31.3357 12.8962V13.6071C31.3331 13.654 31.3401 13.701 31.3563 13.7452C31.3724 13.7894 31.3974 13.8298 31.4296 13.864C31.4618 13.8983 31.5007 13.9256 31.5438 13.9444C31.5869 13.9632 31.6333 13.973 31.6804 13.9733H32.9729C33.0643 13.9733 33.152 13.937 33.2166 13.8724C33.2813 13.8077 33.3176 13.7201 33.3176 13.6286V12.8962C33.3176 12.8048 33.2813 12.7171 33.2166 12.6525C33.152 12.5878 33.0643 12.5515 32.9729 12.5515L31.6804 12.5731Z" fill="#231F20"/>
<path d="M31.2024 12.8347H30.8065C30.7708 12.8347 30.7366 12.8205 30.7113 12.7953C30.6861 12.77 30.6719 12.7358 30.6719 12.7001C30.6719 12.6644 30.6861 12.6301 30.7113 12.6049C30.7366 12.5796 30.7708 12.5654 30.8065 12.5654H31.2024C31.2381 12.5654 31.2723 12.5796 31.2976 12.6049C31.3228 12.6301 31.337 12.6644 31.337 12.7001C31.337 12.7358 31.3228 12.77 31.2976 12.7953C31.2723 12.8205 31.2381 12.8347 31.2024 12.8347Z" fill="#231F20"/>
</svg>
