<svg width="66" height="83" viewBox="0 0 66 83" fill="none" xmlns="http://www.w3.org/2000/svg">
<path d="M23.2975 64.2819C23.2642 64.2812 23.2324 64.2676 23.2088 64.244C23.1852 64.2204 23.1716 64.1886 23.1709 64.1553V16.0915C23.1716 16.0582 23.1852 16.0264 23.2088 16.0028C23.2324 15.9792 23.2642 15.9656 23.2975 15.9649C23.3311 15.9649 23.3633 15.9782 23.3871 16.002C23.4108 16.0257 23.4242 16.058 23.4242 16.0915V64.1553C23.4242 64.1888 23.4108 64.2211 23.3871 64.2448C23.3633 64.2686 23.3311 64.2819 23.2975 64.2819Z" fill="#D1D3D4"/>
<path d="M19.4287 39.0438L21.1769 73.1383L26.1876 72.6565L27.3411 47.818L30.3365 72.9731L35.5261 73.0089L34.7993 38.6859L19.4287 39.0438Z" fill="#231F20"/>
<path d="M21.1782 73.2765C21.1457 73.2769 21.1142 73.2651 21.0901 73.2435C21.0636 73.2221 21.0459 73.1917 21.0405 73.1581L19.2923 39.0637C19.2911 39.0452 19.2936 39.0266 19.2998 39.0091C19.3059 38.9916 19.3156 38.9755 19.3281 38.9618C19.3547 38.9359 19.3901 38.9212 19.4272 38.9205L34.806 38.5516C34.8416 38.5503 34.8763 38.5632 34.9024 38.5874C34.9284 38.613 34.9441 38.6473 34.9464 38.6837L35.6733 73.0067C35.6736 73.025 35.6703 73.0432 35.6636 73.0602C35.6568 73.0772 35.6467 73.0927 35.6339 73.1058C35.6211 73.1189 35.6058 73.1293 35.5889 73.1364C35.572 73.1435 35.5539 73.1471 35.5356 73.1471L30.346 73.1113C30.3127 73.1109 30.2806 73.0984 30.2558 73.0761C30.231 73.0538 30.2151 73.0233 30.2111 72.9902L27.4029 49.4814L26.3265 72.6626C26.3253 72.6959 26.3121 72.7276 26.2893 72.7519C26.2665 72.7762 26.2357 72.7914 26.2026 72.7947L21.1919 73.2765H21.1782ZM19.5731 39.1793L21.3158 72.9902L26.0677 72.5332L27.213 47.8103C27.215 47.7762 27.2296 47.744 27.2541 47.7201C27.2785 47.6962 27.311 47.6822 27.3451 47.6809C27.3796 47.6793 27.4133 47.691 27.4394 47.7135C27.4655 47.736 27.482 47.7677 27.4855 47.802L30.4699 72.8388L35.3952 72.8718L34.6656 38.8269L19.5731 39.1793Z" fill="#231F20"/>
<path d="M35.6313 52.3784C35.6313 52.3784 35.4716 50.5228 35.6533 50.3658C35.835 50.2089 39.9344 50.3961 40.273 50.4484C40.6116 50.5007 40.5098 52.4197 40.5098 52.4197L39.8958 52.4362C39.8958 52.4362 40.0528 51.1973 39.8298 51.1257C39.6068 51.0541 36.27 50.9165 36.27 50.9165L36.3388 52.4252L35.6313 52.3784Z" fill="#231F20"/>
<path d="M39.8956 52.5742C39.8761 52.5739 39.857 52.5696 39.8393 52.5615C39.8217 52.5534 39.8058 52.5418 39.7929 52.5273C39.78 52.5128 39.7702 52.4958 39.7642 52.4773C39.7581 52.4589 39.756 52.4393 39.7579 52.42C39.8237 52.0337 39.8237 51.639 39.7579 51.2527C39.5019 51.2059 37.6435 51.1123 36.4019 51.06L36.4652 52.42C36.4657 52.4389 36.4623 52.4577 36.4552 52.4752C36.4481 52.4928 36.4374 52.5086 36.4239 52.5219C36.4103 52.5356 36.3939 52.5464 36.3759 52.5535C36.3579 52.5606 36.3386 52.5639 36.3193 52.5632L35.631 52.5109C35.5985 52.509 35.5678 52.4954 35.5445 52.4726C35.5212 52.4499 35.507 52.4194 35.5044 52.387C35.3943 51.1095 35.4163 50.3937 35.5704 50.2588C35.8458 50.0221 40.2507 50.3029 40.3003 50.3084C40.6802 50.3662 40.7022 51.4922 40.6527 52.4255C40.6513 52.4599 40.6368 52.4924 40.6123 52.5164C40.5877 52.5405 40.5549 52.5542 40.5205 52.5549L39.9066 52.5714L39.8956 52.5742ZM36.2697 50.7792C36.8204 50.8039 39.6368 50.9223 39.8653 50.9967C39.9451 51.0214 40.1764 51.0958 40.0442 52.2961H40.3719C40.4077 51.4454 40.3443 50.6801 40.2287 50.5864C39.8763 50.5369 36.1789 50.3772 35.7411 50.4846C35.6723 50.6635 35.6943 51.5032 35.7411 52.2576L36.1789 52.2879L36.1156 50.9306C36.1147 50.9119 36.1177 50.8932 36.1243 50.8757C36.131 50.8582 36.1411 50.8422 36.1541 50.8287C36.1687 50.8127 36.1866 50.7999 36.2065 50.7914C36.2265 50.7828 36.248 50.7787 36.2697 50.7792Z" fill="#231F20"/>
<path d="M21.9316 39.7613L31.4491 39.72C31.4491 39.72 31.1077 23.1187 30.6755 22.6948C30.2433 22.2708 24.5085 23.105 24.0268 23.5207C23.545 23.9364 21.9316 39.7613 21.9316 39.7613Z" fill="white"/>
<path d="M21.9325 39.9042C21.9128 39.904 21.8933 39.8997 21.8753 39.8917C21.8573 39.8836 21.8411 39.8719 21.8279 39.8573C21.8145 39.8425 21.8042 39.825 21.7976 39.8061C21.7909 39.7872 21.7881 39.7672 21.7893 39.7472C22.172 36.0223 23.4412 23.8425 23.9395 23.4186C24.2671 23.1432 26.2439 22.8019 27.3589 22.6504C28.4739 22.499 30.4754 22.2843 30.7837 22.5926C31.216 23.0249 31.5105 35.8075 31.5904 39.7169C31.5912 39.7356 31.5882 39.7543 31.5816 39.7718C31.575 39.7894 31.5648 39.8053 31.5518 39.8188C31.5386 39.8326 31.5228 39.8435 31.5053 39.8511C31.4879 39.8587 31.469 39.8627 31.45 39.8629L21.9325 39.9042ZM29.9743 22.7028C28.4381 22.7028 24.5479 23.2534 24.1267 23.6333C23.7881 24.1068 22.7281 33.3931 22.0894 39.6178L31.3041 39.5793C31.1692 33.0544 30.8636 23.3002 30.5717 22.7853C30.3821 22.7104 30.1772 22.6821 29.9743 22.7028Z" fill="#231F20"/>
<path d="M36.8446 47.7019C36.4714 48.2273 36.1557 48.7913 35.903 49.3841C35.7852 49.696 35.7698 50.0374 35.859 50.3587L36.8226 50.2733C36.8226 50.2733 36.5473 52.1289 36.8446 52.1482C37.1419 52.1675 37.5935 52.4235 37.6705 50.9892C37.6705 50.9892 37.7614 51.5398 38.2625 51.3691C38.5412 51.286 38.7758 51.0959 38.9149 50.8405C38.9149 50.8405 39.2921 51.5673 39.7877 50.8405C40.2832 50.1137 39.7299 47.9002 39.7299 47.9002V46.8567L36.8061 46.7301L36.8446 47.7019Z" fill="white"/>
<path d="M37.1282 52.32C37.0645 52.3184 37.001 52.312 36.9383 52.3008L36.8392 52.287C36.8084 52.285 36.7784 52.2764 36.7513 52.2617C36.7242 52.2469 36.7006 52.2264 36.6822 52.2017C36.4868 51.9621 36.5831 50.9875 36.6602 50.4287L35.8756 50.4975C35.845 50.5004 35.8143 50.4934 35.7881 50.4775C35.7618 50.4617 35.7413 50.4378 35.7297 50.4094C35.6285 50.0572 35.6429 49.6818 35.7709 49.3384C36.0172 48.745 36.3304 48.1815 36.7043 47.659L36.6657 46.723C36.6648 46.7036 36.6681 46.6843 36.6752 46.6663C36.6823 46.6482 36.6931 46.6319 36.707 46.6184C36.7211 46.6044 36.7379 46.5936 36.7564 46.5864C36.7748 46.5793 36.7946 46.5761 36.8144 46.5771L39.7409 46.7092C39.7592 46.7096 39.7773 46.7136 39.7941 46.721C39.8108 46.7284 39.8259 46.7391 39.8385 46.7524C39.851 46.7658 39.8608 46.7815 39.8672 46.7986C39.8736 46.8158 39.8766 46.8341 39.8758 46.8524V47.8765C39.9336 48.105 40.4264 50.1644 39.9116 50.9049C39.7272 51.1802 39.5372 51.3069 39.3169 51.2931C39.1632 51.2761 39.0221 51.2001 38.9233 51.0811C38.7616 51.2714 38.5513 51.4142 38.3148 51.4941C38.2375 51.5273 38.1537 51.5423 38.0697 51.538C37.9857 51.5337 37.9038 51.5102 37.8303 51.4693L37.7752 51.4335C37.7664 51.7195 37.6539 51.9925 37.4586 52.2017C37.367 52.2808 37.2492 52.323 37.1282 52.32ZM36.8942 52.0089H36.9796C37.1145 52.031 37.1998 52.0392 37.2741 51.9787C37.3485 51.9181 37.4916 51.662 37.5274 50.971C37.534 50.9404 37.5504 50.9129 37.5741 50.8925C37.5979 50.8721 37.6276 50.8601 37.6588 50.8582C37.69 50.8564 37.721 50.8648 37.747 50.8821C37.773 50.8995 37.7926 50.9249 37.8027 50.9545C37.8176 51.0637 37.875 51.1626 37.9624 51.2298C38.0005 51.2487 38.0424 51.2586 38.0849 51.2586C38.1274 51.2586 38.1694 51.2487 38.2074 51.2298C38.4485 51.1568 38.6524 50.9942 38.7773 50.7755C38.7883 50.7514 38.8056 50.7307 38.8274 50.7157C38.8493 50.7006 38.8748 50.6918 38.9012 50.6902C38.9283 50.6889 38.9553 50.6955 38.9787 50.7092C39.0022 50.7228 39.0212 50.743 39.0334 50.7673C39.0637 50.8279 39.1875 51.004 39.3225 51.0123C39.4574 51.0206 39.5785 50.8719 39.6611 50.737C40.0383 50.1864 39.7327 48.507 39.584 47.9096C39.5827 47.8986 39.5827 47.8875 39.584 47.8765V46.9708L36.9465 46.8496L36.9823 47.6755C36.9826 47.7058 36.974 47.7355 36.9575 47.7609C36.5917 48.2773 36.2817 48.831 36.0325 49.4128C35.9461 49.6638 35.9216 49.932 35.9609 50.1946L36.8034 50.1203C36.8247 50.1183 36.8462 50.1213 36.8663 50.1289C36.8863 50.1365 36.9044 50.1487 36.919 50.1644C36.9339 50.1799 36.9451 50.1986 36.9518 50.2191C36.9585 50.2396 36.9604 50.2614 36.9575 50.2827C36.8612 50.9985 36.8116 51.8327 36.8942 52.0089Z" fill="#231F20"/>
<path d="M29.4209 21.8622C29.3521 22.0274 29.2695 45.7949 29.2695 45.7949L35.4007 45.3847L35.5494 46.7778L40.3783 47.1632C40.3783 47.1632 40.6536 36.9767 40.2489 33.026C39.8442 29.0753 37.6665 25.042 36.3478 24.0647C33.7984 22.154 29.4209 21.8622 29.4209 21.8622Z" fill="#00B87C"/>
<path d="M25.0823 22.226L25.1759 46.1065L18.3565 45.8009L18.7006 34.3948C18.7006 34.3948 12.0518 39.7743 10.389 34.7857C9.16109 31.1048 18.6483 21.2404 18.6483 21.2404L21.3821 23.6852C21.3821 23.6852 23.7663 21.8433 25.0823 22.226Z" fill="#00B87C"/>
<path d="M26.4507 25.5654L26.8252 26.3197L25.9111 36.5888L27.3675 38.5463L28.9285 36.4401L27.4832 26.2124L27.9897 25.4415L27.2629 24.8661L26.4507 25.5654Z" fill="#D1D3D4"/>
<path d="M21.2854 23.8785C21.52 23.4588 21.8078 23.071 22.1416 22.725C22.5266 22.416 22.8943 22.0861 23.2429 21.7366C23.4517 21.4778 23.6223 21.1904 23.7495 20.8832C24.2023 19.8448 24.3631 18.7025 24.2147 17.5794C24.1487 17.0701 23.7192 15.3191 22.9455 16.2717C22.7844 16.471 22.6688 16.7031 22.6069 16.9517C22.6593 16.6797 22.6778 16.4023 22.662 16.1258C22.662 16.0652 22.6482 15.9936 22.5904 15.9689C22.5326 15.9441 22.4693 15.9909 22.4252 16.0349C22.0336 16.4232 21.7744 16.9252 21.6846 17.4693C21.8192 17.085 21.8917 16.6816 21.8994 16.2745C21.8994 15.7982 21.3487 16.5911 21.3019 16.6902C21.1286 17.0217 20.9991 17.3743 20.9165 17.7391C20.5476 19.2561 20.3659 20.7675 19.5234 22.1441" fill="white"/>
<path d="M21.2852 24.0123C21.259 24.0114 21.2334 24.0039 21.2109 23.9903C21.179 23.9704 21.1562 23.9387 21.1474 23.9022C21.1386 23.8656 21.1446 23.827 21.1641 23.7948C21.4025 23.3682 21.6949 22.974 22.034 22.622C22.18 22.4844 22.3341 22.3467 22.4828 22.2366C22.7153 22.0595 22.9309 21.8614 23.127 21.6447C23.3269 21.3938 23.4901 21.1157 23.6116 20.8187C24.0543 19.8076 24.2124 18.6947 24.0686 17.6004C23.997 17.0497 23.7245 16.2238 23.4244 16.144C23.317 16.1137 23.1931 16.188 23.0499 16.3642C22.9003 16.5487 22.7931 16.764 22.7361 16.9947C22.7281 17.0312 22.7059 17.063 22.6744 17.0831C22.6429 17.1033 22.6047 17.1101 22.5682 17.102C22.5316 17.094 22.4998 17.0718 22.4797 17.0403C22.4595 17.0088 22.4527 16.9706 22.4608 16.9341C22.5098 16.6747 22.5273 16.4103 22.5131 16.1467C22.2728 16.386 22.0852 16.673 21.9625 16.9892C21.9268 17.1708 21.8771 17.3493 21.8138 17.5233C21.8047 17.5598 21.7814 17.5912 21.7491 17.6105C21.7169 17.6299 21.6782 17.6356 21.6417 17.6265C21.6052 17.6174 21.5738 17.5941 21.5545 17.5619C21.5351 17.5296 21.5294 17.4909 21.5385 17.4544C21.5686 17.2665 21.6175 17.082 21.6844 16.9038C21.7216 16.7169 21.7437 16.5272 21.7505 16.3367C21.6269 16.467 21.5162 16.609 21.4201 16.7607C21.2483 17.0787 21.1205 17.4186 21.0402 17.771C20.9603 18.0987 20.8915 18.4235 20.8199 18.7484C20.5694 19.9185 20.3106 21.1271 19.6306 22.209C19.6105 22.2408 19.5786 22.2633 19.542 22.2716C19.5053 22.2798 19.4669 22.2732 19.4351 22.2531C19.4034 22.233 19.3809 22.2011 19.3726 22.1645C19.3643 22.1278 19.371 22.0894 19.3911 22.0576C20.0436 21.017 20.2858 19.8854 20.5419 18.6906C20.6134 18.363 20.685 18.0326 20.7649 17.705C20.8473 17.3267 20.9817 16.9617 21.1641 16.6202C21.1641 16.6202 21.5798 15.9099 21.8689 15.987C21.9404 16.0063 22.0258 16.0696 22.0285 16.2623C22.1114 16.1451 22.2034 16.0346 22.3039 15.932C22.3399 15.8825 22.3914 15.8464 22.4502 15.8294C22.5091 15.8125 22.5719 15.8156 22.6287 15.8384C22.6788 15.864 22.7204 15.9037 22.7483 15.9526C22.7761 16.0015 22.7891 16.0575 22.7856 16.1137C22.7856 16.1467 22.7856 16.1797 22.7856 16.2155L22.8132 16.1825C23.0334 15.9072 23.2592 15.8053 23.4849 15.8686C24.1154 16.0448 24.3329 17.5453 24.3329 17.5591C24.4869 18.7065 24.3221 19.8743 23.8566 20.9344C23.7249 21.2545 23.5478 21.5539 23.3308 21.8236C23.1244 22.0556 22.8957 22.2668 22.648 22.4541C22.5021 22.5725 22.3534 22.6936 22.2158 22.823C21.8936 23.1586 21.616 23.5342 21.3898 23.9408C21.3794 23.9602 21.3644 23.9768 21.3462 23.9893C21.328 24.0018 21.3071 24.0097 21.2852 24.0123Z" fill="#231F20"/>
<path d="M24.1975 18.5337L21.0397 22.4486L20.1973 19.3706L23.3688 15.8384L24.1975 18.5337Z" fill="#231F20"/>
<path d="M21.041 22.5866H21.0134C20.9887 22.5811 20.9659 22.569 20.9474 22.5515C20.929 22.5341 20.9157 22.5119 20.9088 22.4875L20.0664 19.4095C20.0603 19.3876 20.0599 19.3645 20.0652 19.3423C20.0705 19.3202 20.0813 19.2997 20.0967 19.2829L23.2682 15.7507C23.2846 15.7327 23.3055 15.7195 23.3287 15.7122C23.3519 15.7049 23.3767 15.704 23.4004 15.7094C23.4246 15.7134 23.4471 15.7244 23.4652 15.741C23.4833 15.7577 23.4962 15.7792 23.5022 15.803L24.3282 18.4955C24.3349 18.5164 24.3363 18.5386 24.3325 18.5602C24.3287 18.5818 24.3196 18.6021 24.3062 18.6194L21.1483 22.5343C21.1354 22.5504 21.1191 22.5634 21.1005 22.5725C21.0819 22.5815 21.0616 22.5863 21.041 22.5866ZM20.3499 19.4068L21.1015 22.1599L24.0446 18.5093L23.3123 16.1168L20.3499 19.4068Z" fill="#231F20"/>
<path d="M24.2586 10.8289C23.9145 11.1042 23.5868 11.4428 23.251 11.6548C22.6357 12.0781 21.9236 12.3395 21.1806 12.4146C20.9852 12.4284 21.3458 14.094 21.3981 14.2455C21.6052 14.8594 21.9402 15.4224 22.381 15.8973C22.7828 16.3111 23.2094 16.7 23.6584 17.0619C24.2228 17.5327 25.09 17.6125 25.7866 17.6951C26.406 17.7749 27.064 17.9401 27.6779 17.9704C28.2919 18.0007 29.0325 18.0502 29.5859 17.8135C30.3099 17.5024 30.7339 16.5636 30.9624 15.8643C31.3011 14.981 31.3205 14.0072 31.0175 13.1112C30.9015 12.7713 30.695 12.4695 30.42 12.2384C30.0759 11.9631 29.7428 11.9934 29.3491 11.9852C29.3821 11.4896 29.2197 11.2198 28.7985 10.9032C27.8018 10.1433 26.0701 10.0773 24.9083 10.4572C24.6726 10.5441 24.453 10.6697 24.2586 10.8289Z" fill="white"/>
<path d="M28.4137 18.1213C28.2072 18.1213 28.0034 18.1213 27.8162 18.1048H27.6731C27.2699 18.0781 26.8689 18.0248 26.4727 17.9451C26.236 17.9038 25.9992 17.8625 25.7707 17.8322L25.611 17.8212C24.9117 17.7359 24.1216 17.6395 23.5682 17.177C23.1141 16.812 22.6829 16.4194 22.277 16.0014C21.8246 15.513 21.4795 14.9353 21.2638 14.3055C21.2638 14.3055 20.8454 12.6536 21.0326 12.3783C21.0476 12.3543 21.0682 12.3342 21.0927 12.3198C21.1171 12.3054 21.1447 12.2972 21.173 12.2957C21.8916 12.222 22.58 11.9683 23.1745 11.5579C23.3933 11.4037 23.6004 11.2335 23.7939 11.0486C23.9233 10.9357 24.05 10.8201 24.1821 10.7154C24.3918 10.5359 24.6313 10.3942 24.8897 10.297C26.0377 9.91154 27.8383 9.94458 28.912 10.765C29.0954 10.8737 29.2477 11.0279 29.3543 11.2125C29.4608 11.3972 29.5181 11.6062 29.5204 11.8194C29.8802 11.787 30.2397 11.8846 30.5335 12.0948C30.8283 12.3417 31.05 12.6644 31.175 13.0281C31.4911 13.9595 31.4726 14.972 31.1227 15.8913C30.7455 16.9925 30.2527 17.667 29.6526 17.9231C29.257 18.0715 28.8357 18.1389 28.4137 18.1213ZM21.2556 12.5518C21.293 13.1101 21.3852 13.6634 21.5309 14.2036C21.7324 14.7954 22.0571 15.3378 22.4835 15.7949C22.8803 16.2053 23.3024 16.5906 23.7471 16.9485C24.2372 17.3559 24.9833 17.4468 25.6413 17.5294L25.8037 17.5487C26.0377 17.5789 26.2772 17.6202 26.5195 17.6643C26.9033 17.7389 27.2913 17.7904 27.6813 17.8185H27.8245C28.3751 17.8405 29.0469 17.8708 29.5287 17.6643C30.0105 17.4578 30.4895 16.8136 30.8391 15.8004C31.1672 14.9448 31.1877 14.0017 30.897 13.1327C30.791 12.8168 30.6006 12.5359 30.3463 12.3205C30.0924 12.1445 29.7834 12.0663 29.4764 12.1003H29.3607C29.3221 12.098 29.2857 12.0813 29.2589 12.0535C29.2455 12.0397 29.2352 12.0232 29.2285 12.0052C29.2219 11.9872 29.2191 11.968 29.2203 11.9488C29.2506 11.5194 29.135 11.2964 28.7303 10.988C27.7694 10.2557 26.0653 10.1979 24.9695 10.564C24.7415 10.6526 24.5302 10.7792 24.3446 10.9384C24.2179 11.0403 24.094 11.1504 23.9701 11.2606C23.7691 11.4441 23.5547 11.6125 23.3287 11.7644C22.7164 12.1922 22.0082 12.4626 21.2666 12.5518H21.2556Z" fill="#231F20"/>
<path d="M25.0531 20.8504L24.9843 23.5732C24.9843 23.5732 26.2342 24.8617 27.9659 24.3579C29.6976 23.854 29.8931 22.6344 29.8931 22.6344L29.6425 17.6953C29.6425 17.6953 28.31 17.0649 28.5606 14.2292C28.5606 14.2292 25.8955 15.1873 23.2773 14.978C23.2773 14.978 23.3902 18.1661 23.6655 19.5124C23.9408 20.8587 25.0531 20.8504 25.0531 20.8504Z" fill="white"/>
<path d="M27.1501 24.6274C26.3072 24.6041 25.5032 24.2674 24.8953 23.6831C24.8822 23.6696 24.8721 23.6536 24.8655 23.6361C24.8589 23.6186 24.8559 23.5999 24.8567 23.5812L24.92 20.9878C24.5869 20.9382 23.7775 20.6959 23.5435 19.5534C23.2682 18.2099 23.1581 15.1237 23.1553 14.9943C23.1549 14.9744 23.1586 14.9547 23.1661 14.9363C23.1736 14.9179 23.1848 14.9012 23.199 14.8873C23.2131 14.8734 23.23 14.8625 23.2485 14.8553C23.2671 14.8482 23.2869 14.8448 23.3067 14.8456C25.8616 15.0493 28.5046 14.1133 28.5376 14.105C28.5599 14.097 28.5839 14.0948 28.6073 14.0985C28.6307 14.1022 28.6527 14.1118 28.6714 14.1264C28.6901 14.141 28.7048 14.16 28.7141 14.1818C28.7235 14.2036 28.7272 14.2273 28.7248 14.2509C28.4881 16.938 29.7159 17.5739 29.727 17.5794C29.75 17.5904 29.7697 17.6075 29.7837 17.6289C29.7978 17.6502 29.8058 17.675 29.8068 17.7006L30.0573 22.6369C30.0587 22.6469 30.0587 22.6571 30.0573 22.6672C30.0573 22.7222 29.8206 23.9804 28.0228 24.5035C27.7395 24.5871 27.4455 24.6289 27.1501 24.6274ZM25.1293 23.5261C25.355 23.7326 26.4728 24.6549 27.9264 24.2309C29.4654 23.7822 29.727 22.7718 29.7572 22.6341L29.5095 17.7914C29.2342 17.607 28.2596 16.8113 28.4082 14.4409C27.7447 14.6529 25.5808 15.2668 23.4306 15.1402C23.4581 15.8009 23.5738 18.3475 23.8078 19.4956C24.0556 20.7042 25.0081 20.718 25.0522 20.718C25.0713 20.7182 25.0901 20.7222 25.1076 20.7297C25.1251 20.7373 25.1409 20.7483 25.1541 20.762C25.1674 20.7753 25.178 20.7912 25.1851 20.8087C25.1922 20.8262 25.1957 20.845 25.1954 20.8639L25.1293 23.5261Z" fill="#231F20"/>
<path d="M28.6191 17.6672C28.6689 17.4247 28.7953 17.2046 28.9798 17.0395C29.1581 16.8932 29.3602 16.7787 29.5772 16.7009C29.6907 16.6467 29.8149 16.6184 29.9406 16.6183C30.0297 16.6268 30.116 16.654 30.1939 16.6981C30.3878 16.7803 30.5453 16.9299 30.6372 17.1194C30.694 17.279 30.7101 17.4503 30.684 17.6177C30.6722 17.8053 30.6352 17.9905 30.5738 18.1683C30.511 18.3416 30.4139 18.5005 30.2885 18.6356C30.163 18.7707 30.0117 18.8792 29.8435 18.9547C29.6753 19.0301 29.4937 19.0711 29.3094 19.075C29.1251 19.079 28.9418 19.0459 28.7706 18.9777" fill="white"/>
<path d="M29.2735 19.1988C29.0853 19.1993 28.8985 19.1647 28.7229 19.0969C28.6875 19.0834 28.659 19.0563 28.6435 19.0218C28.628 18.9872 28.6269 18.9479 28.6403 18.9125C28.655 18.878 28.6823 18.8506 28.7166 18.8357C28.7509 18.8209 28.7897 18.8198 28.8248 18.8326C29.1358 18.9512 29.4811 18.9423 29.7856 18.8078C30.0881 18.6653 30.3231 18.4105 30.4409 18.0975C30.4964 17.9356 30.5306 17.7672 30.5427 17.5965C30.5632 17.4515 30.551 17.3038 30.5069 17.1642C30.4221 17.0107 30.287 16.8911 30.1242 16.8256C30.0619 16.7915 29.9937 16.7691 29.9233 16.7595C29.8182 16.7629 29.7151 16.7882 29.6204 16.8339C29.421 16.9065 29.235 17.0117 29.0698 17.145C28.9084 17.2897 28.7982 17.4829 28.756 17.6956C28.748 17.7325 28.726 17.7648 28.6947 17.7859C28.6634 17.8069 28.6252 17.815 28.588 17.8085C28.5697 17.8049 28.5522 17.7976 28.5367 17.7872C28.5211 17.7768 28.5079 17.7633 28.4976 17.7477C28.4873 17.732 28.4803 17.7145 28.4769 17.6961C28.4735 17.6777 28.4739 17.6588 28.4779 17.6405C28.5317 17.3667 28.6739 17.1182 28.8826 16.933C29.0731 16.7768 29.2892 16.6548 29.5213 16.5723C29.6554 16.5081 29.8022 16.4752 29.9508 16.476C30.0576 16.488 30.1612 16.5198 30.2564 16.5696C30.4805 16.6687 30.662 16.8444 30.7685 17.0651C30.8324 17.2469 30.8513 17.4416 30.8235 17.6323C30.8116 17.8287 30.7717 18.0225 30.7051 18.2077C30.5969 18.4999 30.4016 18.752 30.1456 18.9297C29.8896 19.1074 29.5852 19.2023 29.2735 19.2015V19.1988Z" fill="#231F20"/>
<path d="M25.083 22.2255C25.4083 22.2463 25.7342 22.1974 26.0391 22.082C26.3439 21.9666 26.6205 21.7874 26.8505 21.5565C27.5856 20.7773 27.5002 20.3478 27.5002 20.3478C27.5002 20.3478 26.2861 21.0884 25.1298 20.9122L25.083 22.2255Z" fill="#231F20"/>
<path d="M25.2272 22.3547C25.1364 22.3547 25.0786 22.3547 25.0676 22.3547C25.0333 22.3512 25.0016 22.3347 24.979 22.3086C24.9565 22.2825 24.9448 22.2487 24.9464 22.2143L24.9905 20.901C24.9909 20.8819 24.9955 20.863 25.0041 20.8459C25.0127 20.8288 25.025 20.8137 25.04 20.8019C25.0548 20.7897 25.072 20.7806 25.0905 20.7754C25.109 20.7702 25.1284 20.7689 25.1474 20.7716C26.2486 20.9368 27.4132 20.221 27.427 20.221C27.4463 20.2102 27.4681 20.2045 27.4903 20.2045C27.5125 20.2045 27.5343 20.2102 27.5536 20.221C27.5734 20.2302 27.5907 20.244 27.6041 20.2613C27.6175 20.2785 27.6266 20.2987 27.6307 20.3201C27.6307 20.3697 27.7105 20.8405 26.9479 21.6471C26.7232 21.8744 26.4551 22.0541 26.1595 22.1757C25.8639 22.2972 25.5468 22.3581 25.2272 22.3547ZM25.2603 21.0525L25.2245 22.0794C25.5074 22.0805 25.7877 22.0253 26.0491 21.917C26.3104 21.8088 26.5477 21.6497 26.747 21.4489C27.0006 21.2065 27.198 20.9114 27.3251 20.5844C26.6898 20.9188 25.9777 21.0802 25.2603 21.0525Z" fill="#231F20"/>
<path d="M25.8023 16.9514C25.8023 16.9514 24.8993 18.328 25.1196 18.5702C25.3398 18.8125 25.9455 18.6391 25.9455 18.6391" fill="white"/>
<path d="M25.5293 18.8345C25.4369 18.8417 25.3439 18.8304 25.256 18.801C25.168 18.7717 25.0868 18.7251 25.0172 18.6638C24.7722 18.3885 25.2457 17.5488 25.6835 16.8771C25.7032 16.8465 25.7343 16.8249 25.7699 16.8172C25.8055 16.8094 25.8427 16.8161 25.8734 16.8358C25.9042 16.856 25.9258 16.8876 25.9336 16.9237C25.9413 16.9597 25.9345 16.9974 25.9147 17.0285C25.4935 17.6727 25.1686 18.3527 25.2237 18.4821C25.3421 18.606 25.7385 18.5537 25.912 18.5069C25.947 18.4976 25.9843 18.5025 26.0157 18.5206C26.0472 18.5386 26.0702 18.5683 26.0799 18.6033C26.0893 18.6387 26.0844 18.6763 26.0664 18.7082C26.0484 18.7401 26.0187 18.7637 25.9836 18.774C25.8349 18.8113 25.6825 18.8316 25.5293 18.8345Z" fill="#231F20"/>
<path d="M27.5817 16.942C27.6172 16.7692 27.547 16.6088 27.4249 16.5837C27.3027 16.5586 27.175 16.6783 27.1395 16.8511C27.104 17.0239 27.1742 17.1843 27.2963 17.2094C27.4185 17.2345 27.5462 17.1147 27.5817 16.942Z" fill="#231F20"/>
<path d="M25.1901 16.9865C25.2256 16.8137 25.1554 16.6533 25.0333 16.6282C24.9111 16.6031 24.7834 16.7228 24.7479 16.8956C24.7124 17.0684 24.7826 17.2288 24.9047 17.2539C25.0269 17.279 25.1546 17.1592 25.1901 16.9865Z" fill="#231F20"/>
<path d="M26.5249 18.9778L25.2227 19.2834C25.2227 19.2834 25.2722 20.3075 25.8999 20.2277C26.3982 20.1644 26.6267 19.1292 26.5249 18.9778Z" fill="#231F20"/>
<path d="M25.8331 20.3706C25.6964 20.3725 25.564 20.3234 25.4615 20.233C25.1256 19.9577 25.0898 19.3162 25.087 19.2887C25.0857 19.2567 25.0958 19.2254 25.1154 19.2001C25.1351 19.1749 25.1631 19.1575 25.1944 19.151L26.4966 18.8427C26.5239 18.8367 26.5524 18.839 26.5784 18.8493C26.6044 18.8596 26.6267 18.8774 26.6425 18.9005C26.7527 19.0684 26.6425 19.5365 26.5159 19.8063C26.4722 19.9417 26.3942 20.0636 26.2896 20.1601C26.1849 20.2566 26.0571 20.3244 25.9185 20.3569C25.8905 20.3642 25.8619 20.3688 25.8331 20.3706ZM25.3734 19.3878C25.3925 19.6243 25.4893 19.8479 25.6487 20.0238C25.6828 20.0521 25.7225 20.0728 25.7652 20.0847C25.8079 20.0966 25.8526 20.0993 25.8964 20.0926C25.9627 20.0734 26.0242 20.0404 26.0769 19.9958C26.1295 19.9512 26.1722 19.896 26.202 19.8338C26.3258 19.6234 26.4019 19.3885 26.425 19.1455L25.3734 19.3878Z" fill="#231F20"/>
<path d="M29.2992 12.3422C29.1471 12.6662 29.012 12.9979 28.8945 13.336L29.2992 12.3422Z" fill="white"/>
<path d="M28.8889 13.4749C28.8744 13.4777 28.8594 13.4777 28.8449 13.4749C28.8102 13.4635 28.7814 13.4389 28.7649 13.4064C28.7484 13.3738 28.7455 13.3361 28.7568 13.3014C28.8767 12.9577 29.0146 12.6204 29.1697 12.291C29.1777 12.2747 29.1888 12.2602 29.2023 12.2482C29.2159 12.2362 29.2317 12.227 29.2488 12.2212C29.266 12.2153 29.2841 12.2128 29.3022 12.2139C29.3202 12.2151 29.3379 12.2197 29.3542 12.2277C29.3705 12.2357 29.385 12.2467 29.397 12.2603C29.409 12.2739 29.4182 12.2897 29.424 12.3068C29.4299 12.3239 29.4324 12.3421 29.4313 12.3601C29.4301 12.3782 29.4255 12.3959 29.4175 12.4122C29.2707 12.7283 29.1402 13.0517 29.0266 13.3812C29.017 13.4097 28.9983 13.4343 28.9735 13.4512C28.9486 13.4681 28.9189 13.4764 28.8889 13.4749Z" fill="#231F20"/>
<path d="M16.8919 32.3705C16.8634 32.3703 16.8356 32.3617 16.812 32.3457C16.7964 32.3352 16.7831 32.3217 16.7729 32.306C16.7626 32.2903 16.7556 32.2726 16.7522 32.2542C16.7489 32.2357 16.7493 32.2167 16.7534 32.1984C16.7575 32.1801 16.7653 32.1628 16.7762 32.1475L21.8888 24.7141C21.3959 24.2406 19.042 21.983 18.541 21.3058C18.5223 21.2778 18.5143 21.2442 18.5183 21.2108C18.5224 21.1775 18.5382 21.1467 18.563 21.124C18.5934 21.1021 18.6312 21.093 18.6683 21.0987C18.7054 21.1044 18.7387 21.1243 18.7612 21.1543C19.2926 21.8756 22.1365 24.5819 22.1668 24.6095C22.1913 24.6325 22.2065 24.6637 22.2095 24.6972C22.2125 24.7307 22.2032 24.7641 22.1833 24.7912L17.002 32.3237C16.988 32.3388 16.9709 32.3508 16.9519 32.3589C16.933 32.367 16.9125 32.3709 16.8919 32.3705Z" fill="#231F20"/>
<path d="M21.8662 22.1845C21.8662 22.1845 22.304 21.0447 22.604 20.0866C22.9041 19.1285 22.9069 18.7101 23.1547 18.9083C23.4024 19.1065 23.4933 19.8884 23.1547 20.9731" fill="white"/>
<path d="M21.8669 22.328C21.8506 22.3319 21.8337 22.3319 21.8174 22.328C21.8 22.3216 21.784 22.3118 21.7704 22.2992C21.7568 22.2865 21.7459 22.2713 21.7382 22.2544C21.7305 22.2375 21.7262 22.2193 21.7257 22.2007C21.7251 22.1822 21.7282 22.1637 21.7348 22.1463C21.7348 22.1463 22.1753 20.9983 22.4699 20.054C22.5469 19.8062 22.6048 19.5942 22.6516 19.4208C22.7672 18.994 22.8195 18.8013 22.9792 18.7463C23.0242 18.734 23.0715 18.7334 23.1168 18.7445C23.162 18.7556 23.2037 18.778 23.238 18.8096C23.5821 19.0849 23.6069 20.0044 23.2985 21.0121C23.2876 21.0486 23.2626 21.0792 23.229 21.0973C23.1955 21.1154 23.1561 21.1194 23.1196 21.1084C23.0831 21.0975 23.0524 21.0725 23.0344 21.0389C23.0163 21.0053 23.0123 20.966 23.0232 20.9295C23.3564 19.8282 23.216 19.1482 23.0645 19.0243C23.0071 19.1735 22.9593 19.3261 22.9214 19.4813C22.8746 19.6575 22.8168 19.8723 22.7369 20.1256C22.4396 21.0781 22.0018 22.2234 21.9963 22.2344C21.9868 22.2613 21.9693 22.2847 21.9462 22.3014C21.9231 22.3181 21.8955 22.3274 21.8669 22.328Z" fill="#231F20"/>
<path d="M33.5473 52.3951L31.7109 52.4832L31.8403 61.7584L33.7785 62.0585L33.5473 52.3951Z" fill="white"/>
<path d="M33.7788 62.2019H33.7568L31.8296 61.9018C31.7968 61.8966 31.7669 61.8799 31.7452 61.8547C31.7235 61.8295 31.7115 61.7974 31.7113 61.7641L31.5791 52.4889C31.579 52.4523 31.593 52.4171 31.6181 52.3905C31.6432 52.3639 31.6775 52.3479 31.714 52.3458L33.5503 52.2549C33.5695 52.2539 33.5886 52.2567 33.6066 52.2634C33.6246 52.27 33.6411 52.2802 33.6549 52.2935C33.6686 52.3061 33.6796 52.3215 33.6871 52.3385C33.6947 52.3555 33.6987 52.3739 33.699 52.3926L33.933 62.0587C33.9327 62.0795 33.9282 62.1 33.9197 62.1189C33.9112 62.1379 33.8988 62.1549 33.8834 62.1688C33.8542 62.193 33.8167 62.2049 33.7788 62.2019ZM31.9811 61.6513L33.6329 61.9073L33.4072 52.5467L31.8544 52.6211L31.9811 61.6513Z" fill="#231F20"/>
<path d="M33.5465 52.3951C33.4942 52.519 33.7777 62.0585 33.7777 62.0585L42.5601 61.7832L42.6455 52.4804L33.5465 52.3951Z" fill="white"/>
<path d="M33.7804 62.2014C33.7445 62.2016 33.7099 62.1878 33.6841 62.1629C33.6573 62.1364 33.6407 62.1013 33.6373 62.0638C33.362 52.4912 33.4005 52.3784 33.417 52.3398C33.4303 52.3155 33.4492 52.2948 33.4722 52.2795C33.4952 52.2641 33.5216 52.2546 33.5492 52.2517L42.6509 52.3508C42.6884 52.3515 42.7241 52.3669 42.7504 52.3937C42.7766 52.4205 42.7913 52.4565 42.7913 52.494L42.706 61.7967C42.706 61.8335 42.6916 61.8688 42.6658 61.895C42.6401 61.9213 42.6051 61.9364 42.5683 61.9371L33.7859 62.2124L33.7804 62.2014ZM33.6841 52.538C33.6841 53.3942 33.8162 58.4269 33.9181 61.9124L42.4224 61.6591L42.505 52.6344L33.6841 52.538Z" fill="#231F20"/>
<path d="M35.4371 55.883C35.412 55.8833 35.3872 55.8768 35.3654 55.8642C35.3436 55.8516 35.3256 55.8334 35.3132 55.8114L33.4301 52.4637C33.4208 52.4476 33.4147 52.4298 33.4123 52.4114C33.4099 52.393 33.4112 52.3743 33.416 52.3564C33.4209 52.3385 33.4293 52.3217 33.4407 52.307C33.4521 52.2923 33.4663 52.2801 33.4824 52.2709C33.5154 52.2527 33.5543 52.248 33.5907 52.2577C33.6271 52.2675 33.6584 52.291 33.6779 52.3232L35.5252 55.5967L41.0975 55.5637L42.5154 52.4334C42.5335 52.4031 42.5621 52.3806 42.5957 52.3702C42.6294 52.3597 42.6657 52.362 42.6978 52.3767C42.7298 52.3914 42.7553 52.4173 42.7694 52.4496C42.7835 52.4819 42.7852 52.5183 42.7742 52.5518L41.3123 55.7646C41.3005 55.7891 41.2822 55.8097 41.2593 55.8243C41.2364 55.8389 41.21 55.8468 41.1829 55.8472L35.4344 55.883H35.4371Z" fill="#231F20"/>
<path d="M39.0075 54.9993L38.1602 55.0303L38.2224 56.7279L39.0698 56.6968L39.0075 54.9993Z" fill="#D1D3D4"/>
<path d="M26.2433 72.8633L26.1717 75.2007L24.2831 75.4568L24.3382 74.6501C24.2096 74.8759 24.0356 75.0725 23.8271 75.2275C23.6185 75.3825 23.3801 75.4924 23.1268 75.5504C22.2623 75.7458 20.1479 76.2001 19.4431 75.9413C18.7384 75.6825 21.1804 73.1387 21.1804 73.1387" fill="white"/>
<path d="M20.0625 76.1613C19.8352 76.1698 19.6082 76.14 19.3908 76.0732C19.338 76.0554 19.2907 76.0243 19.2535 75.9828C19.2164 75.9413 19.1906 75.8909 19.1788 75.8364C19.0329 75.2032 20.7343 73.3972 21.0757 73.0393C21.1024 73.0129 21.1385 72.9981 21.1761 72.9981C21.2138 72.9981 21.2499 73.0129 21.2766 73.0393C21.29 73.0524 21.3007 73.068 21.308 73.0852C21.3152 73.1025 21.319 73.121 21.319 73.1398C21.319 73.1585 21.3152 73.177 21.308 73.1943C21.3007 73.2115 21.29 73.2272 21.2766 73.2402C20.47 74.0662 19.3715 75.4207 19.4541 75.7759C19.4541 75.7924 19.4541 75.8006 19.4844 75.8089C19.9469 75.9796 21.2271 75.8392 23.0909 75.4124C23.3211 75.3572 23.5376 75.2555 23.727 75.1134C23.9164 74.9714 24.0747 74.7921 24.1922 74.5865C24.2065 74.5566 24.2309 74.5328 24.2612 74.5191C24.2914 74.5055 24.3255 74.5031 24.3574 74.5122C24.3894 74.52 24.4175 74.539 24.4367 74.5657C24.4559 74.5925 24.4649 74.6253 24.462 74.6581L24.4207 75.2886L26.0175 75.0711L26.0863 72.8686C26.0877 72.8311 26.1038 72.7957 26.1311 72.7699C26.1584 72.7442 26.1947 72.7302 26.2322 72.7309C26.2509 72.7313 26.2693 72.7353 26.2864 72.7429C26.3035 72.7505 26.3189 72.7614 26.3317 72.775C26.3445 72.7885 26.3545 72.8046 26.3611 72.8221C26.3676 72.8395 26.3706 72.8582 26.3699 72.8768L26.2983 75.2115C26.2968 75.2452 26.2836 75.2774 26.261 75.3025C26.2384 75.3276 26.2078 75.3441 26.1744 75.3491L24.2858 75.6052C24.2651 75.6078 24.244 75.606 24.2241 75.5998C24.2041 75.5936 24.1857 75.5833 24.1701 75.5694C24.1541 75.5549 24.1416 75.5369 24.1335 75.5169C24.1254 75.4969 24.1219 75.4753 24.1233 75.4537L24.1454 75.1289C23.8747 75.4128 23.526 75.6101 23.1432 75.696C22.1345 75.9537 21.1024 76.1096 20.0625 76.1613Z" fill="#231F20"/>
<path d="M30.3096 73.0768L30.428 75.1885L31.7742 75.406L31.8183 74.7287C32.1032 75.1182 32.4997 75.412 32.9553 75.5712C33.6628 75.7886 37.1428 76.5733 37.3603 75.8657C37.5778 75.1582 35.8378 74.0459 35.4331 72.9998" fill="white"/>
<path d="M36.41 76.2913C35.0582 76.2913 32.9383 75.7132 32.9108 75.7049C32.5389 75.5821 32.2032 75.3693 31.9334 75.0855L31.9114 75.4158C31.9098 75.435 31.9044 75.4537 31.8954 75.4707C31.8864 75.4878 31.874 75.5028 31.8591 75.515C31.8438 75.5273 31.8261 75.5363 31.8072 75.5416C31.7883 75.5468 31.7684 75.548 31.749 75.5452L30.4 75.3277C30.368 75.3227 30.3388 75.3068 30.3173 75.2827C30.2957 75.2587 30.2831 75.2279 30.2816 75.1956L30.1632 73.0812C30.1617 73.0437 30.175 73.0071 30.2002 72.9793C30.2255 72.9515 30.2606 72.9347 30.2981 72.9325C30.3169 72.931 30.3357 72.9334 30.3535 72.9395C30.3713 72.9455 30.3877 72.9552 30.4016 72.9678C30.4156 72.9805 30.4268 72.9958 30.4345 73.013C30.4423 73.0301 30.4465 73.0486 30.4468 73.0674L30.5596 75.0662L31.6389 75.2396L31.6747 74.7166C31.676 74.6867 31.6869 74.6581 31.7056 74.6349C31.7243 74.6116 31.75 74.595 31.7788 74.5873C31.8077 74.5796 31.8382 74.5813 31.866 74.5922C31.8938 74.6031 31.9174 74.6225 31.9334 74.6477C32.2003 75.0094 32.5695 75.2827 32.9934 75.4324C34.1442 75.7875 37.0762 76.2941 37.2222 75.8233C37.3185 75.5094 36.8395 74.9974 36.377 74.4963C35.9144 73.9952 35.4932 73.5437 35.306 73.0482C35.2925 73.0117 35.294 72.9713 35.3103 72.9359C35.3266 72.9005 35.3562 72.8731 35.3927 72.8596C35.4292 72.8461 35.4696 72.8476 35.505 72.8639C35.5403 72.8802 35.5678 72.9098 35.5813 72.9463C35.7492 73.3896 36.1815 73.8548 36.5972 74.3036C37.1478 74.912 37.6489 75.4351 37.503 75.9059C37.4066 76.1867 36.9744 76.2913 36.41 76.2913Z" fill="#231F20"/>
<path d="M35.4048 45.5288C35.3668 45.5288 35.3304 45.5138 35.3035 45.4869C35.2767 45.4601 35.2616 45.4237 35.2616 45.3857L35.1377 27.0307C35.1374 27.0121 35.1407 26.9935 35.1476 26.9762C35.1545 26.9588 35.1648 26.943 35.1779 26.9297C35.1909 26.9163 35.2065 26.9057 35.2237 26.8985C35.241 26.8913 35.2595 26.8876 35.2781 26.8876C35.3154 26.8876 35.3511 26.9024 35.3774 26.9287C35.4037 26.955 35.4185 26.9907 35.4185 27.028L35.5424 45.3857C35.5418 45.423 35.5268 45.4586 35.5007 45.4852C35.4746 45.5118 35.4393 45.5274 35.402 45.5288H35.4048Z" fill="#231F20"/>
<path d="M24.496 35.7293C24.4684 35.7295 24.4413 35.7218 24.4179 35.7072C24.3946 35.6925 24.3758 35.6716 24.3638 35.6467C24.2812 35.4568 22.3045 31.027 22.2192 30.7765C22.1944 30.6967 22.1145 30.4626 23.7912 28.5355C23.3162 28.1871 22.8217 27.8663 22.31 27.5746C22.2851 27.5645 22.2627 27.5492 22.2442 27.5297C22.2257 27.5102 22.2115 27.4871 22.2026 27.4618C22.1366 27.2443 22.8166 26.2366 24.2179 24.4691C24.2423 24.4418 24.2763 24.4248 24.3128 24.4218C24.3494 24.4188 24.3857 24.4299 24.4143 24.4528C24.4429 24.4758 24.4616 24.5088 24.4665 24.5451C24.4715 24.5815 24.4623 24.6183 24.4409 24.6481C23.5627 25.7493 22.6431 27.0047 22.4972 27.3489C22.8744 27.5443 23.8738 28.2436 24.083 28.3923C24.0991 28.4042 24.1126 28.4192 24.1227 28.4365C24.1328 28.4538 24.1392 28.473 24.1415 28.4929C24.1438 28.5128 24.142 28.5329 24.1362 28.5521C24.1304 28.5713 24.1207 28.589 24.1078 28.6043C23.3479 29.4715 22.5468 30.4819 22.4945 30.7049C22.6211 31.0298 24.0665 34.2839 24.6254 35.5284C24.6404 35.5631 24.6414 35.6024 24.628 35.6378C24.6147 35.6733 24.588 35.7021 24.5538 35.7183C24.5355 35.7259 24.5158 35.7297 24.496 35.7293Z" fill="#231F20"/>
<path d="M30.5054 33.9194C30.4854 33.9234 30.4649 33.9234 30.4449 33.9194C30.4106 33.9033 30.3841 33.8743 30.3712 33.8387C30.3583 33.8031 30.36 33.7638 30.376 33.7295L32.0527 30.1036L30.5577 28.6114C30.5438 28.5974 30.5329 28.5806 30.5258 28.5621C30.5187 28.5436 30.5155 28.5239 30.5164 28.5041C30.5195 28.4637 30.5382 28.4261 30.5687 28.3995L32.1958 27.0835L30.2934 24.2285C30.2754 24.1971 30.2699 24.1601 30.2781 24.1248C30.2863 24.0896 30.3075 24.0587 30.3375 24.0385C30.3675 24.0183 30.4041 24.0102 30.4398 24.0158C30.4756 24.0214 30.5079 24.0404 30.5302 24.0688L32.5042 27.0339C32.5244 27.0627 32.5328 27.0982 32.5277 27.133C32.5226 27.1678 32.5043 27.1994 32.4766 27.2211L30.8716 28.5233L32.3225 29.9742C32.3434 29.9945 32.3573 30.0209 32.3622 30.0496C32.3672 30.0783 32.3629 30.1078 32.35 30.1339L30.6238 33.8396C30.6126 33.8619 30.5958 33.881 30.5751 33.895C30.5543 33.909 30.5303 33.9174 30.5054 33.9194Z" fill="#231F20"/>
<path d="M19.8857 43.2995C19.8617 43.2991 19.8383 43.2926 19.8175 43.2805C19.7968 43.2685 19.7795 43.2513 19.7673 43.2307C19.7493 43.1993 19.7443 43.162 19.7536 43.1269C19.7629 43.0919 19.7856 43.0619 19.8169 43.0435L22.5287 41.4302C22.544 41.4208 22.561 41.4145 22.5788 41.4117C22.5966 41.409 22.6147 41.4098 22.6321 41.4142C22.6496 41.4185 22.666 41.4263 22.6804 41.4371C22.6947 41.4479 22.7068 41.4615 22.7159 41.477C22.7254 41.4925 22.7317 41.5098 22.7345 41.5277C22.7373 41.5457 22.7365 41.5641 22.7321 41.5817C22.7278 41.5994 22.7199 41.616 22.7091 41.6307C22.6983 41.6453 22.6847 41.6576 22.6691 41.667L19.9573 43.2803C19.9358 43.2934 19.9109 43.3001 19.8857 43.2995Z" fill="#231F20"/>
<path d="M33.3854 44.0383C33.353 44.0382 33.3217 44.0265 33.2973 44.0052L31.1554 42.1744C31.128 42.1501 31.1113 42.116 31.1087 42.0795C31.1062 42.043 31.118 42.0069 31.1416 41.979C31.1532 41.9652 31.1675 41.9539 31.1835 41.9457C31.1996 41.9376 31.2171 41.9327 31.2351 41.9314C31.253 41.9302 31.2711 41.9325 31.2881 41.9383C31.3051 41.9441 31.3209 41.9532 31.3343 41.9652L33.4762 43.796C33.4977 43.8144 33.513 43.8389 33.5201 43.8663C33.5271 43.8936 33.5256 43.9225 33.5157 43.949C33.5057 43.9754 33.4879 43.9982 33.4646 44.0142C33.4413 44.0301 33.4136 44.0386 33.3854 44.0383Z" fill="#231F20"/>
<path d="M27.3433 47.9537C27.311 47.9541 27.2796 47.943 27.2549 47.9223C27.2301 47.9016 27.2136 47.8727 27.2084 47.8408C27.0542 46.9626 26.8119 41.0875 26.8009 40.8369C26.8002 40.8192 26.8029 40.8015 26.809 40.7849C26.8151 40.7682 26.8245 40.7529 26.8365 40.7399C26.8485 40.7268 26.863 40.7163 26.8791 40.7089C26.8952 40.7014 26.9126 40.6972 26.9303 40.6965C26.9662 40.6957 27.001 40.7087 27.0276 40.7327C27.0542 40.7568 27.0706 40.7901 27.0735 40.8259C27.0735 40.8892 27.3267 46.935 27.4782 47.794C27.4846 47.8298 27.4766 47.8666 27.456 47.8965C27.4354 47.9265 27.4038 47.947 27.368 47.9537H27.3433Z" fill="white"/>
<path d="M18.505 40.1954C18.4863 40.1951 18.4679 40.191 18.4508 40.1834C18.4337 40.1759 18.4183 40.165 18.4055 40.1514C18.3926 40.1378 18.3827 40.1218 18.3761 40.1043C18.3696 40.0868 18.3666 40.0682 18.3673 40.0495L18.5628 32.4124C18.5635 32.3756 18.5786 32.3406 18.6049 32.3149C18.6311 32.2891 18.6664 32.2747 18.7032 32.2747C18.7219 32.2751 18.7403 32.2791 18.7574 32.2867C18.7744 32.2943 18.7898 32.3052 18.8027 32.3188C18.8155 32.3323 18.8255 32.3484 18.832 32.3658C18.8386 32.3833 18.8416 32.402 18.8408 32.4206L18.6454 40.0495C18.6457 40.0683 18.6424 40.087 18.6355 40.1045C18.6287 40.122 18.6184 40.138 18.6054 40.1515C18.5923 40.1651 18.5768 40.1759 18.5595 40.1835C18.5423 40.191 18.5238 40.195 18.505 40.1954Z" fill="#231F20"/>
</svg>
