<svg width="64" height="88" viewBox="0 0 64 88" fill="none" xmlns="http://www.w3.org/2000/svg">
<path d="M26.7625 18.1501C26.7378 18.1503 26.7134 18.1439 26.6919 18.1317C26.6704 18.1194 26.6525 18.1016 26.6402 18.0801C26.6301 18.0641 26.6232 18.0462 26.6201 18.0276C26.617 18.0089 26.6176 17.9898 26.622 17.9713C26.6263 17.9529 26.6343 17.9355 26.6454 17.9202C26.6565 17.9048 26.6706 17.8919 26.6868 17.882L31.931 14.6947C31.9642 14.6746 32.0041 14.6685 32.0418 14.6778C32.0795 14.6871 32.1119 14.711 32.132 14.7442C32.1521 14.7775 32.1582 14.8173 32.1489 14.855C32.1396 14.8927 32.1157 14.9252 32.0825 14.9453L26.8383 18.1297C26.8155 18.1436 26.7892 18.1506 26.7625 18.1501Z" fill="#D1D3D4"/>
<path d="M38.0319 46.3675C37.9342 46.6927 37.8014 47.0063 37.6356 47.3027C37.4529 47.6418 37.202 47.9394 36.8985 48.1767C36.4032 48.5496 35.5088 48.7099 35.1504 48.0573C35.0427 47.8315 34.986 47.5849 34.9844 47.3347C34.9844 45.6333 35.3806 43.8386 35.5671 42.1226C35.5696 42.0506 35.5875 41.9801 35.6195 41.9157C35.6694 41.8465 35.7354 41.7905 35.8118 41.7525L37.3064 40.8785C37.6298 42.7752 38.6087 44.4242 38.0319 46.3675Z" fill="white"/>
<path d="M35.9547 48.6666C35.8647 48.667 35.7749 48.6582 35.6867 48.6404C35.5459 48.6118 35.4132 48.5527 35.2979 48.4671C35.1826 48.3815 35.0875 48.2715 35.0195 48.1451C34.9009 47.8996 34.8373 47.6311 34.833 47.3585C34.8618 46.2255 34.9718 45.0961 35.1622 43.9789C35.2496 43.367 35.3429 42.7348 35.404 42.123C35.4021 42.0198 35.4314 41.9184 35.4881 41.8321C35.5448 41.7458 35.6262 41.6786 35.7216 41.6394L37.2133 40.7653C37.234 40.7526 37.2576 40.7451 37.2819 40.7436C37.3062 40.7421 37.3304 40.7466 37.3526 40.7566C37.3747 40.7667 37.3941 40.7821 37.4089 40.8014C37.4237 40.8206 37.4336 40.8433 37.4376 40.8673C37.5479 41.4202 37.688 41.9668 37.8572 42.5046C38.2359 43.7953 38.5914 45.0131 38.1747 46.4116C38.0752 46.7482 37.9383 47.0726 37.7669 47.3789C37.5752 47.742 37.3103 48.0614 36.989 48.317C36.6892 48.5387 36.3275 48.6609 35.9547 48.6666ZM37.1842 41.1266L35.8731 41.8987C35.8199 41.9251 35.7724 41.9617 35.7333 42.0064C35.7136 42.0535 35.7037 42.104 35.7041 42.155C35.64 42.7698 35.5497 43.4049 35.4594 44.0197C35.2724 45.1206 35.1634 46.2334 35.1331 47.3497C35.1362 47.5756 35.1879 47.7982 35.2846 48.0024C35.3315 48.091 35.3977 48.168 35.4784 48.2275C35.5591 48.287 35.6522 48.3276 35.7507 48.3461C35.9364 48.3741 36.1258 48.3643 36.3075 48.3172C36.4893 48.2702 36.6596 48.1869 36.8083 48.0723C37.0979 47.8434 37.3353 47.5554 37.5047 47.2274C37.6656 46.9417 37.7937 46.6387 37.8863 46.3242C38.2796 45.0102 37.9329 43.8332 37.5687 42.5862C37.4289 42.1142 37.292 41.6306 37.1842 41.1266Z" fill="#231F20"/>
<path d="M38.1116 48.6348H33.214C33.1754 48.6348 33.1383 48.6194 33.111 48.5921C33.0837 48.5648 33.0684 48.5277 33.0684 48.4891V47.6151C33.0684 47.2006 33.2328 46.8031 33.5256 46.5098C33.8183 46.2165 34.2155 46.0513 34.63 46.0505H36.7102C37.1246 46.0513 37.5218 46.2165 37.8146 46.5098C38.1074 46.8031 38.2718 47.2006 38.2718 47.6151V48.4891C38.2719 48.5095 38.2677 48.5297 38.2595 48.5484C38.2513 48.5671 38.2392 48.5839 38.2241 48.5976C38.209 48.6114 38.1912 48.6218 38.1718 48.6282C38.1524 48.6346 38.1319 48.6368 38.1116 48.6348ZM33.3597 48.3434H37.963V47.6121C37.963 47.2758 37.8295 46.9531 37.592 46.715C37.3544 46.4768 37.032 46.3427 36.6956 46.3419H34.6271C34.2907 46.3427 33.9683 46.4768 33.7307 46.715C33.4931 46.9531 33.3597 47.2758 33.3597 47.6121V48.3434Z" fill="white"/>
<path d="M36.7086 46.0441C37.123 46.0449 37.5202 46.2101 37.813 46.5034C38.1057 46.7967 38.2702 47.1942 38.2702 47.6087V48.4827C38.2702 48.5213 38.2548 48.5584 38.2275 48.5857C38.2002 48.613 38.1631 48.6284 38.1245 48.6284H33.2124C33.1738 48.6284 33.1367 48.613 33.1094 48.5857C33.0821 48.5584 33.0667 48.5213 33.0667 48.4827V47.6087C33.0667 47.1942 33.2312 46.7967 33.5239 46.5034C33.8167 46.2101 34.2139 46.0449 34.6284 46.0441H36.7086ZM33.3727 48.3399H37.9759V47.6087C37.9759 47.2723 37.8425 46.9496 37.6049 46.7115C37.3673 46.4733 37.045 46.3392 36.7086 46.3384H34.64C34.3036 46.3392 33.9813 46.4733 33.7437 46.7115C33.5061 46.9496 33.3727 47.2723 33.3727 47.6087V48.3399ZM36.7086 45.744H34.64C34.1457 45.7448 33.6719 45.9415 33.3224 46.291C32.9729 46.6405 32.7762 47.1144 32.7754 47.6087V48.4827C32.7762 48.6012 32.8238 48.7146 32.9078 48.7981C32.9919 48.8816 33.1056 48.9285 33.2241 48.9285H38.1245C38.243 48.9285 38.3567 48.8816 38.4407 48.7981C38.5248 48.7146 38.5724 48.6012 38.5732 48.4827V47.6087C38.5724 47.1144 38.3757 46.6405 38.0262 46.291C37.6767 45.9415 37.2029 45.7448 36.7086 45.744ZM33.6727 48.0399V47.6087C33.6727 47.3521 33.7746 47.1061 33.956 46.9247C34.1374 46.7433 34.3835 46.6414 34.64 46.6414H36.7086C36.9651 46.6414 37.2111 46.7433 37.3925 46.9247C37.5739 47.1061 37.6758 47.3521 37.6758 47.6087V48.0399H33.6727Z" fill="#231F20"/>
<path d="M37.4862 45.8581C37.2159 46.5559 36.7112 47.1379 36.0586 47.5042C36.0214 47.5327 35.9779 47.5519 35.9317 47.56C35.8856 47.5681 35.8381 47.565 35.7935 47.5508C35.6711 47.4838 35.7002 47.3032 35.7498 47.175C35.9256 46.7168 36.1659 46.2861 36.4636 45.896C36.4636 45.896 35.6274 45.1327 36.0848 44.5237" fill="white"/>
<path d="M35.8702 47.7044C35.8194 47.7056 35.7692 47.6936 35.7245 47.6694C35.5555 47.5791 35.5118 47.3781 35.6109 47.1071C35.7764 46.6775 35.9967 46.2711 36.2664 45.898C36.0421 45.6533 35.5322 44.9978 35.9751 44.4209C35.999 44.3892 36.0346 44.3684 36.0739 44.3629C36.1133 44.3574 36.1532 44.3678 36.1848 44.3918C36.2165 44.4157 36.2374 44.4513 36.2429 44.4906C36.2483 44.53 36.2379 44.5699 36.214 44.6016C35.8469 45.0939 36.5665 45.7669 36.5723 45.7669C36.6007 45.7922 36.6185 45.8272 36.6223 45.8649C36.626 45.9027 36.6155 45.9405 36.5927 45.9709C36.3047 46.3491 36.0713 46.7659 35.8993 47.2091C35.8695 47.2675 35.8603 47.3342 35.8731 47.3985C35.8731 47.3985 35.8993 47.3985 35.9955 47.3548C36.6162 47.0057 37.0962 46.4516 37.3531 45.7873C37.3675 45.7499 37.3961 45.7197 37.4327 45.7033C37.4693 45.6869 37.5109 45.6857 37.5484 45.6999C37.5668 45.7067 37.5837 45.7171 37.5981 45.7305C37.6124 45.7439 37.624 45.76 37.6322 45.7778C37.6403 45.7957 37.6448 45.815 37.6454 45.8347C37.646 45.8543 37.6427 45.8739 37.6358 45.8922C37.3525 46.6221 36.8255 47.2315 36.1441 47.617C36.0622 47.6701 35.9677 47.7003 35.8702 47.7044Z" fill="#231F20"/>
<path d="M43.5339 48.1509H27.7925C27.0684 48.1509 26.4814 48.7379 26.4814 49.462V58.7122C26.4814 59.4363 27.0684 60.0233 27.7925 60.0233H43.5339C44.258 60.0233 44.845 59.4363 44.845 58.7122V49.462C44.845 48.7379 44.258 48.1509 43.5339 48.1509Z" fill="white"/>
<path d="M43.5312 60.1737H27.7985C27.4122 60.1737 27.0417 60.0202 26.7685 59.747C26.4953 59.4738 26.3418 59.1033 26.3418 58.717V49.4522C26.3418 49.0658 26.4953 48.6953 26.7685 48.4221C27.0417 48.1489 27.4122 47.9954 27.7985 47.9954H43.5312C43.9176 47.9954 44.2881 48.1489 44.5613 48.4221C44.8345 48.6953 44.9879 49.0658 44.9879 49.4522V58.6995C44.9903 58.8922 44.9543 59.0836 44.8821 59.2623C44.8099 59.4411 44.703 59.6037 44.5675 59.7409C44.432 59.878 44.2706 59.9869 44.0928 60.0612C43.9149 60.1355 43.724 60.1737 43.5312 60.1737ZM27.7985 48.3013C27.4894 48.3013 27.193 48.4241 26.9745 48.6427C26.7559 48.8612 26.6331 49.1576 26.6331 49.4667V58.714C26.6331 59.0231 26.7559 59.3195 26.9745 59.5381C27.193 59.7566 27.4894 59.8794 27.7985 59.8794H43.5312C43.8403 59.8794 44.1367 59.7566 44.3553 59.5381C44.5738 59.3195 44.6966 59.0231 44.6966 58.714V49.4522C44.6966 49.1431 44.5738 48.8467 44.3553 48.6281C44.1367 48.4095 43.8403 48.2868 43.5312 48.2868L27.7985 48.3013Z" fill="#231F20"/>
<path d="M37.149 23.1673C37.149 23.1673 37.7812 39.3574 38.7484 42.7516L34.9609 44.2083C34.9609 44.2083 34.0869 26.8062 34.8124 24.9358C35.5378 23.0653 37.149 23.1673 37.149 23.1673Z" fill="#00B87C"/>
<path d="M22.6338 42.5712L21.7598 71.5659C21.7598 71.5659 22.3425 72.2826 24.2508 72.2826C26.1591 72.2826 26.803 71.3183 26.803 71.3183L29.8679 49.6829C29.8679 49.6829 33.2475 68.0902 33.4864 70.9774C33.4864 70.9774 36.3999 71.8981 38.0052 70.6161C38.0052 70.6161 36.3212 53.3131 36.2775 48.4272C36.2253 45.1824 36.0085 41.9424 35.6278 38.7196H23.2748L22.6338 42.5712Z" fill="#231F20"/>
<path d="M34.4437 40.167L23.2764 41.0411C23.6143 37.945 23.9805 34.8529 24.3747 31.7646C24.7448 28.8774 24.7302 25.5269 26.4812 23.0534C27.2591 21.9521 28.7653 20.5828 30.1958 20.9149C31.5768 21.2354 33.1821 22.3541 34.4437 23.0446V40.167Z" fill="white"/>
<path d="M23.2743 41.1994C23.2534 41.1991 23.2327 41.1945 23.2137 41.1858C23.1946 41.1771 23.1776 41.1646 23.1636 41.149C23.1496 41.1334 23.1391 41.115 23.1325 41.0951C23.126 41.0752 23.1237 41.0542 23.1257 41.0334C23.4695 37.8752 23.8366 34.7519 24.2212 31.7569C24.2911 31.2121 24.3464 30.6644 24.4047 30.0846C24.6553 27.5936 24.9117 25.0152 26.3538 22.9757C27.2279 21.7492 28.7574 20.4352 30.2258 20.779C31.2834 21.0237 32.4633 21.7229 33.5064 22.3406C33.8618 22.5504 34.1969 22.7485 34.5115 22.9233C34.5355 22.9357 34.5555 22.9545 34.5694 22.9777C34.5833 23.0008 34.5905 23.0274 34.5902 23.0544V40.1681C34.591 40.2057 34.5772 40.2423 34.5517 40.27C34.5261 40.2977 34.4909 40.3144 34.4532 40.3167L23.2859 41.1907L23.2743 41.1994ZM29.7451 21.0237C28.4632 21.0237 27.1929 22.3115 26.6015 23.1505C25.203 25.1259 24.9495 27.6606 24.7048 30.1137C24.6465 30.6964 24.5912 31.2471 24.5213 31.7948C24.1425 34.7316 23.7812 37.7907 23.4433 40.8848L34.2901 40.0282V23.1447C33.9987 22.9786 33.6812 22.7951 33.3549 22.5999C32.3293 21.9939 31.1698 21.3063 30.1501 21.0703C30.0173 21.0395 29.8814 21.0239 29.7451 21.0237Z" fill="#231F20"/>
<path d="M31.12 23.0187L30.2197 23.648L30.8199 23.9772L29.873 34.0112L30.8753 35.3252L32.0174 33.6004L31.4143 24.0588L31.8979 23.5402L31.12 23.0187Z" fill="#231F20"/>
<path d="M32.7236 21.484C32.7236 21.484 33.621 41.7617 33.5394 43.0436L37.1026 42.7522C37.1026 42.7522 36.2664 33.5836 36.5869 30.2972C36.5869 30.2972 38.2709 24.7616 37.1492 23.1621C36.0275 21.5626 32.7236 21.484 32.7236 21.484Z" fill="#00B87C"/>
<path d="M28.4058 20.6096C28.4058 20.6096 23.9598 21.5623 20.9123 23.8144C17.8648 26.0665 13.9375 31.774 13.9375 33.1666C13.9375 34.5592 20.4316 40.1589 20.4316 40.1589L22.1972 37.4756C22.1972 37.4756 18.5874 33.1899 19.0681 31.9867C19.5488 30.7834 22.7565 28.3419 22.7565 28.3419C22.7565 28.3419 23.1586 32.0653 22.9984 33.4288C22.8381 34.7923 21.2503 42.4926 21.4426 44.5786L24.6008 43.824C24.6008 43.824 24.8426 40.459 25.9643 38.0263C27.086 35.5935 28.2105 33.592 28.8573 29.7433C29.5041 25.8946 28.4058 20.6096 28.4058 20.6096Z" fill="#00B87C"/>
<path d="M27.825 16.53C27.6141 15.8764 27.4457 15.2097 27.321 14.5343C27.2001 13.8529 27.3162 13.1506 27.6502 12.5444C27.7846 12.2989 27.9997 12.1074 28.2591 12.0025C28.3872 11.952 28.5276 11.942 28.6614 11.9738C28.7953 12.0056 28.9162 12.0776 29.0079 12.1802C29.1878 11.9214 29.4317 11.7136 29.7159 11.5771C30.3804 11.2057 31.1344 11.0242 31.8951 11.0527C32.5302 11.0693 33.1402 11.3038 33.6228 11.717C34.0054 12.1433 34.2466 12.6776 34.3133 13.2465C34.4367 13.7617 34.4604 14.2957 34.3832 14.8198C34.1414 16.1309 32.944 16.5329 31.8019 16.8272C31.2883 16.9807 30.7524 17.0457 30.217 17.0195C29.9495 17.0034 29.6879 16.9344 29.4473 16.8164C29.2067 16.6983 28.992 16.5337 28.8156 16.3319" fill="white"/>
<path d="M30.4963 17.1717C30.4031 17.1717 30.3069 17.1717 30.2049 17.1717C29.9173 17.1545 29.636 17.0802 29.3774 16.9531C29.1188 16.8261 28.8881 16.6488 28.6987 16.4316C28.6736 16.4003 28.662 16.3603 28.6664 16.3205C28.6707 16.2806 28.6907 16.2441 28.722 16.219C28.7373 16.2066 28.7548 16.1974 28.7737 16.1919C28.7925 16.1864 28.8122 16.1847 28.8317 16.1869C28.8512 16.1891 28.8701 16.1951 28.8873 16.2046C28.9045 16.2141 28.9196 16.2269 28.9318 16.2423C29.096 16.4279 29.2954 16.5791 29.5184 16.6871C29.7415 16.7951 29.9837 16.8578 30.2312 16.8716C30.7489 16.8974 31.2672 16.8343 31.7636 16.6851C32.8912 16.3938 34.0099 16.0063 34.2372 14.7972C34.3073 14.2902 34.2836 13.7747 34.1673 13.2764C34.106 12.736 33.8802 12.2275 33.5205 11.8196C33.062 11.4327 32.4857 11.2128 31.886 11.1961C31.1522 11.1694 30.4253 11.3458 29.7854 11.706C29.5232 11.8303 29.2982 12.0212 29.1328 12.2596C29.1188 12.2794 29.1003 12.2956 29.0787 12.3068C29.0572 12.3179 29.0332 12.3238 29.009 12.3238C28.9847 12.3238 28.9608 12.3179 28.9392 12.3068C28.9177 12.2956 28.8991 12.2794 28.8851 12.2596C28.8127 12.1814 28.7182 12.127 28.6142 12.1036C28.5101 12.0802 28.4014 12.0888 28.3025 12.1285C28.0798 12.2242 27.8953 12.3913 27.778 12.6033C27.4693 13.1824 27.3666 13.8491 27.4867 14.4942C27.5648 14.9882 27.6817 15.4753 27.8363 15.9509C27.8858 16.1257 27.9383 16.2976 27.9849 16.4724C27.9914 16.5097 27.9838 16.548 27.9635 16.58C27.9432 16.6119 27.9117 16.635 27.8752 16.6449C27.8386 16.6548 27.7998 16.6506 27.7661 16.6332C27.7325 16.6159 27.7066 16.5866 27.6935 16.5511C27.6469 16.3792 27.5974 16.2073 27.5479 16.0354C27.3899 15.5461 27.2691 15.0455 27.1866 14.5379C27.0593 13.8247 27.1774 13.0893 27.5216 12.4518C27.6765 12.1862 27.9168 11.9808 28.2034 11.8692C28.3311 11.8215 28.4683 11.805 28.6037 11.8213C28.739 11.8375 28.8685 11.8859 28.9813 11.9624C29.1685 11.748 29.3962 11.5727 29.6514 11.4467C30.3405 11.0605 31.1228 10.8719 31.9122 10.9019C32.583 10.9212 33.2267 11.1701 33.7361 11.6069C34.1394 12.0565 34.3956 12.6187 34.4703 13.2181C34.5959 13.7527 34.6196 14.3062 34.5402 14.8496C34.2838 16.2335 33.0834 16.6589 31.8481 16.9735C31.4077 17.0962 30.9534 17.1628 30.4963 17.1717Z" fill="#231F20"/>
<path d="M32.5045 19.3131L32.723 21.7313C32.723 21.7313 32.4696 23.3104 30.873 23.019C30.4022 22.9284 29.9575 22.7341 29.571 22.4505C29.1845 22.1668 28.866 21.8007 28.6384 21.3787L28.4053 16.9386C28.4053 16.9386 29.5357 16.2511 29.0491 13.7338C30.3673 14.2138 31.7904 14.3296 33.1688 14.0689C33.1688 14.0689 34.0428 16.7755 33.9175 18.005C33.7923 19.2344 32.5045 19.3131 32.5045 19.3131Z" fill="white"/>
<path d="M31.2512 23.2049C31.1154 23.2034 30.9799 23.1907 30.8462 23.167C30.3533 23.0724 29.888 22.8683 29.4846 22.5698C29.0812 22.2713 28.75 21.8859 28.5154 21.4422C28.5115 21.424 28.5115 21.4051 28.5154 21.3869L28.2591 16.9467C28.2574 16.9194 28.2633 16.8922 28.2762 16.868C28.289 16.8439 28.3083 16.8237 28.3319 16.8098C28.3319 16.8098 29.3633 16.1281 28.9146 13.7652C28.9088 13.7385 28.9106 13.7106 28.9199 13.6849C28.9291 13.6591 28.9455 13.6365 28.967 13.6196C28.9884 13.6022 29.0141 13.5911 29.0414 13.5875C29.0686 13.5839 29.0963 13.588 29.1214 13.5992C30.4133 14.0616 31.8046 14.1732 33.1537 13.9226C33.1898 13.9164 33.2269 13.9233 33.2583 13.942C33.2898 13.9607 33.3137 13.9899 33.3256 14.0245C33.3605 14.1382 34.1996 16.7749 34.0831 18.0218C34.0447 18.3848 33.8833 18.7237 33.6258 18.9823C33.3682 19.241 33.0299 19.4037 32.6671 19.4436L32.874 21.7219C32.8754 21.7335 32.8754 21.7453 32.874 21.7569C32.785 22.2189 32.5314 22.633 32.1602 22.9223C31.8943 23.1095 31.5763 23.2083 31.2512 23.2049ZM28.7864 21.3373C29.0065 21.731 29.3098 22.0721 29.675 22.3367C30.0403 22.6014 30.4589 22.7833 30.9016 22.8698C31.0843 22.9146 31.2742 22.9214 31.4596 22.8898C31.645 22.8582 31.822 22.789 31.9795 22.6863C32.281 22.4444 32.4873 22.1039 32.5622 21.7248L32.3466 19.3241C32.3446 19.3043 32.3466 19.2842 32.3526 19.2651C32.3586 19.2461 32.3685 19.2285 32.3816 19.2134C32.4085 19.1831 32.4461 19.1643 32.4865 19.161C32.5331 19.161 33.6519 19.0765 33.7597 17.9956C33.8616 16.9584 33.2207 14.7908 33.0546 14.246C31.7769 14.4615 30.4661 14.3676 29.2322 13.9721C29.5555 16.0115 28.801 16.8098 28.5504 17.0138L28.7864 21.3373Z" fill="#231F20"/>
<path d="M32.6305 20.5777C32.6305 20.5777 32.01 20.7379 31.2787 20.1115C30.5474 19.4851 30.5853 19.0918 30.5853 19.0918C31.1854 19.3828 31.8666 19.4609 32.5169 19.3132L32.6305 20.5777Z" fill="#231F20"/>
<path d="M32.4267 20.7404C31.9598 20.7238 31.5147 20.5385 31.1739 20.2189C30.4077 19.5604 30.4252 19.1234 30.431 19.0768C30.4335 19.0532 30.4417 19.0305 30.455 19.0107C30.4683 18.991 30.4862 18.9748 30.5072 18.9636C30.5282 18.9524 30.5516 18.9465 30.5754 18.9464C30.5992 18.9464 30.6226 18.9521 30.6437 18.9632C31.2131 19.2352 31.8571 19.3091 32.4733 19.173C32.4935 19.1676 32.5147 19.1666 32.5353 19.1701C32.5559 19.1737 32.5755 19.1816 32.5928 19.1934C32.6097 19.2057 32.6238 19.2213 32.6343 19.2394C32.6449 19.2574 32.6515 19.2775 32.654 19.2982L32.7676 20.5656C32.7701 20.5994 32.7607 20.6331 32.741 20.6608C32.7213 20.6884 32.6926 20.7084 32.6598 20.7171C32.5834 20.7345 32.5051 20.7424 32.4267 20.7404ZM30.7981 19.3449C30.9415 19.5976 31.1324 19.8202 31.3604 20.0004C31.6574 20.2845 32.0507 20.4458 32.4617 20.452L32.3772 19.4905C31.8471 19.58 31.3029 19.5298 30.7981 19.3449Z" fill="#231F20"/>
<path d="M31.2607 15.735C31.2607 15.735 32.0764 17.0752 31.8608 17.2908C31.6452 17.5064 31.0713 17.3345 31.0713 17.3345" fill="white"/>
<path d="M31.4991 17.5477C31.3392 17.5451 31.1804 17.5206 31.0271 17.4748C30.9903 17.4628 30.9597 17.4369 30.9418 17.4026C30.9238 17.3683 30.9199 17.3284 30.931 17.2913C30.9424 17.2547 30.9678 17.2242 31.0016 17.2062C31.0354 17.1882 31.0749 17.1842 31.1116 17.1951C31.3155 17.2563 31.6506 17.2942 31.7555 17.1951C31.7934 17.0786 31.5078 16.4289 31.1378 15.8171C31.1277 15.801 31.1209 15.7832 31.1178 15.7645C31.1147 15.7458 31.1153 15.7267 31.1196 15.7083C31.124 15.6898 31.1319 15.6724 31.1431 15.6571C31.1542 15.6418 31.1683 15.6288 31.1844 15.619C31.2009 15.6089 31.2191 15.6022 31.2381 15.5993C31.2572 15.5963 31.2766 15.5972 31.2953 15.6018C31.314 15.6064 31.3316 15.6147 31.3471 15.6261C31.3625 15.6376 31.3756 15.652 31.3855 15.6685C31.7846 16.3211 32.2071 17.1544 31.9682 17.402C31.837 17.5103 31.6685 17.5627 31.4991 17.5477Z" fill="#231F20"/>
<path d="M31.3398 18.4301H31.3165C31.0887 18.4192 30.8655 18.3619 30.6606 18.2617C30.4557 18.1615 30.2734 18.0205 30.1249 17.8474C30.1113 17.8341 30.1005 17.8182 30.0932 17.8007C30.0858 17.7832 30.082 17.7644 30.082 17.7454C30.082 17.7264 30.0858 17.7076 30.0932 17.6901C30.1005 17.6726 30.1113 17.6567 30.1249 17.6434C30.1384 17.6298 30.1545 17.6189 30.1723 17.6116C30.19 17.6042 30.2091 17.6004 30.2283 17.6004C30.2475 17.6004 30.2666 17.6042 30.2843 17.6116C30.3021 17.6189 30.3182 17.6298 30.3317 17.6434C30.4542 17.786 30.6044 17.9022 30.7732 17.9849C30.942 18.0675 31.1258 18.1149 31.3136 18.1242C31.7502 18.1027 32.1643 17.9236 32.479 17.6201C32.5062 17.5934 32.5428 17.5785 32.5809 17.5785C32.6191 17.5785 32.6557 17.5934 32.6829 17.6201C32.6966 17.6337 32.7074 17.6498 32.7148 17.6675C32.7222 17.6853 32.726 17.7043 32.726 17.7236C32.726 17.7428 32.7222 17.7618 32.7148 17.7796C32.7074 17.7973 32.6966 17.8134 32.6829 17.827C32.3203 18.18 31.8446 18.3936 31.3398 18.4301Z" fill="#231F20"/>
<path d="M30.4002 15.5138C30.4038 15.3175 30.3376 15.1571 30.2524 15.1556C30.1671 15.154 30.0951 15.3118 30.0915 15.5081C30.0879 15.7044 30.1541 15.8648 30.2393 15.8663C30.3246 15.8679 30.3967 15.71 30.4002 15.5138Z" fill="#231F20"/>
<path d="M32.6395 15.3921C32.6431 15.1958 32.5769 15.0354 32.4916 15.0339C32.4064 15.0323 32.3343 15.1901 32.3307 15.3864C32.3271 15.5827 32.3933 15.7431 32.4786 15.7446C32.5639 15.7462 32.6359 15.5883 32.6395 15.3921Z" fill="#231F20"/>
<path d="M29.385 16.2396C29.2307 16.0091 29.0327 15.8111 28.8023 15.6569C28.6841 15.5626 28.5395 15.5076 28.3886 15.4995C28.2658 15.5055 28.1474 15.547 28.0477 15.619C27.8976 15.7171 27.7697 15.8455 27.6724 15.9961C27.575 16.1466 27.5103 16.3159 27.4825 16.493C27.4535 16.6579 27.4675 16.8275 27.5233 16.9854C27.6215 17.235 27.8053 17.4416 28.0419 17.5681C28.2745 17.6932 28.5209 17.7909 28.776 17.8594" fill="white"/>
<path d="M28.7865 17.9867C28.7721 17.9896 28.7572 17.9896 28.7428 17.9867C28.474 17.9204 28.2138 17.8226 27.9678 17.6954C27.7042 17.5542 27.4982 17.3254 27.3851 17.0486C27.3198 16.8667 27.3028 16.671 27.3356 16.4805C27.3639 16.2789 27.4349 16.0858 27.5439 15.9139C27.653 15.7421 27.7975 15.5955 27.9678 15.4841C28.092 15.3964 28.2385 15.3459 28.3903 15.3384C28.5695 15.3494 28.7411 15.4144 28.8827 15.5249C29.1261 15.6935 29.334 15.9083 29.4945 16.1571C29.5052 16.1735 29.5126 16.1919 29.5162 16.2112C29.5198 16.2305 29.5195 16.2504 29.5155 16.2696C29.5114 16.2888 29.5036 16.307 29.4925 16.3232C29.4814 16.3394 29.4672 16.3532 29.4508 16.3639C29.4343 16.3747 29.4159 16.382 29.3966 16.3856C29.3773 16.3892 29.3575 16.389 29.3383 16.3849C29.3191 16.3809 29.3009 16.3731 29.2847 16.362C29.2685 16.3509 29.2546 16.3367 29.2439 16.3202C29.1066 16.107 28.9307 15.9213 28.7253 15.7725C28.6346 15.6944 28.5213 15.6474 28.4019 15.6385C28.3074 15.646 28.2167 15.6792 28.1397 15.7346C28.0073 15.822 27.8946 15.9361 27.8088 16.0695C27.723 16.203 27.666 16.3529 27.6415 16.5096C27.6168 16.6501 27.6289 16.7947 27.6765 16.9292C27.7643 17.1406 27.9243 17.3141 28.1281 17.4186C28.3541 17.5391 28.5937 17.632 28.8419 17.6954C28.8609 17.7007 28.8787 17.7099 28.8942 17.7222C28.9097 17.7345 28.9226 17.7498 28.9321 17.7672C28.9416 17.7845 28.9475 17.8036 28.9495 17.8233C28.9516 17.843 28.9496 17.8629 28.9438 17.8819C28.9344 17.9152 28.9133 17.9441 28.8845 17.9633C28.8557 17.9825 28.8209 17.9908 28.7865 17.9867Z" fill="#231F20"/>
<path d="M20.7363 39.7049C20.7363 39.7049 22.0707 40.608 22.5922 40.7479C23.1137 40.8877 24.9521 39.6378 25.3862 39.5825C25.8203 39.5271 27.0818 40.0457 27.2625 39.8068C27.4431 39.5679 26.7614 39.0639 26.0592 38.8833C26.0592 38.8833 27.5655 39.3465 27.8073 39.3057C28.0491 39.2649 28.39 39.1455 28.0986 38.7638C27.8073 38.3821 26.5545 38.1024 26.5545 38.1024C26.5545 38.1024 28.4016 38.6851 28.4803 38.3938C28.559 38.1024 27.819 37.4731 26.9158 37.3508C26.9158 37.3508 28.6114 37.8519 28.4861 37.3508C28.3609 36.8497 26.336 36.4767 25.3338 36.7914C24.3315 37.106 22.8865 37.9947 22.6854 37.9568C22.4844 37.9189 22.1901 37.479 22.1901 37.479L20.7363 39.7049Z" fill="white"/>
<path d="M22.6878 40.91C22.6435 40.9107 22.5993 40.9048 22.5567 40.8925C22.0177 40.7468 20.7096 39.8641 20.6542 39.8262C20.6377 39.8156 20.6234 39.8018 20.6122 39.7856C20.6011 39.7694 20.5932 39.7511 20.5891 39.7319C20.5851 39.7127 20.5849 39.6928 20.5885 39.6735C20.5922 39.6542 20.5997 39.6358 20.6105 39.6193L22.0672 37.4022C22.0809 37.3815 22.0995 37.3645 22.1214 37.3527C22.1432 37.341 22.1677 37.335 22.1925 37.3352C22.2168 37.336 22.2406 37.3422 22.2623 37.3533C22.2839 37.3644 22.3029 37.3801 22.3178 37.3993C22.4431 37.5828 22.6383 37.7984 22.7228 37.813C23.0071 37.7041 23.2836 37.5756 23.5502 37.4284C24.1133 37.1288 24.6975 36.8708 25.2983 36.6563C26.3002 36.4307 27.348 36.5328 28.2875 36.9477C28.3695 36.9831 28.4434 37.035 28.5045 37.1002C28.5656 37.1653 28.6128 37.2423 28.6429 37.3264C28.658 37.3773 28.6589 37.4313 28.6456 37.4827C28.6322 37.534 28.6051 37.5807 28.5672 37.6178C28.4628 37.6948 28.3356 37.7348 28.2059 37.7314C28.3408 37.8305 28.458 37.9517 28.5526 38.0898C28.5923 38.1402 28.6207 38.1985 28.6358 38.2609C28.6508 38.3232 28.6523 38.3881 28.64 38.451C28.6313 38.4811 28.6164 38.5091 28.5964 38.5331C28.5763 38.5572 28.5515 38.5769 28.5235 38.5909C28.419 38.6322 28.3057 38.6463 28.1942 38.6317L28.235 38.6812C28.2934 38.7438 28.3341 38.8207 28.3531 38.9041C28.372 38.9875 28.3685 39.0745 28.3428 39.1561C28.2817 39.3134 28.1098 39.4154 27.8388 39.462C27.6515 39.4619 27.4652 39.4355 27.2853 39.3833C27.3493 39.4468 27.399 39.5233 27.4309 39.6077C27.4488 39.6557 27.4547 39.7073 27.4481 39.7581C27.4415 39.8088 27.4226 39.8572 27.393 39.899C27.2357 40.1059 26.8482 40.0214 26.2277 39.8699C25.9635 39.7903 25.6904 39.7443 25.4148 39.733C25.0871 39.8486 24.7718 39.997 24.4738 40.1758C23.6667 40.6012 23.0578 40.91 22.6878 40.91ZM20.9397 39.6601C21.4692 40.0311 22.0354 40.3464 22.6295 40.6012C22.8859 40.6711 23.7454 40.2137 24.3135 39.9107C24.6408 39.7064 24.9934 39.5457 25.3624 39.4329C25.6757 39.4337 25.987 39.4818 26.2859 39.5756C26.5676 39.669 26.8633 39.7134 27.16 39.7067C27.16 39.6164 26.79 39.2843 26.2393 39.092L26.0237 39.0279C25.9866 39.0152 25.9557 38.9889 25.9373 38.9543C25.9189 38.9196 25.9144 38.8793 25.9247 38.8414C25.9349 38.8037 25.9596 38.7715 25.9934 38.7519C26.0273 38.7323 26.0674 38.7268 26.1053 38.7366C26.1753 38.7543 26.2444 38.7757 26.3122 38.8007C26.7937 38.9602 27.2878 39.0791 27.7893 39.1561C27.9699 39.127 28.0515 39.0716 28.0806 39.0366C28.1098 39.0017 28.0806 38.9463 28.0078 38.8531C27.7959 38.6638 27.5424 38.527 27.2678 38.454C26.9764 38.3811 26.7171 38.2995 26.5394 38.2442C26.5027 38.2327 26.472 38.2075 26.4535 38.1738C26.435 38.1401 26.4303 38.1006 26.4403 38.0636C26.45 38.0259 26.474 37.9936 26.5072 37.9734C26.5404 37.9533 26.5802 37.9469 26.6181 37.9558C26.8603 38.0104 27.0995 38.0775 27.3348 38.1568C27.6662 38.2599 28.0104 38.3168 28.3574 38.3258C28.3458 38.29 28.328 38.2565 28.305 38.2267C28.0759 37.9616 27.7817 37.7608 27.4513 37.644C27.2357 37.5974 27.0376 37.545 26.9036 37.5042C26.871 37.4906 26.8442 37.4661 26.8277 37.4349C26.8113 37.4037 26.8063 37.3677 26.8135 37.3332C26.8208 37.2986 26.8398 37.2677 26.8675 37.2457C26.8951 37.2238 26.9295 37.2121 26.9648 37.2128C27.1548 37.2391 27.3414 37.286 27.5212 37.3527C27.7981 37.4411 28.093 37.4572 28.3778 37.3993C28.3252 37.3161 28.2492 37.2502 28.1593 37.2099C27.2922 36.8344 26.3289 36.7416 25.4061 36.9448C24.8237 37.1559 24.2571 37.408 23.7104 37.6994C23.0549 38.0286 22.8364 38.1393 22.6849 38.1102C22.4992 38.0378 22.339 37.9121 22.2246 37.7489L20.9397 39.6601Z" fill="#231F20"/>
<path d="M22.6257 71.4588C22.5707 72.4155 22.3824 73.3598 22.0663 74.2644C21.5827 75.4677 21.6235 76.1087 22.0663 76.5107C22.5092 76.9128 24.7904 76.9506 25.8742 76.2194C26.958 75.4881 25.6004 73.5973 25.5829 72.8514C25.5972 72.2204 25.6507 71.5908 25.7431 70.9664L22.6257 71.4588Z" fill="#231F20"/>
<path d="M33.9856 70.977C33.9856 70.977 33.4641 72.8999 33.6243 74.1818C33.7846 75.4638 33.9856 75.3035 33.9856 75.3035H36.631L36.7913 74.817C37.603 75.1533 38.4505 75.3958 39.3172 75.5395C40.5205 75.6998 43.1659 75.5395 43.0873 75.018C43.0086 74.4965 40.0806 73.5613 39.3172 72.6523C38.5539 71.7433 36.7505 69.363 36.7505 69.363L33.9856 70.977Z" fill="#231F20"/>
<path d="M33.5394 43.2034C33.5086 43.2038 33.4785 43.1944 33.4534 43.1766C33.4282 43.1588 33.4094 43.1335 33.3995 43.1044C33.3862 43.0672 33.3879 43.0264 33.4042 42.9905C33.4205 42.9546 33.4502 42.9264 33.4869 42.9121C34.0522 42.7052 36.3159 42.6207 36.9423 42.6207C36.8724 41.6127 36.4995 36.0334 36.549 33.758C36.5985 31.3893 36.8054 26.9113 36.8724 26.7103C36.884 26.6717 36.9104 26.6392 36.946 26.6201C36.9815 26.601 37.0231 26.5968 37.0618 26.6083C37.1004 26.6199 37.1328 26.6464 37.152 26.6819C37.1711 26.7174 37.1753 26.7591 37.1637 26.7977C37.1113 27.0599 36.9103 31.2582 36.8549 33.7638C36.7995 36.2694 37.254 42.6907 37.257 42.7547C37.2587 42.7753 37.2562 42.7959 37.2497 42.8155C37.2432 42.835 37.2328 42.853 37.2191 42.8684C37.2052 42.8831 37.1885 42.8948 37.17 42.9028C37.1515 42.9108 37.1315 42.915 37.1113 42.915C36.3013 42.9354 34.09 43.0228 33.5977 43.2063L33.5394 43.2034Z" fill="#231F20"/>
<path d="M19.6653 31.2643C19.625 31.2644 19.5864 31.2487 19.5575 31.2206C19.5433 31.2068 19.5321 31.1902 19.5244 31.172C19.5167 31.1537 19.5127 31.1341 19.5127 31.1143C19.5127 31.0945 19.5167 31.0748 19.5244 31.0566C19.5321 31.0383 19.5433 31.0218 19.5575 31.0079C19.5866 30.9788 22.471 28.1382 24.2394 26.9961C24.2559 26.9853 24.2743 26.9778 24.2936 26.9741C24.3129 26.9705 24.3328 26.9707 24.352 26.9747C24.3712 26.9788 24.3895 26.9866 24.4057 26.9978C24.4219 27.009 24.4357 27.0233 24.4463 27.0398C24.4571 27.0562 24.4646 27.0746 24.4683 27.0939C24.4719 27.1133 24.4717 27.1331 24.4677 27.1524C24.4636 27.1716 24.4557 27.1898 24.4446 27.206C24.4334 27.2222 24.4191 27.236 24.4026 27.2467C22.6749 28.3742 19.811 31.1944 19.7702 31.2235C19.7415 31.2496 19.7041 31.2641 19.6653 31.2643Z" fill="#231F20"/>
</svg>
