<svg width="65" height="87" viewBox="0 0 65 87" fill="none" xmlns="http://www.w3.org/2000/svg">
<path d="M27.3673 17.8974C27.3427 17.8977 27.3184 17.8913 27.297 17.8791C27.2756 17.8669 27.2578 17.8492 27.2455 17.8278C27.2355 17.8119 27.2287 17.7941 27.2256 17.7755C27.2225 17.7569 27.2231 17.7379 27.2274 17.7195C27.2317 17.7012 27.2397 17.6839 27.2507 17.6686C27.2618 17.6533 27.2758 17.6404 27.2919 17.6306L32.5119 14.458C32.545 14.438 32.5847 14.432 32.6222 14.4412C32.6597 14.4505 32.692 14.4743 32.712 14.5073C32.732 14.5404 32.7381 14.5801 32.7288 14.6176C32.7196 14.6551 32.6958 14.6874 32.6627 14.7074L27.4427 17.8771C27.42 17.891 27.3939 17.898 27.3673 17.8974Z" fill="#D1D3D4"/>
<path d="M27.8023 46.5847C27.8023 46.5847 28.8144 49.3542 28.1764 53.507C27.6544 56.8826 27.4949 71.2405 27.4949 71.2405C27.4949 71.2405 27.1353 72.1917 25.4649 72.6499C23.7945 73.1081 23.954 71.4029 23.954 71.4029L22.9854 50.0241L27.8023 46.5847Z" fill="white"/>
<path d="M24.961 72.8784C24.7051 72.8872 24.4544 72.805 24.2534 72.6464C23.7517 72.2317 23.8126 71.4226 23.8155 71.3878L22.8498 50.0293C22.8485 50.0046 22.8534 49.98 22.864 49.9577C22.8747 49.9354 22.8907 49.9162 22.9107 49.9017L27.7131 46.4623C27.7321 46.4485 27.754 46.4392 27.7771 46.4352C27.8002 46.4312 27.824 46.4325 27.8465 46.4391C27.8682 46.4467 27.888 46.459 27.9045 46.475C27.921 46.491 27.9339 46.5104 27.9422 46.5319C27.9422 46.5609 28.9601 49.3855 28.3221 53.5296C27.8088 56.8559 27.6435 71.0949 27.6435 71.2399C27.6462 71.2572 27.6462 71.2748 27.6435 71.2921C27.6435 71.3327 27.2375 72.3187 25.5294 72.7943C25.3446 72.8477 25.1534 72.8759 24.961 72.8784ZM23.1514 50.096L24.1142 71.3849C24.1142 71.411 24.0649 72.0925 24.4448 72.4086C24.5906 72.5026 24.7569 72.5599 24.9297 72.5756C25.1024 72.5912 25.2763 72.5648 25.4366 72.4985C26.8518 72.1041 27.2781 71.3385 27.3448 71.1964C27.3448 70.4511 27.5217 56.7486 28.0263 53.4774C28.4071 51.2588 28.3082 48.9845 27.7363 46.8074L23.1514 50.096Z" fill="#231F20"/>
<path d="M30.5069 10.6128C31.4581 11.4016 32.0961 12.6631 32.621 13.8231C32.9777 14.6177 33.0473 15.7052 33.462 16.4331C33.5182 16.5431 33.6123 16.6289 33.727 16.6748C33.8416 16.7206 33.969 16.7234 34.0855 16.6825C33.6592 17.7874 32.6616 18.5965 31.5712 19.0547C30.4808 19.5129 29.286 19.6695 28.1115 19.8116C27.5507 19.9062 26.979 19.917 26.415 19.8435C25.9032 19.7286 25.4094 19.5442 24.9476 19.2954L22.5 18.1354C22.7639 18.1963 22.9901 17.9382 23.109 17.6917C23.5672 16.7579 23.5063 15.6617 23.486 14.6206C23.486 13.7332 23.4657 12.5645 24.0428 11.8279C24.3908 11.3552 25.3797 10.694 25.8002 11.4422C25.4754 10.8622 27.3981 9.91391 27.7577 9.84141C28.2444 9.75206 28.7451 9.77511 29.2216 9.9088C29.6981 10.0425 30.1377 10.2833 30.5069 10.6128Z" fill="white"/>
<path d="M27.0404 20.0374C26.8217 20.0378 26.6034 20.0193 26.3879 19.9823C25.8633 19.8643 25.357 19.676 24.8828 19.4226L22.4323 18.2452C22.3989 18.2299 22.3726 18.2026 22.3586 18.1687C22.3446 18.1348 22.344 18.0968 22.3569 18.0625C22.3688 18.0276 22.3931 17.9983 22.4252 17.9802C22.4572 17.962 22.4948 17.9562 22.5309 17.9639C22.6962 18.0045 22.8731 17.8102 22.9746 17.6043C23.3806 16.772 23.3487 15.7918 23.3487 14.8348V14.5912C23.3487 13.7589 23.311 12.5032 23.9287 11.6912C24.1955 11.3519 24.7987 10.8966 25.3294 10.9372C25.4516 10.9495 25.5686 10.9935 25.6687 11.0648C25.9587 10.4384 27.4087 9.75687 27.7248 9.69307C28.2336 9.59859 28.7572 9.62214 29.2555 9.76191C29.7537 9.90168 30.2133 10.1539 30.5987 10.4993C31.5557 11.2939 32.1995 12.5293 32.7534 13.7618C32.9135 14.158 33.0387 14.5675 33.1275 14.9856C33.2207 15.4578 33.3747 15.9159 33.5857 16.3486C33.6727 16.4965 33.8757 16.6125 34.0149 16.54C34.0415 16.5263 34.0716 16.5213 34.1012 16.5254C34.1308 16.5296 34.1584 16.5427 34.1802 16.5632C34.2025 16.5837 34.2182 16.6103 34.2254 16.6397C34.2327 16.6691 34.231 16.7 34.2208 16.7285C33.8206 17.7638 32.8752 18.657 31.6108 19.1848C30.5465 19.6314 29.4416 19.7909 28.1105 19.9504C27.7558 20.0002 27.3985 20.0293 27.0404 20.0374ZM22.9195 18.1466L25.0104 19.1529C25.4621 19.3942 25.9438 19.5746 26.443 19.6894C26.9919 19.7565 27.5475 19.7448 28.0931 19.6546C29.401 19.4951 30.4827 19.3414 31.5122 18.9093C32.506 18.5241 33.329 17.7957 33.8322 16.8561C33.7263 16.8371 33.6259 16.7954 33.5378 16.7338C33.4496 16.6722 33.3759 16.5922 33.3218 16.4994C33.0935 16.0404 32.9287 15.5527 32.8317 15.0494C32.7476 14.6481 32.6282 14.2551 32.475 13.8749C31.9356 12.683 31.315 11.4766 30.4015 10.7197C30.0512 10.4061 29.6342 10.1764 29.182 10.0477C28.7298 9.91912 28.2543 9.89503 27.7915 9.97727C27.5015 10.0353 26.1762 10.682 25.9442 11.1808C25.9289 11.2083 25.9209 11.2392 25.9209 11.2707C25.9209 11.3021 25.9289 11.3331 25.9442 11.3606C25.9608 11.3953 25.9634 11.4351 25.9516 11.4718C25.9398 11.5084 25.9145 11.5392 25.8807 11.5577C25.847 11.5763 25.8074 11.5812 25.7701 11.5715C25.7329 11.5618 25.7007 11.5382 25.6803 11.5056C25.6479 11.4339 25.597 11.3721 25.5327 11.3267C25.4685 11.2813 25.3933 11.254 25.3149 11.2475C24.9234 11.2127 24.3985 11.5984 24.1752 11.8884C23.6155 12.6018 23.6358 13.7966 23.6503 14.5854L23.6387 14.8348C23.659 15.8179 23.6793 16.8358 23.2385 17.7348C23.1657 17.895 23.0565 18.0361 22.9195 18.1466Z" fill="#231F20"/>
<path d="M32.4359 22.1398L38.2591 36.5122L32.1691 37.707C32.1691 37.707 30.5567 23.5347 32.4359 22.1398Z" fill="white"/>
<path d="M32.164 37.8541C32.1316 37.8548 32.0999 37.8446 32.0741 37.8251C32.0574 37.813 32.0436 37.7974 32.0336 37.7793C32.0235 37.7613 32.0176 37.7413 32.0161 37.7207C31.9494 37.1407 30.4182 23.4411 32.3438 22.0172C32.3626 22.0042 32.384 21.9954 32.4065 21.9914C32.429 21.9874 32.4521 21.9883 32.4743 21.994C32.4963 22 32.5167 22.0109 32.5338 22.026C32.5509 22.0411 32.5642 22.0599 32.5729 22.081L38.3932 36.4563C38.4025 36.4763 38.4073 36.4981 38.4073 36.5201C38.4073 36.5422 38.4025 36.564 38.3932 36.5839C38.3824 36.6034 38.3675 36.6203 38.3494 36.6333C38.3314 36.6464 38.3106 36.6553 38.2888 36.6593L32.1988 37.8512L32.164 37.8541ZM32.3786 22.4029C31.1113 24.0327 31.8624 33.6288 32.2945 37.5264L38.0481 36.4012L32.3786 22.4029Z" fill="#231F20"/>
<path d="M40.404 30.9263L29.7119 34.0286L32.3374 43.0775L43.0296 39.9752L40.404 30.9263Z" fill="white"/>
<path d="M32.3398 43.2262C32.3077 43.2262 32.2765 43.2157 32.2508 43.1964C32.2252 43.177 32.2065 43.1498 32.1977 43.1189L29.5703 34.0709C29.5626 34.0531 29.5586 34.0338 29.5586 34.0144C29.5586 33.9949 29.5626 33.9757 29.5703 33.9578C29.5792 33.9405 29.5915 33.9252 29.6065 33.9127C29.6214 33.9003 29.6387 33.891 29.6573 33.8853L40.3641 30.7852C40.4014 30.7707 40.4428 30.7707 40.4801 30.7852C40.514 30.8052 40.5389 30.8374 40.5497 30.8751L43.1771 39.9231C43.1878 39.9616 43.1829 40.0027 43.1633 40.0375C43.1437 40.0723 43.1112 40.0979 43.0727 40.1087L32.3833 43.2117L32.3398 43.2262ZM29.9009 34.1318L32.4413 42.8898L42.8465 39.8709L40.3061 31.11L29.9009 34.1318Z" fill="#231F20"/>
<path d="M29.8659 47.2968C29.8659 47.2968 29.3642 50.1968 30.7359 54.1785C31.8495 57.4062 34.9438 71.3465 34.9438 71.3465C34.9438 71.3465 36.1415 72.7965 37.8438 72.9647C39.5461 73.1329 38.7573 71.419 38.7573 71.419L35.1961 49.8256L29.8659 47.2968Z" fill="white"/>
<path d="M38.0649 73.1243H37.8387C36.0987 72.9619 34.8778 71.5119 34.8285 71.451C34.8136 71.4325 34.8037 71.4106 34.7995 71.3872C34.7676 71.248 31.6936 57.4179 30.5945 54.2337C29.2286 50.2723 29.7245 47.3114 29.7245 47.2737C29.728 47.2511 29.7368 47.2296 29.7501 47.211C29.7635 47.1924 29.7811 47.1773 29.8015 47.1668C29.8219 47.1564 29.8444 47.1509 29.8673 47.1508C29.8902 47.1507 29.9128 47.1561 29.9333 47.1664L35.2722 49.6923C35.2941 49.7024 35.3133 49.7177 35.3279 49.737C35.3426 49.7562 35.3523 49.7787 35.3563 49.8025L38.9117 71.3843C38.9697 71.5206 39.2829 72.2891 38.9465 72.7705C38.8399 72.8973 38.7037 72.9959 38.5499 73.0576C38.3962 73.1193 38.2296 73.1422 38.0649 73.1243ZM35.0837 71.277C35.2519 71.4713 36.3626 72.6777 37.8648 72.8169C38.2853 72.8546 38.5666 72.7792 38.7 72.5878C38.9204 72.2775 38.7232 71.6859 38.6304 71.4829C38.6291 71.4704 38.6291 71.4578 38.6304 71.4452L35.0721 49.9243L29.9884 47.5173C29.8127 49.7605 30.1203 52.0152 30.8903 54.1293C31.9546 57.2468 34.9068 70.4824 35.0837 71.277Z" fill="#231F20"/>
<path d="M32.8082 21.1045C32.8082 21.1045 24.8419 19.0745 22.1536 22.1398C22.1536 22.1398 24.0589 26.4231 22.9627 28.137C22.9627 28.137 24.8187 31.4749 24.5577 34.5808C24.2967 37.6867 23.8385 37.0574 22.5567 42.3441C21.2749 47.6308 22.3247 60.4691 22.3247 60.4691H38.5908L33.8522 29.1114C33.5493 27.6766 33.3411 26.2234 33.2287 24.7614C33.1554 23.5356 33.015 22.3148 32.8082 21.1045Z" fill="#00B87C"/>
<path d="M31.6867 41.5293L36.3731 40.871L33.8501 29.1115C33.8501 29.1115 34.1401 26.3101 34.1633 24.1815C34.1865 22.0529 32.8061 21.0988 32.8061 21.0988L29.9844 19.9156L31.6867 41.5293Z" fill="#231F20"/>
<path d="M31.6889 41.6773C31.6544 41.6769 31.621 41.6658 31.5932 41.6454C31.5775 41.6326 31.5645 41.6168 31.555 41.5989C31.5455 41.5809 31.5398 41.5613 31.5381 41.541L29.8387 19.9331C29.836 19.9079 29.8402 19.8824 29.8509 19.8594C29.8617 19.8364 29.8785 19.8168 29.8996 19.8026C29.9201 19.7872 29.9443 19.7774 29.9697 19.7743C29.9952 19.7713 30.021 19.775 30.0446 19.7852L32.8663 20.9655C32.8756 20.9703 32.8844 20.9762 32.8924 20.9829C32.9504 21.0235 34.3424 22.0124 34.3163 24.1729C34.2931 26.1768 34.0263 28.8129 34.0031 29.1029L36.5203 40.8392C36.5245 40.8596 36.5246 40.8806 36.5207 40.901C36.5167 40.9214 36.5087 40.9409 36.4971 40.9581C36.485 40.9745 36.4699 40.9883 36.4524 40.9988C36.435 41.0092 36.4157 41.0161 36.3956 41.019L31.7092 41.6773H31.6889ZM30.1548 20.1564L31.8252 41.3583L36.1955 40.7464L33.7044 29.1464C33.7015 29.1311 33.7015 29.1154 33.7044 29.1C33.7044 29.071 33.9944 26.2812 34.0147 24.1874C34.0414 23.6305 33.9398 23.0748 33.7175 22.5634C33.4952 22.052 33.1584 21.5986 32.7329 21.2381L30.1548 20.1564Z" fill="#231F20"/>
<path d="M29.9863 19.9214L30.0588 21.9369C30.0588 21.9369 29.8065 23.5087 28.2202 23.2187C27.7791 23.1521 27.3676 22.9562 27.0377 22.6558C26.7079 22.3554 26.4745 21.9639 26.3671 21.5309L26.2656 17.1548C26.3048 16.9434 26.3591 16.735 26.428 16.5313C26.5034 16.1862 26.5759 15.844 26.6281 15.496C26.7377 14.7772 26.791 14.051 26.7876 13.3239C26.9827 13.7116 27.1297 14.1216 27.2255 14.5448L28.0201 14.3824C28.0837 14.0707 28.1244 13.7547 28.1419 13.437C28.4379 13.8031 28.7691 14.1391 29.1308 14.4404C29.1843 14.5026 29.2571 14.545 29.3376 14.5608C29.4181 14.5766 29.5015 14.5648 29.5745 14.5274C29.8937 14.3986 30.22 14.2882 30.5518 14.1968C30.8418 14.1301 30.8679 14.1968 30.9114 14.4868C30.9694 14.8841 30.9781 15.293 31.0042 15.6932C31.0651 16.5632 31.2217 17.5898 31.0622 18.4656C30.9433 19.6923 29.9863 19.9214 29.9863 19.9214Z" fill="white"/>
<path d="M28.5918 23.405C28.4566 23.4049 28.3216 23.3922 28.1887 23.3673C27.7193 23.292 27.2823 23.0808 26.9318 22.7596C26.5813 22.4385 26.3327 22.0216 26.2167 21.5606C26.2167 21.5374 26.1152 17.2338 26.1123 17.1671C26.1258 17.0128 26.1619 16.8613 26.2196 16.7176C26.2428 16.6393 26.2689 16.5639 26.2805 16.5088C26.3588 16.1463 26.4284 15.8215 26.4777 15.4822C26.5878 14.7713 26.6401 14.0527 26.6343 13.3333C26.6321 13.2976 26.6426 13.2623 26.664 13.2337C26.6853 13.2051 26.7162 13.1849 26.751 13.1769C26.7858 13.1689 26.8224 13.1735 26.8541 13.19C26.8859 13.2064 26.9107 13.2335 26.9243 13.2666C27.1029 13.6184 27.242 13.989 27.339 14.3715L27.89 14.2555C27.9416 13.9845 27.9746 13.7103 27.9886 13.4348C27.9897 13.404 28.0003 13.3744 28.019 13.35C28.0377 13.3255 28.0636 13.3075 28.093 13.2985C28.1219 13.2891 28.1529 13.2887 28.182 13.2975C28.211 13.3064 28.2367 13.3239 28.2554 13.3478C28.5454 13.7055 28.8698 14.0338 29.224 14.328C29.2689 14.3714 29.3236 14.4032 29.3835 14.4208C29.4314 14.4184 29.4785 14.4076 29.5227 14.3889L29.8388 14.2758C30.0584 14.1854 30.2842 14.1107 30.5145 14.0525C30.576 14.0298 30.6415 14.0202 30.7069 14.0242C30.7723 14.0282 30.8361 14.0457 30.8944 14.0757C31.0104 14.1569 31.0307 14.3019 31.0568 14.4701C31.1003 14.7601 31.1148 15.0675 31.1322 15.3604C31.1322 15.4706 31.1322 15.5779 31.1525 15.6852C31.1525 15.8766 31.1815 16.0738 31.1989 16.2652C31.296 17.0035 31.296 17.7513 31.1989 18.4895C31.1874 18.8208 31.0802 19.1417 30.8903 19.4134C30.7005 19.6851 30.436 19.896 30.1288 20.0207L30.1984 21.926C30.1997 21.9356 30.1997 21.9454 30.1984 21.955C30.1108 22.4153 29.8582 22.8278 29.4879 23.115C29.2275 23.3043 28.9137 23.4059 28.5918 23.405ZM26.9214 14.0351C26.8983 14.5342 26.8489 15.0318 26.7735 15.5257C26.7213 15.8737 26.6517 16.2072 26.5734 16.5726C26.5589 16.6364 26.5328 16.7205 26.5038 16.8104C26.461 16.9219 26.4299 17.0376 26.411 17.1555C26.411 17.2193 26.5154 21.5229 26.5154 21.5229C26.6198 21.9236 26.8409 22.2842 27.1507 22.559C27.4606 22.8337 27.8451 23.0101 28.2554 23.0657C28.4377 23.11 28.6272 23.1166 28.8122 23.0852C28.9972 23.0538 29.1738 22.985 29.3313 22.883C29.63 22.6399 29.8351 22.3006 29.9113 21.9231L29.8388 19.9221C29.8372 19.8877 29.8476 19.8539 29.8682 19.8264C29.8889 19.7988 29.9185 19.7794 29.9519 19.7713C29.9896 19.7713 30.8074 19.5451 30.9147 18.4489C31.0074 17.7337 31.0074 17.0094 30.9147 16.2942C30.8944 16.0941 30.877 15.894 30.8654 15.7142C30.8654 15.6069 30.8654 15.4967 30.8451 15.3865C30.8277 15.0965 30.8132 14.8065 30.7726 14.5165C30.7647 14.4504 30.7501 14.3853 30.7291 14.3222C30.6841 14.3332 30.6387 14.3419 30.5928 14.3483C30.3754 14.4025 30.1622 14.4723 29.9548 14.5571C29.8475 14.5977 29.7373 14.6412 29.6329 14.676C29.5468 14.7123 29.4535 14.7282 29.3603 14.7224C29.2359 14.6973 29.1218 14.6358 29.0326 14.5455C28.7564 14.3177 28.4976 14.0695 28.2583 13.8031C28.2375 14.0046 28.2065 14.205 28.1655 14.4034C28.1598 14.432 28.1457 14.4583 28.1251 14.479C28.1044 14.4996 28.0781 14.5137 28.0495 14.5194L27.252 14.6818C27.233 14.6861 27.2133 14.6865 27.194 14.6831C27.1748 14.6798 27.1564 14.6726 27.14 14.6621C27.1236 14.6516 27.1094 14.6379 27.0982 14.6219C27.0871 14.6059 27.0792 14.5878 27.0751 14.5687C27.0337 14.3882 26.9823 14.21 26.9214 14.0351Z" fill="#231F20"/>
<path d="M29.2422 15.8002C29.2422 15.8002 30.0513 17.1342 29.8367 17.3488C29.6221 17.5634 29.0508 17.3923 29.0508 17.3923" fill="white"/>
<path d="M29.479 17.6019C29.3191 17.5992 29.1602 17.5758 29.0063 17.5323C28.9679 17.5207 28.9356 17.4944 28.9165 17.459C28.8975 17.4237 28.8933 17.3822 28.9048 17.3438C28.9164 17.3053 28.9427 17.273 28.9781 17.254C29.0134 17.2349 29.0549 17.2307 29.0933 17.2423C29.2934 17.3032 29.6269 17.3409 29.7342 17.2423C29.7719 17.1263 29.4877 16.4796 29.1165 15.8706C29.1066 15.8544 29.1 15.8365 29.0971 15.8178C29.0942 15.7991 29.0951 15.78 29.0997 15.7616C29.1043 15.7432 29.1125 15.7259 29.1238 15.7108C29.1352 15.6956 29.1495 15.6829 29.1658 15.6734C29.182 15.6632 29.2 15.6564 29.2188 15.6533C29.2377 15.6501 29.2569 15.6507 29.2755 15.655C29.2941 15.6593 29.3117 15.6673 29.3272 15.6784C29.3427 15.6895 29.3559 15.7036 29.3659 15.7198C29.7603 16.3723 30.1837 17.2017 29.9459 17.4598C29.8813 17.5131 29.8068 17.5531 29.7267 17.5775C29.6465 17.6018 29.5624 17.6101 29.479 17.6019Z" fill="#231F20"/>
<path d="M27.9408 15.6697C27.9444 15.4744 27.8785 15.3147 27.7936 15.3132C27.7087 15.3116 27.637 15.4687 27.6334 15.6641C27.6299 15.8595 27.6958 16.0191 27.7806 16.0207C27.8655 16.0222 27.9372 15.8651 27.9408 15.6697Z" fill="#231F20"/>
<path d="M30.1957 15.8034C30.1992 15.608 30.1333 15.4484 30.0485 15.4468C29.9636 15.4453 29.8919 15.6024 29.8883 15.7977C29.8847 15.9931 29.9506 16.1528 30.0355 16.1543C30.1204 16.1559 30.1921 15.9987 30.1957 15.8034Z" fill="#231F20"/>
<path d="M28.6502 16.5048H27.5569C27.4128 16.5048 27.2746 16.4478 27.1724 16.3461C27.0703 16.2445 27.0125 16.1066 27.0117 15.9625V15.0345C27.0117 14.996 27.027 14.9592 27.0542 14.932C27.0814 14.9048 27.1183 14.8895 27.1567 14.8895H29.0475C29.086 14.8895 29.1229 14.9048 29.1501 14.932C29.1772 14.9592 29.1925 14.996 29.1925 15.0345V15.9625C29.1925 16.0337 29.1785 16.1042 29.1512 16.17C29.124 16.2358 29.084 16.2956 29.0337 16.346C28.9833 16.3963 28.9235 16.4363 28.8577 16.4635C28.792 16.4908 28.7214 16.5048 28.6502 16.5048ZM27.3017 15.1795V15.9625C27.3025 16.0297 27.3297 16.0938 27.3775 16.1411C27.4253 16.1883 27.4897 16.2148 27.5569 16.2148H28.6502C28.7171 16.2148 28.7813 16.1882 28.8286 16.1409C28.8759 16.0936 28.9025 16.0294 28.9025 15.9625V15.1795H27.3017Z" fill="#231F20"/>
<path d="M31.0399 16.5048H29.9466C29.8028 16.5048 29.6648 16.4477 29.5631 16.346C29.4614 16.2443 29.4043 16.1063 29.4043 15.9625V15.0345C29.4043 14.996 29.4196 14.9592 29.4468 14.932C29.474 14.9048 29.5108 14.8895 29.5493 14.8895H31.4401C31.4786 14.8895 31.5154 14.9048 31.5426 14.932C31.5698 14.9592 31.5851 14.996 31.5851 15.0345V15.9625C31.5843 16.1066 31.5266 16.2445 31.4244 16.3461C31.3222 16.4478 31.184 16.5048 31.0399 16.5048ZM29.6943 15.1795V15.9625C29.6943 16.0294 29.7209 16.0936 29.7682 16.1409C29.8155 16.1882 29.8797 16.2148 29.9466 16.2148H31.0399C31.0733 16.2152 31.1064 16.2089 31.1373 16.1964C31.1683 16.1839 31.1964 16.1654 31.2202 16.1419C31.2439 16.1185 31.2628 16.0905 31.2756 16.0597C31.2885 16.0289 31.2951 15.9959 31.2951 15.9625V15.1795H29.6943Z" fill="#231F20"/>
<path d="M29.5497 15.6549H29.1118C29.0733 15.6549 29.0365 15.6396 29.0093 15.6124C28.9821 15.5852 28.9668 15.5484 28.9668 15.5099C28.9668 15.4714 28.9821 15.4346 29.0093 15.4074C29.0365 15.3802 29.0733 15.3649 29.1118 15.3649H29.5497C29.5882 15.3649 29.625 15.3802 29.6522 15.4074C29.6794 15.4346 29.6947 15.4714 29.6947 15.5099C29.6947 15.5484 29.6794 15.5852 29.6522 15.6124C29.625 15.6396 29.5882 15.6549 29.5497 15.6549Z" fill="#231F20"/>
<path d="M37.1211 41.753C37.1211 41.753 37.211 42.159 37.9331 41.9676C38.6552 41.7762 39.3628 41.5877 39.444 41.2194C39.5252 40.8511 39.4962 39.1111 39.1714 38.8994C38.8466 38.6877 37.9331 38.8327 37.646 39.607C37.4697 40.2306 37.4059 40.8807 37.4575 41.5268L37.1211 41.753Z" fill="white"/>
<path d="M37.5875 42.1668C37.4517 42.1706 37.3174 42.1375 37.1989 42.0711C37.091 42.0055 37.0113 41.9021 36.9756 41.7811C36.9696 41.7513 36.9728 41.7204 36.9847 41.6924C36.9966 41.6645 37.0167 41.6408 37.0423 41.6245L37.3033 41.4505C37.2573 40.8129 37.327 40.1723 37.5092 39.5597C37.5788 39.3687 37.691 39.1961 37.8372 39.0549C37.9834 38.9138 38.1598 38.8077 38.3531 38.7448C38.4969 38.6873 38.6511 38.6604 38.8059 38.6659C38.9607 38.6714 39.1127 38.7091 39.2521 38.7767C39.69 39.0493 39.661 40.9401 39.5914 41.2475C39.4899 41.7086 38.7533 41.9029 37.9732 42.1175C37.8473 42.1505 37.7176 42.1671 37.5875 42.1668ZM37.3265 41.7956C37.4106 41.8623 37.5817 41.9058 37.9065 41.8217C38.5039 41.6651 39.2463 41.4679 39.3072 41.1866C39.4029 40.7545 39.3072 39.1566 39.1042 39.0319C38.8966 38.9488 38.665 38.9488 38.4575 39.0319C38.3069 39.0803 38.1694 39.1624 38.0553 39.272C37.9413 39.3815 37.8537 39.5156 37.7992 39.6641C37.6293 40.2671 37.5674 40.8955 37.6165 41.5201C37.6194 41.5468 37.6146 41.5737 37.6028 41.5979C37.591 41.622 37.5726 41.6423 37.5498 41.6564L37.3265 41.7956Z" fill="#231F20"/>
<path d="M26.8295 17.2644C26.5888 16.8468 26.3046 16.3538 25.7362 16.5423C25.6255 16.5803 25.5259 16.645 25.4462 16.7308C25.3484 16.8132 25.2688 16.9152 25.2128 17.0301C25.1567 17.1451 25.1254 17.2706 25.1207 17.3984C25.1161 17.5263 25.1383 17.6537 25.1858 17.7724C25.2334 17.8912 25.3053 17.9987 25.3969 18.088C25.5504 18.27 25.7504 18.4069 25.9757 18.484C26.201 18.5612 26.443 18.5756 26.6758 18.5259" fill="white"/>
<path d="M26.395 18.7153C26.1838 18.708 25.9764 18.6577 25.7854 18.5675C25.5945 18.4772 25.4239 18.3489 25.2843 18.1904C25.1789 18.0876 25.0961 17.964 25.0412 17.8275C24.9863 17.6909 24.9605 17.5444 24.9654 17.3973C24.9703 17.2503 25.0059 17.1058 25.0698 16.9732C25.1336 16.8406 25.2245 16.7228 25.3365 16.6273C25.4276 16.5259 25.542 16.4483 25.67 16.4011C26.3544 16.1749 26.6908 16.7636 26.9373 17.1899C26.9572 17.2245 26.9626 17.2657 26.9523 17.3043C26.942 17.3429 26.9167 17.3758 26.8822 17.3958C26.8478 17.4149 26.8074 17.4198 26.7695 17.4095C26.7315 17.3992 26.6991 17.3745 26.6792 17.3407C26.3892 16.8535 26.1862 16.5461 25.7628 16.6853C25.6767 16.7173 25.6 16.7701 25.5395 16.839C25.453 16.9076 25.3825 16.9942 25.3328 17.0927C25.2831 17.1912 25.2554 17.2994 25.2515 17.4096C25.2476 17.5199 25.2678 17.6297 25.3105 17.7315C25.3532 17.8332 25.4174 17.9245 25.4989 17.999C25.6335 18.1599 25.8092 18.2813 26.0074 18.3502C26.2055 18.4192 26.4186 18.4331 26.6241 18.3905C26.6431 18.3852 26.663 18.3837 26.6826 18.386C26.7023 18.3884 26.7212 18.3946 26.7385 18.4043C26.7557 18.414 26.7709 18.427 26.7831 18.4425C26.7953 18.4581 26.8043 18.4759 26.8097 18.4949C26.815 18.514 26.8165 18.5339 26.8142 18.5535C26.8118 18.5731 26.8056 18.5921 26.7959 18.6093C26.7862 18.6266 26.7732 18.6417 26.7577 18.6539C26.7421 18.6661 26.7243 18.6752 26.7053 18.6805C26.604 18.7066 26.4995 18.7183 26.395 18.7153Z" fill="#231F20"/>
<path d="M29.2631 18.7494C28.9726 18.7579 28.6901 18.654 28.4743 18.4594C28.0016 18.0244 28.0857 17.2472 28.0886 17.2124C28.0944 17.1744 28.1144 17.1401 28.1445 17.1164C28.1747 17.0927 28.2128 17.0814 28.251 17.0848C28.2893 17.0898 28.324 17.1097 28.3478 17.14C28.3717 17.1703 28.3827 17.2088 28.3786 17.2472C28.3786 17.2472 28.309 17.9113 28.6686 18.2448C28.8027 18.3457 28.959 18.4131 29.1245 18.4414C29.29 18.4696 29.4598 18.4579 29.6198 18.4072C29.6383 18.4029 29.6575 18.4026 29.6762 18.406C29.6948 18.4095 29.7126 18.4168 29.7283 18.4274C29.7441 18.438 29.7575 18.4517 29.7678 18.4676C29.778 18.4836 29.7849 18.5015 29.788 18.5203C29.7922 18.5389 29.7926 18.5583 29.7892 18.5771C29.7857 18.596 29.7785 18.6139 29.7679 18.6299C29.7574 18.6459 29.7437 18.6596 29.7277 18.6701C29.7117 18.6807 29.6938 18.6879 29.6749 18.6914C29.5398 18.7238 29.4019 18.7433 29.2631 18.7494Z" fill="#231F20"/>
<path d="M26.3282 19.9213C26.3282 19.9213 27.7782 35.4943 27.7782 41.5292L21.3779 41.2247C21.3779 41.2247 22.2769 34.7461 22.1348 33.2758C21.9927 31.8055 22.4596 28.978 22.2421 27.7252C22.0246 26.4724 21.6447 22.1398 21.6447 22.1398C22.1974 21.4469 22.9196 20.9085 23.7414 20.5767C24.5877 20.2992 25.452 20.0803 26.3282 19.9213Z" fill="#231F20"/>
<path d="M27.7874 41.6776L21.3755 41.3876C21.3549 41.386 21.3348 41.3803 21.3163 41.3708C21.2979 41.3614 21.2816 41.3484 21.2682 41.3325C21.2549 41.3166 21.2449 41.298 21.2389 41.2781C21.2329 41.2582 21.2311 41.2372 21.2334 41.2165C21.2334 41.1527 22.1324 34.7379 21.9903 33.3024C21.9497 32.398 21.9739 31.4919 22.0628 30.5909C22.1353 29.515 22.2136 28.4043 22.1005 27.7634C21.8859 26.5193 21.5205 22.3404 21.5002 22.1635C21.4974 22.126 21.5088 22.0887 21.5321 22.0591C22.1022 21.3429 22.8487 20.7872 23.6984 20.4467C24.5518 20.166 25.424 19.946 26.3084 19.7884C26.3285 19.7845 26.3492 19.7848 26.3691 19.7893C26.3891 19.7938 26.4079 19.8024 26.4244 19.8145C26.4414 19.827 26.4555 19.8431 26.4655 19.8616C26.4755 19.8802 26.4813 19.9008 26.4824 19.9218C26.4824 20.0755 27.9324 35.5818 27.9324 41.5413C27.9324 41.561 27.9285 41.5805 27.9209 41.5986C27.9133 41.6167 27.9021 41.6332 27.8881 41.647C27.874 41.6607 27.8574 41.6716 27.8391 41.6788C27.8208 41.6861 27.8013 41.6896 27.7816 41.6892L27.7874 41.6776ZM21.5466 41.0831L27.6366 41.3731C27.5931 35.6427 26.3461 21.7662 26.1866 20.0987C25.3719 20.2528 24.5679 20.4591 23.7796 20.7164C23.0031 21.0309 22.3188 21.5367 21.7902 22.1867C21.8366 22.7116 22.1817 26.5367 22.3702 27.6967C22.4891 28.3753 22.4137 29.4541 22.3354 30.5967C22.2467 31.4812 22.2225 32.3709 22.2629 33.2589C22.4166 34.6219 21.6887 40.0478 21.5466 41.0831Z" fill="#231F20"/>
<path d="M22.6259 28.8677L19.6302 34.5952C19.1807 35.4652 23.754 42.3556 23.5916 43.3126C23.5916 44.2609 22.6839 45.5253 22.0488 46.1546C21.9965 46.2113 21.9347 46.2584 21.8661 46.2938C21.7817 46.3243 21.691 46.3333 21.6022 46.3199C21.1849 46.2727 20.7876 46.1156 20.4509 45.8646C20.3045 45.7761 20.189 45.6444 20.1203 45.4876C20.0892 45.408 20.0892 45.3196 20.1204 45.2401C20.1515 45.1605 20.2116 45.0956 20.2885 45.0584L20.8685 45.0149C20.9136 45.0168 20.9582 45.0047 20.9961 44.9801C21.0228 44.9515 21.0417 44.9165 21.0512 44.8786C21.1063 44.7133 21.6312 43.4721 21.4833 43.3213C21.4311 43.272 15.3933 36.2018 15.4774 34.8185C15.5615 33.4352 21.6254 22.1484 21.6254 22.1484C21.6254 22.1484 24.5283 24.4713 22.6259 28.8677Z" fill="white"/>
<path d="M21.6965 46.4741H21.5863C21.1445 46.4232 20.7247 46.2539 20.3712 45.984C20.1974 45.8786 20.0621 45.72 19.9855 45.5316C19.9409 45.4149 19.9432 45.2854 19.9918 45.1703C20.0405 45.0552 20.1317 44.9633 20.2465 44.9139H20.2842L20.8642 44.8733H20.9135C20.9135 44.8733 20.9135 44.853 20.9135 44.8414C20.9135 44.8298 20.9483 44.7486 20.9831 44.6645C21.3224 43.7945 21.3804 43.5045 21.3659 43.4233C21.0034 43.0115 15.2498 36.2429 15.3339 34.8219C15.418 33.4009 21.2499 22.5491 21.4964 22.088C21.5078 22.069 21.5229 22.0525 21.5408 22.0395C21.5588 22.0266 21.5792 22.0174 21.6008 22.0126C21.622 22.0086 21.6438 22.0092 21.6648 22.0142C21.6858 22.0192 21.7055 22.0285 21.7226 22.0416C21.7545 22.0677 24.6719 24.4979 22.7463 28.9494L19.7622 34.6653C19.5592 35.0539 20.8903 37.4899 21.8647 39.2676C23.0769 41.4832 23.8164 42.8665 23.7352 43.3276C23.7352 44.3136 22.7898 45.6186 22.1518 46.2479C22.0882 46.3191 22.0114 46.3772 21.9256 46.419C21.8541 46.4536 21.776 46.4724 21.6965 46.4741ZM20.3306 45.1981C20.2971 45.2253 20.2732 45.2625 20.2622 45.3042C20.2513 45.3459 20.2539 45.39 20.2697 45.4301C20.3317 45.5598 20.4332 45.6664 20.5597 45.7346C20.8713 45.9724 21.2407 46.1226 21.6298 46.1696C21.6926 46.1857 21.7584 46.1857 21.8212 46.1696C21.872 46.14 21.9179 46.1028 21.9575 46.0594C22.5375 45.4794 23.4539 44.2382 23.4539 43.3247C23.5235 42.9071 22.5085 41.0569 21.6153 39.4213C20.1334 36.7127 19.2518 35.0336 19.5099 34.5377C19.6607 34.2477 22.4099 28.9987 22.5027 28.816C24.1151 25.0866 22.2446 22.9145 21.6994 22.3896C19.5795 26.3162 15.708 33.7576 15.6471 34.819C15.5746 36.0631 21.2296 42.7969 21.6095 43.2116C21.7603 43.3537 21.682 43.7162 21.276 44.7515C21.2441 44.8298 21.2209 44.8878 21.2122 44.9168C21.1956 44.9816 21.1603 45.0401 21.1107 45.085C21.0494 45.1306 20.9754 45.1559 20.899 45.1575L20.3306 45.1981Z" fill="#231F20"/>
<path d="M29.1488 20.145C28.5684 20.1703 27.9944 20.0164 27.5045 19.7042C27.4893 19.6932 27.4764 19.6792 27.4665 19.6632C27.4567 19.6471 27.4501 19.6293 27.4471 19.6108C27.4441 19.5922 27.4449 19.5732 27.4492 19.5549C27.4536 19.5366 27.4615 19.5193 27.4726 19.5041C27.4836 19.4889 27.4976 19.476 27.5136 19.4661C27.5296 19.4563 27.5475 19.4497 27.566 19.4467C27.5846 19.4437 27.6036 19.4445 27.6219 19.4488C27.6402 19.4532 27.6575 19.4611 27.6727 19.4722C28.5079 20.0783 29.9521 19.7854 29.9666 19.7825C30.005 19.7748 30.045 19.7827 30.0776 19.8045C30.1102 19.8262 30.1329 19.86 30.1406 19.8985C30.1483 19.937 30.1404 19.9769 30.1186 20.0095C30.0969 20.0421 30.063 20.0648 30.0246 20.0725C29.7356 20.1241 29.4424 20.1484 29.1488 20.145Z" fill="#231F20"/>
<path d="M34.9502 71.3475C34.9502 71.3475 34.9502 74.9406 35.2054 74.987C35.4606 75.0334 37.0411 75.0189 37.0411 75.0189L37.0585 73.9575C37.0585 73.9575 38.1112 74.9087 38.494 75.0624C38.8768 75.2161 43.9315 75.7555 43.6705 74.9493C43.3428 73.9401 38.6042 71.3446 38.6042 71.3446L34.9502 71.3475Z" fill="#231F20"/>
<path d="M42.0325 75.5321C41.7173 75.5321 41.3606 75.5205 40.9624 75.4973C40.1132 75.4666 39.2677 75.3696 38.4336 75.2073C37.9885 74.9495 37.574 74.642 37.1982 74.2909V75.0275C37.1967 75.0664 37.1801 75.1033 37.152 75.1304C37.1239 75.1574 37.0864 75.1725 37.0474 75.1725C36.885 75.1725 35.435 75.1725 35.1827 75.1377C35.0464 75.1145 34.8173 75.071 34.8057 71.3532C34.8058 71.314 34.8214 71.2764 34.8492 71.2488C34.8631 71.2343 34.8797 71.2227 34.8981 71.2147C34.9166 71.2068 34.9364 71.2026 34.9565 71.2024H38.6105C38.6356 71.2026 38.6604 71.2085 38.683 71.2198C39.1731 71.4895 43.4825 73.8762 43.8189 74.9115C43.8394 74.9712 43.8415 75.0358 43.825 75.0968C43.8084 75.1578 43.774 75.2124 43.7261 75.2537C43.5115 75.4451 42.946 75.5321 42.0325 75.5321ZM37.0532 73.7921C37.0909 73.7924 37.1271 73.8069 37.1547 73.8327C37.581 74.2363 38.0463 74.5967 38.5438 74.9086C38.8802 75.042 43.0301 75.4596 43.5086 75.0101C43.526 74.9956 43.526 74.9927 43.5231 74.9782C43.2708 74.2068 39.8865 72.2087 38.5612 71.4779H35.0957C35.0957 72.9511 35.1711 74.5229 35.2784 74.8245C35.5249 74.8477 36.3079 74.8535 36.8879 74.8477L36.9053 73.9342C36.9052 73.9051 36.9137 73.8767 36.9297 73.8525C36.9457 73.8282 36.9685 73.8093 36.9952 73.7979C37.0148 73.7977 37.0344 73.8007 37.0532 73.8066V73.7921Z" fill="#231F20"/>
<path d="M24.3417 71.1461C24.3417 71.1461 26.3427 71.4361 27.494 71.2389C27.494 71.2389 27.6419 75.1626 27.2591 75.2612C26.8058 75.3052 26.3488 75.2916 25.899 75.2206L26.0875 74.3013C26.0875 74.3013 25.4205 75.0872 24.9768 75.2438C24.5331 75.4004 21.9463 75.789 21.6505 75.3975C21.3547 75.006 24.3417 71.1461 24.3417 71.1461Z" fill="#231F20"/>
<path d="M22.5115 75.7169C22.0446 75.7169 21.6589 75.656 21.5313 75.4878C21.1978 75.0441 23.0741 72.5211 24.2225 71.0537C24.2395 71.0332 24.2615 71.0174 24.2864 71.0077C24.3113 70.9981 24.3382 70.9949 24.3646 70.9986C24.382 70.9986 26.354 71.2886 27.4676 71.0914C27.4883 71.0871 27.5098 71.0875 27.5303 71.0925C27.5509 71.0975 27.5701 71.107 27.5865 71.1204C27.6034 71.1343 27.6173 71.1515 27.6273 71.171C27.6372 71.1904 27.6431 71.2117 27.6445 71.2335C27.746 73.9189 27.6271 75.3225 27.2936 75.4066C26.8213 75.4575 26.3444 75.4448 25.8755 75.3689C25.8552 75.3666 25.8356 75.36 25.818 75.3496C25.8005 75.3391 25.7853 75.3251 25.7735 75.3084C25.7617 75.2917 25.7536 75.2727 25.7497 75.2527C25.7458 75.2326 25.7462 75.2119 25.7508 75.192L25.8349 74.7918C25.6043 75.0346 25.3297 75.2314 25.0258 75.3718C24.2028 75.5785 23.3597 75.6942 22.5115 75.7169ZM24.4052 71.306C23.077 73.0083 21.7053 75.0093 21.7778 75.3225C21.9721 75.5748 24.3675 75.2993 24.9272 75.1021C25.2607 74.9861 25.7972 74.4148 25.9741 74.206C25.9954 74.1804 26.0248 74.1627 26.0574 74.1559C26.0901 74.149 26.1241 74.1534 26.1539 74.1683C26.1832 74.1829 26.207 74.2066 26.2217 74.2359C26.2363 74.2652 26.241 74.2985 26.2351 74.3307L26.0756 75.0934C26.4471 75.1487 26.824 75.1584 27.1979 75.1224C27.3632 74.873 27.4038 73.0547 27.3516 71.4104C26.3687 71.4861 25.3803 71.4511 24.4052 71.306Z" fill="#231F20"/>
</svg>
