<svg width="252" height="252" viewBox="0 0 252 252" fill="none" xmlns="http://www.w3.org/2000/svg">
<mask id="path-1-inside-1" fill="white">
<path d="M200.543 221.734C183.726 234.829 163.756 243.262 142.644 246.186C121.531 249.11 100.021 246.421 80.2782 238.389C60.5354 230.357 43.2567 217.267 30.1812 200.435C17.1057 183.603 8.69481 163.623 5.7951 142.508L8.16134 142.183C11.004 162.883 19.2493 182.469 32.0674 198.969C44.8855 215.47 61.8241 228.303 81.1782 236.177C100.532 244.05 121.619 246.686 142.316 243.82C163.013 240.954 182.589 232.686 199.076 219.849L200.543 221.734Z"/>
</mask>
<path d="M200.543 221.734C183.726 234.829 163.756 243.262 142.644 246.186C121.531 249.11 100.021 246.421 80.2782 238.389C60.5354 230.357 43.2567 217.267 30.1812 200.435C17.1057 183.603 8.69481 163.623 5.7951 142.508L8.16134 142.183C11.004 162.883 19.2493 182.469 32.0674 198.969C44.8855 215.47 61.8241 228.303 81.1782 236.177C100.532 244.05 121.619 246.686 142.316 243.82C163.013 240.954 182.589 232.686 199.076 219.849L200.543 221.734Z" stroke="#00B87C" stroke-opacity="0.72" stroke-width="5.56571" mask="url(#path-1-inside-1)"/>
<circle cx="126" cy="126" r="124.542" stroke="#00B87C" stroke-width="2.91667"/>
<mask id="path-3-inside-2" fill="white">
<path d="M19.7762 77.756C27.4493 60.8613 39.0414 46.0405 53.5904 34.5239C68.1394 23.0073 85.2255 15.127 103.43 11.5373C121.635 7.94756 140.434 8.7519 158.266 13.8835C176.098 19.0152 192.448 28.3261 205.96 41.0434L204.839 42.2347C191.516 29.6958 175.395 20.5154 157.813 15.4558C140.232 10.3961 121.697 9.603 103.747 13.1424C85.7973 16.6818 68.9508 24.4515 54.6058 35.8067C40.2609 47.1618 28.8313 61.7748 21.2658 78.4325L19.7762 77.756Z"/>
</mask>
<path d="M19.7762 77.756C27.4493 60.8613 39.0414 46.0405 53.5904 34.5239C68.1394 23.0073 85.2255 15.127 103.43 11.5373C121.635 7.94756 140.434 8.7519 158.266 13.8835C176.098 19.0152 192.448 28.3261 205.96 41.0434L204.839 42.2347C191.516 29.6958 175.395 20.5154 157.813 15.4558C140.232 10.3961 121.697 9.603 103.747 13.1424C85.7973 16.6818 68.9508 24.4515 54.6058 35.8067C40.2609 47.1618 28.8313 61.7748 21.2658 78.4325L19.7762 77.756Z" stroke="#00B87C" stroke-opacity="0.6" stroke-width="4.53075" mask="url(#path-3-inside-2)"/>
<mask id="path-4-inside-3" fill="white">
<path d="M182.941 30.2238C200.302 40.3338 214.589 54.9723 224.273 72.5741C233.957 90.1759 238.675 110.079 237.922 130.155C237.169 150.231 230.973 169.724 219.998 186.551C209.022 203.378 193.679 216.905 175.61 225.686L174.981 224.392C192.816 215.725 207.959 202.374 218.793 185.765C229.626 169.157 235.741 149.916 236.484 130.101C237.227 110.286 232.571 90.6409 223.012 73.2676C213.454 55.8943 199.353 41.4458 182.217 31.4671L182.941 30.2238Z"/>
</mask>
<path d="M182.941 30.2238C200.302 40.3338 214.589 54.9723 224.273 72.5741C233.957 90.1759 238.675 110.079 237.922 130.155C237.169 150.231 230.973 169.724 219.998 186.551C209.022 203.378 193.679 216.905 175.61 225.686L174.981 224.392C192.816 215.725 207.959 202.374 218.793 185.765C229.626 169.157 235.741 149.916 236.484 130.101C237.227 110.286 232.571 90.6409 223.012 73.2676C213.454 55.8943 199.353 41.4458 182.217 31.4671L182.941 30.2238Z" stroke="#00B87C" stroke-opacity="0.4" stroke-width="2.28522" mask="url(#path-4-inside-3)"/>
<mask id="path-5-inside-4" fill="white">
<path d="M197.556 204.43C180.23 220.237 158.158 229.863 134.785 231.803C111.412 233.744 88.055 227.89 68.3596 215.157C48.6643 202.423 33.7396 183.527 25.9157 161.417C18.0918 139.308 17.8091 115.23 25.1118 92.9425L26.4215 93.3716C19.2136 115.369 19.4926 139.135 27.2149 160.957C34.9372 182.78 49.6682 201.431 69.1079 213.999C88.5475 226.568 111.602 232.345 134.671 230.43C157.74 228.514 179.526 219.014 196.627 203.412L197.556 204.43Z"/>
</mask>
<path d="M197.556 204.43C180.23 220.237 158.158 229.863 134.785 231.803C111.412 233.744 88.055 227.89 68.3596 215.157C48.6643 202.423 33.7396 183.527 25.9157 161.417C18.0918 139.308 17.8091 115.23 25.1118 92.9425L26.4215 93.3716C19.2136 115.369 19.4926 139.135 27.2149 160.957C34.9372 182.78 49.6682 201.431 69.1079 213.999C88.5475 226.568 111.602 232.345 134.671 230.43C157.74 228.514 179.526 219.014 196.627 203.412L197.556 204.43Z" stroke="#00B87C" stroke-opacity="0.3" stroke-width="2.18901" mask="url(#path-5-inside-4)"/>
<mask id="path-6-inside-5" fill="white">
<path d="M29.1411 95.6553C34.5208 78.4839 44.3687 63.0513 57.676 50.9387C70.9832 38.8261 87.2713 30.4689 104.872 26.7234C122.472 22.9779 140.751 23.9786 157.838 29.6232C174.924 35.2678 190.202 45.3532 202.108 58.8461L201.12 59.7178C189.369 46.4 174.289 36.4455 157.424 30.8743C140.56 25.303 122.518 24.3152 105.146 28.0121C87.7741 31.709 71.6974 39.9577 58.5629 51.9131C45.4284 63.8685 35.7083 79.1007 30.3984 96.0492L29.1411 95.6553Z"/>
</mask>
<path d="M29.1411 95.6553C34.5208 78.4839 44.3687 63.0513 57.676 50.9387C70.9832 38.8261 87.2713 30.4689 104.872 26.7234C122.472 22.9779 140.751 23.9786 157.838 29.6232C174.924 35.2678 190.202 45.3532 202.108 58.8461L201.12 59.7178C189.369 46.4 174.289 36.4455 157.424 30.8743C140.56 25.303 122.518 24.3152 105.146 28.0121C87.7741 31.709 71.6974 39.9577 58.5629 51.9131C45.4284 63.8685 35.7083 79.1007 30.3984 96.0492L29.1411 95.6553Z" stroke="#00B87C" stroke-opacity="0.2" stroke-width="2.09278" mask="url(#path-6-inside-5)"/>
</svg>
