<svg width="56" height="89" viewBox="0 0 56 89" fill="none" xmlns="http://www.w3.org/2000/svg">
<path d="M20.4992 27.939C20.3167 27.8048 20.1724 27.6252 20.0808 27.4181C19.9891 27.211 19.9532 26.9834 19.9767 26.7581C19.7462 26.8085 19.5055 26.7814 19.292 26.6811C19.0785 26.5807 18.9041 26.4127 18.7958 26.2031C18.5902 25.7722 18.5331 25.2854 18.6334 24.8186C18.2741 24.6445 17.9738 24.3687 17.7699 24.0253C17.566 23.682 17.4675 23.2863 17.4867 22.8874C17.5059 22.4886 17.6419 22.1042 17.8778 21.782C18.1137 21.4598 18.4391 21.2141 18.8135 21.0753C18.7498 21.0465 18.694 21.0028 18.6508 20.9478C18.6076 20.8928 18.5784 20.8282 18.5655 20.7594C18.2998 19.8738 18.8253 18.8819 19.6342 18.442C20.0488 18.2395 20.5017 18.1276 20.9629 18.1139C21.4241 18.1001 21.8829 18.1848 22.3088 18.3623C22.2848 18.2449 22.2948 18.123 22.3377 18.0111C22.3805 17.8992 22.4545 17.8018 22.5509 17.7305C22.7458 17.5913 22.97 17.4984 23.2063 17.4589C24.3931 17.2019 25.6289 17.291 26.7665 17.7158C27.3068 17.9195 27.9002 18.3298 27.8559 18.8966C28.2088 18.8364 28.5718 18.8846 28.8968 19.0348C29.2218 19.1851 29.4937 19.4303 29.6766 19.7381C29.8594 20.046 29.9447 20.402 29.9211 20.7593C29.8975 21.1166 29.7662 21.4584 29.5445 21.7395C29.8108 21.9947 30.0034 22.3169 30.1021 22.6722C30.2007 23.0276 30.2018 23.403 30.1051 23.7589C30.0084 24.1148 29.8176 24.4381 29.5527 24.6947C29.2878 24.9513 28.9586 25.1318 28.5998 25.2171C28.6382 25.0843 28.8419 25.2024 28.895 25.3293C29.2463 26.2149 28.5998 27.2511 27.7762 27.7471C26.9525 28.2431 25.754 28.3375 25.0661 27.6467C25.0697 27.8756 24.9959 28.099 24.8565 28.2807C24.7172 28.4624 24.5206 28.5916 24.2986 28.6475C23.8508 28.7483 23.3849 28.7351 22.9435 28.6091C22.5007 28.5176 22.1051 28.2785 21.6771 28.1811C21.249 28.0836 20.8859 28.2165 20.4992 27.939Z" fill="white"/>
<path d="M23.7757 28.8543C23.4824 28.8466 23.1906 28.8091 22.9048 28.7422C22.6705 28.686 22.4414 28.61 22.22 28.5148C22.0286 28.4328 21.8312 28.3657 21.6295 28.3141C21.4982 28.2885 21.3648 28.2747 21.231 28.2728C20.9444 28.2883 20.6603 28.2129 20.4192 28.0573C20.2414 27.9266 20.0958 27.7571 19.9935 27.5617C19.8912 27.3663 19.8348 27.1501 19.8287 26.9296C19.5922 26.9405 19.3575 26.8839 19.152 26.7662C18.9465 26.6486 18.7788 26.4748 18.6685 26.2653C18.4551 25.8414 18.3856 25.3595 18.4708 24.8926C18.122 24.7015 17.832 24.4188 17.6321 24.075C17.4321 23.7312 17.3298 23.3394 17.3362 22.9417C17.3426 22.5441 17.4574 22.1557 17.6683 21.8185C17.8791 21.4813 18.178 21.2081 18.5327 21.0283C18.4842 20.9557 18.4474 20.876 18.4235 20.7921C18.1519 19.9065 18.6508 18.8024 19.563 18.3034C19.9606 18.1041 20.3942 17.9869 20.838 17.959C21.2819 17.9311 21.7268 17.993 22.1461 18.1411C22.182 17.9315 22.292 17.7419 22.4561 17.6067C22.6683 17.4526 22.9143 17.3514 23.1735 17.3115C24.3876 17.0479 25.652 17.1381 26.8164 17.5713C27.5161 17.8341 27.9441 18.2621 27.9973 18.7374C28.3566 18.7119 28.7159 18.7878 29.0343 18.9564C29.3527 19.125 29.6173 19.3795 29.7982 19.6911C29.979 20.0027 30.0688 20.3587 30.0573 20.7188C30.0458 21.0789 29.9335 21.4285 29.7331 21.7279C29.9718 21.9849 30.1455 22.2953 30.2396 22.6331C30.3338 22.9709 30.3456 23.3264 30.2742 23.6698C30.2028 24.0132 30.0503 24.3344 29.8293 24.6068C29.6083 24.8791 29.3253 25.0945 29.0039 25.235C29.012 25.2492 29.0189 25.264 29.0246 25.2793C29.4143 26.2742 28.7087 27.3606 27.8437 27.8742C27.0644 28.3407 25.9514 28.4883 25.1868 27.948C25.1265 28.1489 25.0168 28.3313 24.8678 28.4788C24.7187 28.6263 24.5351 28.7341 24.3337 28.7923C24.1518 28.8408 23.9638 28.8617 23.7757 28.8543ZM19.9793 26.5901C20.0128 26.5889 20.0455 26.6005 20.0708 26.6225C20.0897 26.6381 20.1045 26.6581 20.1138 26.6808C20.1231 26.7034 20.1266 26.7281 20.1239 26.7524C20.1031 26.9532 20.1349 27.156 20.2161 27.3407C20.2974 27.5255 20.4254 27.686 20.5874 27.8063C20.7839 27.9326 21.0156 27.9926 21.2487 27.9776C21.4015 27.9792 21.5538 27.996 21.7033 28.0277C21.9173 28.0817 22.1266 28.1528 22.3292 28.2403C22.5341 28.3296 22.7465 28.4007 22.9639 28.4528C23.381 28.5722 23.8212 28.5864 24.2451 28.4942C24.4307 28.4495 24.5963 28.3448 24.7164 28.1964C24.8364 28.0481 24.9043 27.8643 24.9093 27.6735C24.9061 27.643 24.9123 27.6122 24.9271 27.5853C24.9419 27.5584 24.9645 27.5366 24.992 27.5229C25.0196 27.5098 25.0507 27.5056 25.0808 27.5109C25.111 27.5162 25.1387 27.5307 25.1603 27.5525C25.8127 28.2049 26.9315 28.0838 27.6932 27.6292C28.4548 27.1746 29.0659 26.2063 28.7471 25.3915C28.7393 25.3748 28.7282 25.3597 28.7146 25.3472L28.629 25.3708C28.6038 25.377 28.5775 25.3764 28.5526 25.3692C28.5277 25.3619 28.5052 25.3482 28.4873 25.3295C28.4696 25.3104 28.4571 25.2871 28.4509 25.2618C28.4447 25.2365 28.445 25.21 28.4519 25.1848C28.4644 25.1389 28.4911 25.0982 28.5282 25.0685C28.5654 25.0388 28.611 25.0216 28.6585 25.0195C28.6849 25.0152 28.7118 25.0152 28.7382 25.0195C29.0295 24.9136 29.2916 24.7405 29.5035 24.5143C29.7153 24.2881 29.8708 24.0152 29.9575 23.7176C30.042 23.3868 30.0383 23.0395 29.9466 22.7106C29.8549 22.3816 29.6785 22.0825 29.4349 21.843C29.4095 21.8171 29.394 21.7831 29.3913 21.7469C29.3886 21.7106 29.3988 21.6746 29.4202 21.6453C29.6193 21.3868 29.7362 21.0745 29.7558 20.7488C29.7754 20.4231 29.6968 20.099 29.5302 19.8185C29.3635 19.538 29.1165 19.314 28.8211 19.1754C28.5257 19.0369 28.1955 18.9902 27.8733 19.0415C27.8513 19.0445 27.829 19.0427 27.8078 19.0362C27.7867 19.0296 27.7672 19.0185 27.7509 19.0035C27.7345 18.9886 27.7217 18.9702 27.7132 18.9497C27.7048 18.9292 27.701 18.9071 27.702 18.885C27.7375 18.4068 27.212 18.0319 26.7072 17.8429C25.5968 17.4289 24.3909 17.3418 23.2325 17.592C23.0199 17.6269 22.818 17.7097 22.6421 17.8341C22.5696 17.8881 22.5134 17.961 22.4795 18.0448C22.4457 18.1286 22.4356 18.2201 22.4502 18.3094C22.4578 18.3354 22.458 18.363 22.4507 18.3891C22.4434 18.4152 22.4289 18.4387 22.4089 18.457C22.389 18.4754 22.3646 18.4882 22.3381 18.4939C22.3116 18.4996 22.284 18.4981 22.2583 18.4894C21.8523 18.3187 21.4145 18.2364 20.9742 18.2481C20.5339 18.2598 20.1011 18.3652 19.7047 18.5573C18.9106 18.9913 18.4737 19.936 18.7069 20.7035C18.7276 20.7744 18.7778 20.8984 18.8545 20.922C18.8842 20.9306 18.9105 20.9484 18.9296 20.9727C18.9486 20.9971 18.9596 21.0269 18.9608 21.0578C18.9612 21.0889 18.952 21.1194 18.9346 21.1453C18.9172 21.1711 18.8924 21.1911 18.8634 21.2024C18.5163 21.3314 18.2147 21.5595 17.9961 21.8584C17.7776 22.1573 17.6517 22.5138 17.6341 22.8837C17.6165 23.2535 17.7079 23.6204 17.8971 23.9388C18.0863 24.2571 18.3648 24.5128 18.6981 24.6741C18.727 24.6875 18.7506 24.7101 18.7651 24.7385C18.7795 24.7669 18.784 24.7994 18.7778 24.8306C18.6809 25.265 18.7329 25.7194 18.9254 26.1207C19.0176 26.3013 19.1667 26.4466 19.3497 26.5341C19.5327 26.6216 19.7394 26.6464 19.938 26.6048C19.9515 26.6015 19.9654 26.6005 19.9793 26.6019V26.5901Z" fill="#231F20"/>
<path d="M18.7081 31.4108C18.7081 31.4108 13.6659 40.4561 12.9898 42.0384C12.3138 43.6208 15.3073 47.2961 16.4645 46.4046C17.6217 45.5131 18.7081 31.4108 18.7081 31.4108Z" fill="#00B87C"/>
<path d="M28.3693 78.5853C28.3693 78.5853 28.5671 79.9137 28.269 80.4244C27.8636 81.1499 27.6255 81.9568 27.5723 82.7861C27.8074 83.058 28.0972 83.2774 28.4227 83.43C28.7482 83.5826 29.1022 83.665 29.4616 83.6718C30.6572 83.6718 31.8499 82.7507 31.9827 82.3079C32.1156 81.8651 31.0204 77.1624 31.0204 77.1624L28.3693 78.5853Z" fill="white"/>
<path d="M29.4649 83.7999C29.0847 83.7941 28.71 83.7074 28.3659 83.5455C28.0218 83.3836 27.7162 83.1503 27.4693 82.8611C27.4584 82.8476 27.4504 82.8319 27.4459 82.8152C27.4413 82.7984 27.4402 82.7809 27.4427 82.7637C27.496 81.918 27.7403 81.0954 28.1571 80.3577C28.3815 79.9739 28.2929 78.9614 28.2398 78.6071C28.2347 78.5797 28.2386 78.5515 28.2509 78.5265C28.2631 78.5016 28.283 78.4812 28.3077 78.4683L30.9646 77.0366C30.9834 77.0272 31.0041 77.0223 31.0251 77.0223C31.0461 77.0223 31.0668 77.0272 31.0856 77.0366C31.1041 77.0456 31.1204 77.0585 31.1337 77.0742C31.1469 77.09 31.1567 77.1083 31.1624 77.1281C31.3454 77.9222 32.2576 81.8899 32.1218 82.3445C31.986 82.7991 30.7225 83.7999 29.4649 83.7999ZM27.7172 82.7342C27.9393 82.9783 28.2088 83.1746 28.5093 83.3111C28.8098 83.4477 29.1349 83.5216 29.4649 83.5283C30.6074 83.5283 31.7469 82.6427 31.8561 82.2618C31.9329 82.002 31.4458 79.5754 30.9321 77.3554L28.5173 78.6602C28.5586 78.982 28.6619 80.0241 28.3874 80.4935C28.0016 81.1819 27.7728 81.947 27.7172 82.7342Z" fill="#231F20"/>
<path d="M20.1494 46.3446L25.8972 47.9801L27.2286 30.8991C27.2286 30.8991 22.4698 29.7389 21.3244 30.2851C20.1789 30.8312 20.1494 46.3446 20.1494 46.3446Z" fill="#231F20"/>
<path d="M25.8992 48.129H25.8579L20.1219 46.4877C20.0907 46.4793 20.0631 46.4608 20.0434 46.4352C20.0237 46.4096 20.0129 46.3783 20.0127 46.346C20.0127 43.7392 20.0954 30.6997 21.2673 30.1536C22.4393 29.6074 27.0771 30.7086 27.2749 30.744C27.3089 30.7529 27.3388 30.7734 27.3593 30.8019C27.3798 30.8305 27.3896 30.8654 27.3871 30.9004L26.0557 47.9814C26.0538 48.003 26.0473 48.024 26.0366 48.0428C26.0259 48.0617 26.0113 48.078 25.9937 48.0907C25.9675 48.1138 25.9342 48.1274 25.8992 48.129ZM20.2902 46.2338L25.7575 47.7896L27.0653 31.0126C25.666 30.682 22.2534 30.003 21.3766 30.4222C20.7123 30.7469 20.3138 38.7885 20.2991 46.2338H20.2902Z" fill="#231F20"/>
<path d="M22.0677 75.5123V79.5094L20.2109 80.0556L20.2551 79.2378L19.4167 80.1028C19.4167 80.1028 14.4276 81.0239 14.4542 80.339C14.4808 79.6541 14.9856 79.2821 15.6144 78.9426C16.2904 78.5766 18.0676 77.5463 18.0676 77.5463L18.3333 74.6148" fill="white"/>
<path d="M15.3793 80.7237C15.0496 80.7601 14.7165 80.7007 14.4198 80.5525C14.3875 80.5268 14.3616 80.494 14.3442 80.4566C14.3268 80.4192 14.3183 80.3782 14.3194 80.337C14.349 79.5783 14.9305 79.1561 15.5505 78.8255C16.1704 78.4949 17.617 77.6446 17.9417 77.4646L18.1985 74.601C18.203 74.5658 18.2208 74.5336 18.2482 74.5111C18.2757 74.4886 18.3107 74.4774 18.3461 74.48C18.3639 74.4814 18.3812 74.4865 18.3969 74.4947C18.4127 74.503 18.4266 74.5144 18.4379 74.5281C18.4492 74.5419 18.4576 74.5578 18.4626 74.5749C18.4677 74.592 18.4692 74.6099 18.4672 74.6276L18.2044 77.5649C18.2019 77.5862 18.1944 77.6067 18.1826 77.6246C18.1709 77.6425 18.1551 77.6575 18.1365 77.6683C18.1188 77.6683 16.3653 78.7045 15.6804 79.0676C14.9955 79.4307 14.6117 79.7643 14.591 80.3517C14.7327 80.5997 16.9085 80.4315 19.3499 79.9827L20.1587 79.1502C20.1786 79.1308 20.2038 79.1176 20.2311 79.1124C20.2584 79.1071 20.2866 79.11 20.3123 79.1207C20.337 79.1319 20.3578 79.1503 20.372 79.1734C20.3863 79.1966 20.3932 79.2235 20.392 79.2506L20.3565 79.8794L21.9359 79.4159V75.5191C21.9355 75.5014 21.9387 75.4838 21.9452 75.4674C21.9517 75.4509 21.9614 75.4359 21.9738 75.4233C21.9861 75.4106 22.0009 75.4006 22.0172 75.3937C22.0335 75.3868 22.0511 75.3833 22.0688 75.3833C22.1048 75.3833 22.1393 75.3976 22.1648 75.4231C22.1903 75.4486 22.2046 75.4831 22.2046 75.5191V79.5163C22.205 79.5457 22.1956 79.5744 22.178 79.5979C22.1604 79.6214 22.1355 79.6384 22.1071 79.6462L20.2503 80.1923C20.2296 80.198 20.208 80.1988 20.187 80.1947C20.166 80.1906 20.1462 80.1817 20.1292 80.1687C20.1122 80.1556 20.0988 80.1385 20.09 80.1189C20.0813 80.0994 20.0775 80.0779 20.079 80.0565L20.1026 79.596L19.5122 80.2012C19.4925 80.2217 19.4666 80.2352 19.4384 80.2396C18.0989 80.4994 16.7423 80.6612 15.3793 80.7237Z" fill="#231F20"/>
<path d="M30.9837 47.9579L32.5218 78.3116C32.5218 78.3116 32.3742 79.4216 30.0302 79.5604C27.6862 79.6991 27.9224 79.1323 27.9224 79.1323L24.2558 56.8674L22.7532 76.6466L17.7051 76.9743L18.7088 45.7999L30.9837 47.9579Z" fill="#231F20"/>
<path d="M29.3387 79.7291C28.4944 79.7291 27.9955 79.6081 27.8243 79.366C27.7732 79.2974 27.751 79.2116 27.7623 79.1269L24.3142 58.1077L22.906 76.6559C22.9033 76.6915 22.8876 76.7249 22.8621 76.7499C22.8366 76.7748 22.8029 76.7897 22.7673 76.7917L17.7103 77.1135C17.6897 77.115 17.6691 77.1121 17.6497 77.105C17.6304 77.0979 17.6128 77.0867 17.5981 77.0722C17.5833 77.0582 17.5717 77.0412 17.5641 77.0224C17.5564 77.0036 17.553 76.9833 17.5538 76.963L18.5576 45.7885C18.5581 45.7672 18.5632 45.7462 18.5726 45.7271C18.582 45.7079 18.5954 45.691 18.612 45.6775C18.6285 45.664 18.6478 45.6543 18.6685 45.649C18.6892 45.6437 18.7107 45.643 18.7317 45.6468L31.0067 47.8137C31.0398 47.8192 31.07 47.836 31.0921 47.8613C31.1142 47.8866 31.1268 47.9189 31.1277 47.9524L32.6569 78.3062C32.6569 78.3829 32.465 79.5638 30.0295 79.7055C29.7786 79.7202 29.5483 79.7291 29.3387 79.7291ZM28.0546 79.1859L28.0811 79.2125C28.1726 79.301 28.5446 79.5077 30.0118 79.4132C32.1816 79.2863 32.3735 78.3032 32.3735 78.2914L30.8473 48.0823L18.8469 45.9775L17.852 76.8183L22.6197 76.5231L24.1135 56.8738C24.1169 56.8379 24.1332 56.8045 24.1592 56.7796C24.1852 56.7547 24.2192 56.7399 24.2552 56.738C24.2908 56.736 24.3258 56.7473 24.3536 56.7697C24.3814 56.792 24.4 56.8238 24.4057 56.859L28.0605 79.1239C28.0679 79.151 28.0679 79.1795 28.0605 79.2066L28.0546 79.1859Z" fill="#231F20"/>
<path d="M26.1958 29.2669C26.1958 29.2669 24.2268 49.8816 25.1095 51.0624C25.9922 52.2433 31.4388 53.1791 31.8462 50.8883C32.5163 47.1214 32.1414 33.5888 31.3562 32.3165C28.1856 29.4972 26.1958 29.2669 26.1958 29.2669Z" fill="#00B87C"/>
<path d="M18.7062 31.4112C18.7062 31.4112 15.8898 50.1336 16.4212 50.6768C16.9526 51.22 19.8398 51.9551 20.6369 51.4089C21.4339 50.8628 22.5233 29.3654 22.5233 29.3654C21.0865 29.682 19.7653 30.3901 18.7062 31.4112Z" fill="#00B87C"/>
<path d="M22.6789 28.9933L22.4368 30.9919C22.568 31.3872 22.844 31.7184 23.2092 31.9188C23.5744 32.1192 24.0019 32.174 24.4059 32.0723C25.9292 31.7506 25.9469 30.8679 25.9469 30.8679C25.9469 30.8679 26.1535 26.3629 26.1535 26.3511C26.117 26.2469 26.0674 26.1477 26.0059 26.0559C25.7786 25.5422 25.4539 24.8367 25.5513 24.2669C25.6332 23.7972 25.8677 23.3676 26.2185 23.0447C26.0379 23.1251 25.8412 23.1628 25.6438 23.1547C25.4463 23.1467 25.2533 23.0931 25.0799 22.9983C24.9065 22.9034 24.7573 22.7698 24.644 22.6079C24.5307 22.446 24.4563 22.26 24.4265 22.0646C24.4265 22.2683 24.2465 22.4189 24.0752 22.5311C23.8224 22.7277 23.5099 22.8319 23.1896 22.8263C22.7704 22.7791 22.4575 22.4218 22.0648 22.2683C22.1255 22.403 22.1357 22.555 22.0934 22.6965C22.0511 22.838 21.9592 22.9596 21.8346 23.0388C21.5785 23.1904 21.2731 23.235 20.9844 23.1628C21.1763 23.2012 21.0139 25.3356 21.0109 25.5245C20.9839 26.1861 20.9997 26.8488 21.0582 27.5084C21.1999 28.6863 22.6789 28.9933 22.6789 28.9933Z" fill="white"/>
<path d="M23.96 32.2668C22.6935 32.2668 22.292 31.0506 22.2891 31.0358C22.2847 31.0154 22.2847 30.9942 22.2891 30.9738L22.5134 29.1051C22.1267 28.9929 21.0374 28.5855 20.9075 27.4932C20.851 26.878 20.8343 26.2597 20.8573 25.6423V25.4888C20.8573 25.4592 20.8573 25.3766 20.8573 25.2585C20.9429 23.8267 20.9163 23.378 20.875 23.2599C20.8531 23.2435 20.8365 23.2211 20.8271 23.1954C20.8176 23.1698 20.8158 23.1419 20.8219 23.1152C20.825 23.0962 20.832 23.078 20.8425 23.0617C20.8529 23.0454 20.8666 23.0315 20.8826 23.0207C20.8986 23.0099 20.9167 23.0025 20.9357 22.999C20.9547 22.9954 20.9742 22.9958 20.9931 23.0001C21.2439 23.0612 21.5085 23.0254 21.7341 22.8997C21.83 22.8393 21.9011 22.7466 21.9347 22.6384C21.9682 22.5301 21.962 22.4134 21.9171 22.3093C21.9021 22.2827 21.8958 22.2522 21.8989 22.2218C21.902 22.1915 21.9145 22.1628 21.9346 22.1399C21.9546 22.1169 21.9813 22.1007 22.011 22.0935C22.0406 22.0863 22.0718 22.0885 22.1001 22.0997C22.2663 22.1718 22.4246 22.2608 22.5725 22.3654C22.7528 22.5098 22.9639 22.6108 23.1895 22.6606C23.4741 22.6628 23.7513 22.5704 23.9777 22.3979C24.1696 22.2739 24.2729 22.1617 24.2729 22.0554C24.2735 22.018 24.2881 21.9821 24.3137 21.9548C24.3394 21.9275 24.3743 21.9108 24.4116 21.9078C24.4487 21.9044 24.4856 21.9154 24.5147 21.9385C24.5438 21.9616 24.563 21.995 24.5681 22.0318C24.592 22.2063 24.656 22.3728 24.7553 22.5183C24.8545 22.6637 24.9862 22.7841 25.1399 22.87C25.2936 22.9559 25.4652 23.0049 25.641 23.0131C25.8169 23.0213 25.9923 22.9886 26.1534 22.9175C26.1852 22.9026 26.2212 22.8998 26.2549 22.9096C26.2886 22.9194 26.3175 22.9411 26.3364 22.9706C26.3554 22.9998 26.3635 23.0348 26.3592 23.0694C26.3548 23.104 26.3384 23.1359 26.3128 23.1595C25.9841 23.4594 25.7649 23.8605 25.6899 24.2991C25.6043 24.8039 25.8966 25.4799 26.1091 25.9463L26.1357 26.0024C26.1478 26.0288 26.1617 26.0545 26.177 26.0792C26.2409 26.1659 26.2816 26.2675 26.2951 26.3744C26.2951 26.3744 26.2951 26.3744 26.0885 30.9C26.0885 30.9384 26.0501 31.9037 24.4294 32.2403C24.2742 32.2654 24.1169 32.2743 23.96 32.2668ZM22.5784 30.9738C22.6984 31.3272 22.9478 31.6221 23.2764 31.799C23.6051 31.976 23.9886 32.0218 24.3497 31.9273C25.7253 31.6321 25.7726 30.8941 25.7755 30.8616C25.7785 30.8291 25.9792 26.4098 25.9822 26.3449C25.9822 26.3449 25.932 26.2563 25.9084 26.215C25.8847 26.1804 25.8639 26.1438 25.8464 26.1058L25.8228 26.0526C25.5954 25.533 25.2825 24.8275 25.3829 24.2341C25.4394 23.8932 25.5737 23.5699 25.7755 23.2894C25.5011 23.306 25.2274 23.2467 24.9844 23.1182C24.7163 22.966 24.5026 22.7338 24.3733 22.454C24.3 22.5268 24.2188 22.5912 24.1312 22.6459C23.8474 22.8524 23.5018 22.9565 23.1511 22.9411C22.8806 22.8907 22.6258 22.7775 22.4072 22.6104L22.2477 22.5071C22.2392 22.6305 22.2029 22.7503 22.1416 22.8576C22.0802 22.965 21.9954 23.0571 21.8935 23.1271C21.6812 23.2629 21.4302 23.3251 21.1791 23.3042C21.218 23.9565 21.2072 24.6108 21.1466 25.2614C21.1466 25.3736 21.1466 25.4504 21.1466 25.4799V25.6305C21.1249 26.2361 21.1417 26.8425 21.1968 27.446C21.3237 28.5353 22.6728 28.8306 22.6994 28.8335C22.7351 28.8419 22.7664 28.8631 22.7876 28.893C22.8088 28.9228 22.8184 28.9594 22.8145 28.9959L22.5784 30.9738Z" fill="#231F20"/>
<path d="M22.4011 25.3268C22.4011 25.3268 21.5155 26.4811 21.7015 26.7054C21.8874 26.9298 22.41 26.8294 22.41 26.8294" fill="white"/>
<path d="M22.1495 26.9986C22.0477 27.006 21.9456 26.9911 21.8503 26.9549C21.7549 26.9187 21.6686 26.8621 21.5974 26.789C21.3967 26.5292 21.869 25.8 22.2971 25.2332C22.3206 25.2019 22.3555 25.1812 22.3943 25.1757C22.433 25.1701 22.4724 25.1802 22.5037 25.2037C22.5196 25.2151 22.5329 25.2296 22.543 25.2462C22.5532 25.2629 22.5598 25.2814 22.5625 25.3007C22.5653 25.32 22.5641 25.3397 22.5591 25.3585C22.5541 25.3774 22.5453 25.395 22.5333 25.4104C22.1406 25.9329 21.8159 26.4997 21.8395 26.6266C21.9104 26.7123 22.2144 26.7123 22.3945 26.6798C22.4135 26.6759 22.4331 26.6758 22.4521 26.6795C22.4711 26.6832 22.4893 26.6906 22.5054 26.7013C22.5216 26.712 22.5355 26.7257 22.5464 26.7418C22.5572 26.7579 22.5648 26.7759 22.5687 26.7949C22.5725 26.8141 22.5725 26.8339 22.5686 26.8531C22.5648 26.8723 22.5571 26.8905 22.5461 26.9067C22.5351 26.9229 22.521 26.9368 22.5046 26.9475C22.4882 26.9582 22.4699 26.9656 22.4506 26.9691C22.3513 26.9882 22.2505 26.9981 22.1495 26.9986Z" fill="#231F20"/>
<path d="M22.6798 28.9928C22.6798 28.9928 23.8607 28.9928 24.4009 28.674C24.4009 28.674 23.9404 30.0526 22.665 30.3921L22.6798 28.9928Z" fill="#231F20"/>
<path d="M22.6633 30.5404C22.6304 30.541 22.5982 30.5306 22.5718 30.5108C22.5537 30.4971 22.5391 30.4792 22.5293 30.4586C22.5196 30.4381 22.5149 30.4155 22.5157 30.3927L22.5305 28.9934C22.5305 28.9543 22.546 28.9167 22.5737 28.8891C22.6014 28.8614 22.6389 28.8458 22.6781 28.8458C22.7401 28.8458 23.8265 28.8458 24.3224 28.5506C24.3471 28.5335 24.3765 28.5243 24.4066 28.5243C24.4366 28.5243 24.466 28.5335 24.4907 28.5506C24.5136 28.5701 24.5303 28.5958 24.5387 28.6247C24.5471 28.6536 24.5468 28.6843 24.5379 28.713C24.5173 28.772 24.0361 30.1684 22.6988 30.5285L22.6633 30.5404ZM22.8227 29.141V30.192C23.3896 29.9485 23.8512 29.511 24.1246 28.958C23.7002 29.0753 23.2629 29.1397 22.8227 29.1499V29.141Z" fill="#231F20"/>
<path d="M32.5513 45.9296H32.5365C32.3447 45.906 27.8574 45.3864 26.4315 44.5864C26.4144 44.5772 26.3993 44.5646 26.3872 44.5494C26.375 44.5342 26.366 44.5167 26.3608 44.498C26.3556 44.4792 26.3542 44.4596 26.3567 44.4403C26.3592 44.421 26.3656 44.4024 26.3755 44.3857C26.3952 44.3522 26.4271 44.3277 26.4646 44.3173C26.502 44.3068 26.542 44.3112 26.5762 44.3296C27.9489 45.1001 32.5247 45.6285 32.569 45.6344C32.6082 45.6368 32.6448 45.6546 32.6708 45.6839C32.6968 45.7132 32.7101 45.7517 32.7078 45.7909C32.7054 45.83 32.6876 45.8666 32.6583 45.8926C32.6289 45.9187 32.5905 45.932 32.5513 45.9296Z" fill="#231F20"/>
<path d="M31.3542 32.3166C31.3542 32.3166 40.2578 45.0107 36.4437 48.2935C32.9483 51.2958 25.2256 46.3097 25.2256 46.3097L25.692 42.094C25.692 42.094 31.8059 45.4978 31.9062 43.9125C32.0509 41.5804 29.0545 38.395 29.0545 38.395C28.7851 37.8785 28.6223 37.3131 28.5756 36.7325C28.529 36.1518 28.5994 35.5677 28.7829 35.0148C28.9573 34.3887 29.283 33.815 29.7314 33.3444C30.1798 32.8739 30.7371 32.5209 31.3542 32.3166Z" fill="#00B87C"/>
<path d="M17.4655 42.5494C17.4463 42.5465 17.4279 42.5398 17.4113 42.5298C17.3946 42.5198 17.3801 42.5066 17.3686 42.491C17.3571 42.4753 17.3488 42.4576 17.3441 42.4387C17.3395 42.4199 17.3386 42.4003 17.3415 42.3811C17.6161 40.539 18.9357 33.5041 18.9504 33.4332C18.9583 33.3953 18.9805 33.3618 19.0124 33.3398C19.0443 33.3179 19.0834 33.309 19.1217 33.3151C19.1602 33.323 19.1941 33.3456 19.2162 33.3782C19.2383 33.4107 19.2467 33.4506 19.2398 33.4893C19.225 33.5602 17.9054 40.5744 17.6338 42.4254C17.6273 42.4638 17.6061 42.4982 17.5747 42.5213C17.5433 42.5445 17.5042 42.5545 17.4655 42.5494Z" fill="#231F20"/>
<path d="M16.2216 48.1141H25.0987C25.264 48.1111 25.4266 48.0713 25.5747 47.9977C25.7228 47.9241 25.8527 47.8185 25.955 47.6885C26.0573 47.5585 26.1294 47.4075 26.1661 47.2462C26.2028 47.085 26.2033 46.9176 26.1673 46.7561L24.2809 37.6311C24.2269 37.3694 24.0856 37.1337 23.8802 36.9626C23.6748 36.7916 23.4175 36.6952 23.1503 36.6894H14.4031C14.2279 36.6922 14.0554 36.734 13.8983 36.8118C13.7412 36.8895 13.6033 37.0013 13.4948 37.1389C13.3862 37.2766 13.3097 37.4367 13.2708 37.6076C13.2318 37.7785 13.2314 37.956 13.2695 38.1271L15.153 47.2226C15.2007 47.4717 15.3332 47.6967 15.5281 47.8592C15.7229 48.0218 15.9679 48.1118 16.2216 48.1141Z" fill="white"/>
<path d="M25.0977 48.2475H16.2207C15.9365 48.2436 15.6622 48.1425 15.4436 47.9609C15.225 47.7793 15.0752 47.5283 15.0192 47.2497L13.1387 38.1542C13.097 37.9583 13.0998 37.7556 13.1468 37.561C13.1938 37.3663 13.2838 37.1847 13.4102 37.0294C13.5298 36.8814 13.6809 36.7619 13.8525 36.6796C14.0241 36.5974 14.2119 36.5545 14.4022 36.5541H23.1493C23.4483 36.5584 23.7368 36.6651 23.9668 36.8564C24.1967 37.0476 24.3541 37.3119 24.4128 37.6051L26.2992 46.7272C26.3388 46.9132 26.3363 47.1057 26.2918 47.2906C26.2474 47.4755 26.1622 47.6481 26.0424 47.7958C25.9282 47.9364 25.7842 48.0498 25.6209 48.128C25.4575 48.2061 25.2788 48.2469 25.0977 48.2475ZM14.4022 36.8257C14.252 36.8257 14.1038 36.8594 13.9684 36.9243C13.833 36.9892 13.7139 37.0836 13.6199 37.2007C13.5209 37.3233 13.45 37.4662 13.4123 37.6192C13.3745 37.7722 13.3708 37.9317 13.4014 38.0863L15.2848 47.1847C15.3275 47.4027 15.4437 47.5993 15.6141 47.7418C15.7845 47.8842 15.9986 47.9637 16.2207 47.9671H25.0977C25.2388 47.9663 25.378 47.9341 25.5052 47.8728C25.6323 47.8115 25.7442 47.7227 25.8328 47.6128C25.9276 47.4967 25.9951 47.3609 26.0303 47.2153C26.0656 47.0697 26.0677 46.918 26.0365 46.7714L24.1471 37.6464C24.1012 37.4144 23.9771 37.2052 23.7955 37.0537C23.6139 36.9022 23.3858 36.8175 23.1493 36.8139L14.4022 36.8257Z" fill="#231F20"/>
<path d="M26.9276 43.5317C26.9788 43.2127 26.9546 42.8861 26.8567 42.5782C26.76 42.3713 26.627 42.1833 26.4641 42.0232C26.187 41.728 25.8912 41.4509 25.5785 41.1936C25.2833 40.9634 24.9497 40.739 24.5954 40.8158C24.7047 41.3447 25.004 41.8152 25.4368 42.1383C25.2953 41.9692 25.1075 41.8451 24.8965 41.7811C24.7548 41.7368 24.5629 41.7427 24.5039 41.8844C24.4903 41.93 24.4861 41.9778 24.4917 42.0251C24.4973 42.0723 24.5125 42.1179 24.5364 42.159C24.7016 42.5245 24.9552 42.843 25.2744 43.0859L24.932 42.8675C24.8445 42.8032 24.7435 42.7598 24.6367 42.7405C24.5842 42.732 24.5302 42.7405 24.4829 42.765C24.4356 42.7895 24.3974 42.8285 24.374 42.8763C24.3525 42.9563 24.3609 43.0413 24.3976 43.1155C24.4868 43.3281 24.6341 43.5113 24.8227 43.6439C24.6993 43.5384 24.5509 43.4662 24.3917 43.4343C24.3113 43.4222 24.2292 43.4394 24.1604 43.4828C24.0916 43.5261 24.0406 43.5927 24.0168 43.6705C24.008 43.7595 24.0265 43.8491 24.0699 43.9273C24.3238 44.4321 24.929 44.4882 25.2242 44.9133C25.4456 45.2292 25.3423 45.5687 25.791 45.7606C26.9128 46.2241 26.8656 44.2048 26.9276 43.5317Z" fill="white"/>
<path d="M26.115 45.9774C25.9886 45.9754 25.864 45.9472 25.7489 45.8948C25.6241 45.8443 25.5134 45.7641 25.4265 45.6612C25.3396 45.5584 25.279 45.4359 25.25 45.3044C25.22 45.2001 25.1753 45.1007 25.1172 45.0091C24.9838 44.8482 24.8178 44.7174 24.6301 44.6254C24.3484 44.4915 24.113 44.2767 23.9541 44.0084C23.8913 43.9016 23.8673 43.7765 23.8862 43.6541C23.9121 43.5553 23.9692 43.4675 24.0489 43.4037C24.1287 43.3399 24.2269 43.3035 24.329 43.2999C24.3088 43.2626 24.2911 43.2242 24.2758 43.1847C24.2225 43.0764 24.213 42.9516 24.2493 42.8364C24.2798 42.7658 24.3306 42.706 24.3953 42.6644C24.4599 42.6229 24.5355 42.6015 24.6124 42.6032C24.5336 42.4855 24.4654 42.361 24.4087 42.2312C24.3748 42.1722 24.3542 42.1065 24.348 42.0387C24.3419 41.971 24.3505 41.9027 24.3733 41.8386C24.4072 41.7681 24.4619 41.7097 24.5299 41.6712C24.598 41.6327 24.6762 41.6159 24.7541 41.6231C24.6132 41.3899 24.5133 41.1343 24.4589 40.8673C24.4504 40.848 24.4461 40.8272 24.4462 40.8062C24.4463 40.7851 24.4508 40.7643 24.4594 40.7452C24.468 40.726 24.4806 40.7088 24.4963 40.6947C24.5119 40.6807 24.5304 40.6701 24.5504 40.6636C24.9725 40.5751 25.3622 40.8348 25.6545 41.071C25.9745 41.3315 26.2763 41.6136 26.5578 41.9153C26.733 42.085 26.8761 42.2851 26.98 42.5057C27.0887 42.8338 27.1161 43.1833 27.0597 43.5242C27.0597 43.6098 27.0597 43.7161 27.039 43.8371C27.0036 44.5161 26.9446 45.5405 26.4486 45.8564C26.3514 45.9281 26.2356 45.9701 26.115 45.9774ZM24.3674 43.5774C24.3271 43.5747 24.287 43.5847 24.2526 43.6059C24.2182 43.627 24.1913 43.6583 24.1755 43.6954C24.1727 43.7534 24.1871 43.8109 24.2168 43.8608C24.3517 44.077 24.5466 44.2493 24.7777 44.3567C25.0077 44.4661 25.2097 44.6267 25.3681 44.8261C25.4442 44.9426 25.502 45.07 25.5393 45.204C25.5534 45.2969 25.5916 45.3846 25.6502 45.4581C25.7087 45.5317 25.7855 45.5886 25.8729 45.6232C25.9384 45.6596 26.012 45.6788 26.087 45.6788C26.1619 45.6788 26.2355 45.6596 26.301 45.6232C26.6789 45.387 26.735 44.3803 26.7674 43.8519C26.7674 43.725 26.7674 43.6128 26.7881 43.5272C26.8371 43.2312 26.8158 42.9278 26.7261 42.6415C26.6376 42.4504 26.5145 42.2772 26.363 42.1308C26.086 41.84 25.7902 41.5678 25.4774 41.316C25.2833 41.1317 25.0405 41.0067 24.7777 40.9559C24.8722 41.2672 25.0379 41.5523 25.2618 41.7884C25.3728 41.856 25.4724 41.9407 25.5571 42.0393C25.5815 42.0664 25.5951 42.1017 25.5951 42.1382C25.5951 42.1747 25.5815 42.21 25.5571 42.2371C25.5327 42.2639 25.4992 42.2806 25.4631 42.2839C25.427 42.2872 25.391 42.2768 25.3622 42.2548C25.2638 42.1834 25.171 42.1044 25.0847 42.0186C25.0153 41.9763 24.9409 41.9426 24.8633 41.9183C24.7688 41.8917 24.6655 41.9006 24.6508 41.9389C24.6423 41.9933 24.6538 42.0489 24.6832 42.0954C24.8359 42.4396 25.0736 42.7393 25.374 42.9663C25.3896 42.9771 25.4028 42.991 25.4128 43.0071C25.4229 43.0231 25.4297 43.0411 25.4327 43.0598C25.4357 43.0785 25.435 43.0976 25.4305 43.1161C25.426 43.1345 25.4178 43.1518 25.4065 43.167C25.3849 43.1986 25.3519 43.2205 25.3145 43.2282C25.277 43.2359 25.2381 43.2288 25.2058 43.2083L24.8633 42.9928C24.7972 42.9414 24.7206 42.9052 24.6389 42.8866C24.6187 42.882 24.5976 42.8835 24.5781 42.8909C24.5587 42.8982 24.5419 42.9111 24.5297 42.9279C24.5236 42.9726 24.5319 43.0181 24.5533 43.0578C24.6247 43.2316 24.7421 43.3826 24.8928 43.4947L24.9283 43.5213C24.9441 43.5322 24.9577 43.5462 24.968 43.5624C24.9784 43.5786 24.9855 43.5967 24.9888 43.6157C24.9921 43.6346 24.9916 43.6541 24.9873 43.6729C24.983 43.6916 24.9749 43.7093 24.9637 43.725C24.9416 43.7568 24.9078 43.7787 24.8697 43.7859C24.8316 43.7931 24.7922 43.785 24.76 43.7633L24.7216 43.7368C24.6276 43.6591 24.5162 43.6054 24.3969 43.5803L24.3674 43.5774Z" fill="#231F20"/>
<path d="M13.4071 42.8985C13.4514 42.2874 13.6344 41.6114 14.151 41.3044C14.3108 41.2125 14.4911 41.1625 14.6753 41.1589C14.8595 41.1553 15.0417 41.1982 15.2049 41.2837C15.2349 41.2954 15.2618 41.3137 15.2838 41.3372C15.3058 41.3607 15.3222 41.3888 15.3319 41.4195C15.3525 41.5169 15.264 41.5966 15.1843 41.6468C15.0134 41.754 14.8273 41.8346 14.6322 41.8859C14.7911 41.8729 14.9501 41.9097 15.0871 41.9912C15.2241 42.0727 15.3323 42.1948 15.3968 42.3406C15.2044 42.5668 14.9353 42.714 14.6411 42.7539C14.7388 42.7278 14.8421 42.732 14.9375 42.7657C15.0328 42.7994 15.1157 42.8611 15.1754 42.9428C15.3673 43.2203 15.2138 43.297 15.0042 43.4624C15.0962 43.4428 15.1921 43.4521 15.2787 43.4889C15.3226 43.5089 15.3595 43.5414 15.3847 43.5824C15.41 43.6235 15.4224 43.6711 15.4204 43.7192C15.4057 43.8963 15.1902 43.9524 15.0396 44.041C14.9182 44.1148 14.8264 44.2286 14.7798 44.3628C14.7628 44.4398 14.738 44.515 14.706 44.5871C14.4108 45.1156 13.7554 44.6757 13.5931 44.2919C13.4267 43.8474 13.3631 43.3711 13.4071 42.8985Z" fill="white"/>
<path d="M14.3249 44.979H14.2894C14.1113 44.954 13.9422 44.8847 13.7978 44.7774C13.6534 44.6701 13.5382 44.5283 13.4628 44.3649C13.2864 43.8941 13.2178 43.3897 13.2621 42.8889C13.3034 42.2984 13.4776 41.5339 14.0798 41.1766C14.261 41.0722 14.4656 41.0153 14.6746 41.0112C14.8836 41.007 15.0903 41.0558 15.2754 41.153C15.325 41.1744 15.3691 41.2068 15.4044 41.2477C15.4397 41.2886 15.4653 41.337 15.4791 41.3892C15.4968 41.4719 15.4791 41.6283 15.2666 41.77L15.1367 41.8468C15.3143 41.9428 15.4546 42.0956 15.5352 42.2807C15.5456 42.3061 15.5489 42.3337 15.5447 42.3608C15.5406 42.3878 15.5291 42.4132 15.5116 42.4342C15.4161 42.5512 15.3012 42.6511 15.1721 42.7295C15.2217 42.7674 15.2646 42.8133 15.2991 42.8653C15.4585 43.0926 15.4319 43.2461 15.3463 43.3612C15.4169 43.3941 15.476 43.4474 15.516 43.5143C15.556 43.5811 15.575 43.6584 15.5707 43.7361C15.5529 43.9546 15.3581 44.052 15.2194 44.1199L15.119 44.173C15.0267 44.2273 14.9575 44.3134 14.9241 44.4151C14.9155 44.4372 14.9086 44.4599 14.9035 44.483C14.8901 44.5457 14.8683 44.6063 14.8385 44.6631C14.7892 44.7571 14.7155 44.836 14.6251 44.8916C14.5347 44.9471 14.431 44.9773 14.3249 44.979ZM13.5573 42.9125C13.5154 43.3657 13.5749 43.8225 13.7315 44.2498C13.7862 44.3626 13.8669 44.4607 13.967 44.5362C14.0671 44.6116 14.1837 44.6622 14.3071 44.6838C14.3643 44.6853 14.4206 44.6702 14.4694 44.6404C14.5181 44.6105 14.5571 44.5671 14.5817 44.5155C14.5981 44.4794 14.6109 44.4419 14.6201 44.4033C14.6201 44.3738 14.6348 44.3472 14.6437 44.3177C14.7003 44.1493 14.8155 44.0068 14.9684 43.9162L15.0865 43.8513C15.1987 43.7981 15.2725 43.7568 15.2784 43.7066C15.2843 43.6564 15.2518 43.6417 15.2164 43.624C15.1571 43.6013 15.0925 43.5962 15.0304 43.6092C14.9986 43.6138 14.9661 43.6078 14.938 43.5922C14.9098 43.5767 14.8875 43.5523 14.8745 43.5229C14.8615 43.4935 14.8584 43.4606 14.8657 43.4293C14.8731 43.398 14.8905 43.3699 14.9153 43.3494L14.9714 43.3051C15.1514 43.1664 15.1515 43.1664 15.057 43.0306C14.9625 42.8948 14.8651 42.8771 14.6644 42.9036C14.6449 42.9065 14.625 42.9054 14.606 42.9004C14.587 42.8953 14.5692 42.8865 14.5537 42.8743C14.5382 42.8621 14.5254 42.8469 14.516 42.8297C14.5066 42.8124 14.5008 42.7933 14.499 42.7737C14.494 42.735 14.5045 42.6958 14.5283 42.6648C14.5521 42.6339 14.5872 42.6136 14.626 42.6084C14.8497 42.577 15.057 42.4733 15.2164 42.3132C15.1602 42.2148 15.0769 42.1346 14.9764 42.0823C14.8759 42.0299 14.7624 42.0076 14.6496 42.018C14.6126 42.0224 14.5753 42.0127 14.5452 41.9908C14.5151 41.9689 14.4944 41.9364 14.4872 41.8999C14.4799 41.8632 14.4869 41.8251 14.5066 41.7933C14.5263 41.7616 14.5574 41.7384 14.5935 41.7287C14.7738 41.6807 14.9459 41.6061 15.1042 41.5073C15.1633 41.4719 15.1839 41.4423 15.1869 41.4305L15.1337 41.3981C14.9936 41.3237 14.8369 41.2863 14.6783 41.2894C14.5197 41.2925 14.3645 41.336 14.2274 41.4158C13.7344 41.711 13.5898 42.3811 13.5544 42.8918L13.5573 42.9125Z" fill="#231F20"/>
<path d="M21.0972 25.8696C20.8811 25.8696 20.67 25.8056 20.4903 25.6855C20.3107 25.5655 20.1707 25.3949 20.088 25.1953C20.0054 24.9958 19.9837 24.7761 20.0259 24.5642C20.068 24.3524 20.172 24.1577 20.3248 24.005C20.4776 23.8522 20.6722 23.7482 20.8841 23.706C21.096 23.6639 21.3156 23.6855 21.5152 23.7682C21.7148 23.8509 21.8854 23.9909 22.0054 24.1705C22.1254 24.3501 22.1895 24.5613 22.1895 24.7773C22.1887 25.0668 22.0733 25.3442 21.8687 25.5488C21.664 25.7535 21.3866 25.8689 21.0972 25.8696ZM21.0972 23.9803C20.9395 23.9803 20.7854 24.027 20.6543 24.1146C20.5233 24.2022 20.4211 24.3267 20.3608 24.4723C20.3004 24.618 20.2847 24.7782 20.3154 24.9328C20.3462 25.0875 20.4221 25.2295 20.5336 25.341C20.645 25.4524 20.7871 25.5283 20.9417 25.5591C21.0963 25.5899 21.2565 25.5741 21.4022 25.5137C21.5478 25.4534 21.6723 25.3513 21.7599 25.2202C21.8475 25.0891 21.8942 24.935 21.8942 24.7773C21.8935 24.5662 21.8092 24.3639 21.6599 24.2146C21.5106 24.0653 21.3083 23.981 21.0972 23.9803Z" fill="#231F20"/>
<path d="M23.5308 25.8696C23.3147 25.8696 23.1035 25.8056 22.9239 25.6855C22.7443 25.5655 22.6043 25.3949 22.5216 25.1953C22.439 24.9958 22.4173 24.7761 22.4595 24.5642C22.5016 24.3524 22.6056 24.1577 22.7584 24.005C22.9112 23.8522 23.1058 23.7482 23.3177 23.706C23.5296 23.6639 23.7492 23.6855 23.9488 23.7682C24.1484 23.8509 24.3189 23.9909 24.439 24.1705C24.559 24.3501 24.6231 24.5613 24.6231 24.7773C24.6231 25.067 24.508 25.3449 24.3031 25.5497C24.0983 25.7546 23.8205 25.8696 23.5308 25.8696ZM23.5308 23.9803C23.3731 23.9803 23.219 24.027 23.0879 24.1146C22.9569 24.2022 22.8547 24.3267 22.7944 24.4723C22.734 24.618 22.7183 24.7782 22.749 24.9328C22.7798 25.0875 22.8557 25.2295 22.9671 25.341C23.0786 25.4524 23.2206 25.5283 23.3753 25.5591C23.5299 25.5899 23.6901 25.5741 23.8358 25.5137C23.9814 25.4534 24.1059 25.3513 24.1935 25.2202C24.2811 25.0891 24.3278 24.935 24.3278 24.7773C24.3278 24.5659 24.2439 24.3632 24.0944 24.2137C23.9449 24.0642 23.7422 23.9803 23.5308 23.9803Z" fill="#231F20"/>
<path d="M22.5539 27.6741C22.1759 27.6665 21.8046 27.5737 21.4675 27.4025C21.4341 27.3827 21.4096 27.3508 21.3991 27.3134C21.3887 27.276 21.3931 27.236 21.4114 27.2017C21.4306 27.1677 21.4626 27.1427 21.5002 27.1322C21.5378 27.1217 21.5781 27.1265 21.6122 27.1456C21.6682 27.1752 22.9819 27.8955 23.7849 26.6792C23.8065 26.6463 23.8402 26.6233 23.8786 26.6153C23.9171 26.6073 23.9572 26.6149 23.9901 26.6364C24.023 26.6579 24.046 26.6916 24.054 26.7301C24.062 26.7686 24.0544 26.8087 24.0329 26.8416C23.8804 27.0973 23.6637 27.3087 23.4042 27.4547C23.1448 27.6008 22.8516 27.6764 22.5539 27.6741Z" fill="#231F20"/>
<path d="M22.5863 24.9238H22.0431C22.004 24.9238 21.9664 24.9083 21.9387 24.8806C21.9111 24.8529 21.8955 24.8154 21.8955 24.7762C21.8955 24.7371 21.9111 24.6995 21.9387 24.6718C21.9664 24.6442 22.004 24.6286 22.0431 24.6286H22.5863C22.6255 24.6286 22.663 24.6442 22.6907 24.6718C22.7184 24.6995 22.7339 24.7371 22.7339 24.7762C22.7332 24.8151 22.7174 24.8522 22.6898 24.8797C22.6623 24.9073 22.6252 24.9231 22.5863 24.9238Z" fill="#231F20"/>
<path d="M26.6525 25.5143C26.6398 25.5171 26.6267 25.5171 26.6141 25.5143L24.4354 24.9239C24.3963 24.9137 24.3628 24.8884 24.3423 24.8535C24.3218 24.8187 24.316 24.7771 24.3262 24.7379C24.3364 24.6988 24.3617 24.6653 24.3966 24.6448C24.4314 24.6243 24.473 24.6185 24.5122 24.6287L26.6909 25.2191C26.7283 25.2295 26.7602 25.2542 26.7795 25.2879C26.7989 25.3216 26.8041 25.3616 26.7942 25.3992C26.7874 25.4317 26.7696 25.461 26.7438 25.4819C26.718 25.5029 26.6857 25.5143 26.6525 25.5143Z" fill="#231F20"/>
<path d="M25.4385 25.7228C25.4969 25.5124 25.621 25.3262 25.7927 25.1914C25.9237 25.0808 26.0768 24.9996 26.2418 24.9533C26.4068 24.9069 26.5799 24.8965 26.7492 24.9227C26.918 24.994 27.0577 25.1204 27.1457 25.2812C27.2336 25.442 27.2645 25.6278 27.2334 25.8084C27.209 26.0539 27.1188 26.2883 26.9723 26.4868C26.8258 26.6853 26.6283 26.8405 26.4009 26.9361C26.2516 26.9895 26.0932 27.0123 25.9349 27.0032C25.7767 26.9941 25.6219 26.9532 25.4798 26.8829" fill="white"/>
<path d="M26.0039 27.1505C25.799 27.1502 25.597 27.1027 25.4134 27.0117C25.3959 27.0033 25.3803 26.9914 25.3675 26.9768C25.3547 26.9622 25.345 26.9451 25.339 26.9266C25.3329 26.9082 25.3306 26.8887 25.3323 26.8693C25.3339 26.85 25.3394 26.8311 25.3485 26.814C25.357 26.7965 25.3688 26.7809 25.3834 26.768C25.398 26.7551 25.4149 26.7452 25.4333 26.7389C25.4517 26.7326 25.4711 26.73 25.4905 26.7312C25.5099 26.7325 25.5288 26.7375 25.5463 26.7461C25.6706 26.8073 25.8059 26.8433 25.9442 26.8519C26.0826 26.8605 26.2212 26.8416 26.3522 26.7962C26.5532 26.7087 26.7275 26.5694 26.8571 26.3926C26.9868 26.2157 27.0672 26.0076 27.0902 25.7896C27.1161 25.6434 27.0928 25.4928 27.0239 25.3614C26.9549 25.23 26.8443 25.1251 26.7094 25.0633C26.5622 25.0451 26.4128 25.0574 26.2705 25.0996C26.1283 25.1417 25.9963 25.2128 25.8828 25.3084C25.7389 25.4237 25.6355 25.5819 25.5876 25.76C25.5824 25.7794 25.5734 25.7976 25.5611 25.8135C25.5489 25.8294 25.5336 25.8427 25.5162 25.8527C25.4988 25.8628 25.4796 25.8692 25.4597 25.8718C25.4398 25.8744 25.4195 25.873 25.4001 25.8678C25.3808 25.8626 25.3626 25.8536 25.3467 25.8413C25.3308 25.8291 25.3175 25.8138 25.3074 25.7964C25.2974 25.779 25.291 25.7598 25.2884 25.7399C25.2858 25.7199 25.2872 25.6997 25.2924 25.6803C25.3612 25.4457 25.5029 25.2389 25.6968 25.0899C25.846 24.9644 26.0208 24.873 26.2089 24.8221C26.3971 24.7711 26.594 24.7617 26.7862 24.7947C26.988 24.8751 27.1564 25.0218 27.2637 25.2107C27.371 25.3996 27.4108 25.6193 27.3766 25.8338C27.35 26.1061 27.25 26.3661 27.0873 26.586C26.9246 26.8059 26.7052 26.9776 26.4526 27.0826C26.3082 27.1314 26.1563 27.1544 26.0039 27.1505Z" fill="#231F20"/>
<path d="M30.9946 44.3854C29.6336 44.3854 27.6409 43.2842 27.3546 43.1219C27.3377 43.1122 27.3229 43.0993 27.3111 43.0839C27.2992 43.0684 27.2905 43.0508 27.2854 43.0321C27.2803 43.0133 27.279 42.9937 27.2815 42.9744C27.284 42.9551 27.2903 42.9365 27.3 42.9197C27.3097 42.9028 27.3226 42.888 27.338 42.8761C27.3534 42.8643 27.371 42.8555 27.3898 42.8505C27.4085 42.8454 27.4281 42.8441 27.4474 42.8466C27.4667 42.8491 27.4853 42.8553 27.5022 42.865C28.4557 43.4082 31.089 44.6363 31.7828 43.8186C32.4765 43.0008 30.3982 38.9535 29.5362 37.4656C29.5212 37.4323 29.519 37.3946 29.5301 37.3598C29.5413 37.325 29.5649 37.2956 29.5965 37.2772C29.6281 37.2588 29.6654 37.2528 29.7011 37.2604C29.7369 37.2679 29.7686 37.2884 29.7901 37.318C30.1178 37.8848 32.9754 42.8709 32.0101 44.0075C31.8788 44.141 31.7198 44.2441 31.5443 44.3094C31.3689 44.3747 31.1812 44.4006 30.9946 44.3854Z" fill="#231F20"/>
<path d="M32.0328 49.4034H32.0121C29.8305 49.0757 26.9935 47.3369 26.8695 47.272C26.853 47.2617 26.8387 47.2483 26.8274 47.2325C26.8161 47.2167 26.808 47.1988 26.8036 47.1799C26.7992 47.161 26.7986 47.1414 26.8018 47.1222C26.805 47.1031 26.812 47.0847 26.8223 47.0683C26.8323 47.0515 26.8455 47.0368 26.8613 47.0253C26.8771 47.0138 26.895 47.0055 26.914 47.0011C26.9331 46.9967 26.9528 46.9962 26.9721 46.9996C26.9913 47.003 27.0096 47.0103 27.026 47.021C27.0526 47.0358 29.9338 48.7923 32.0446 49.1141C32.0639 49.1162 32.0825 49.1223 32.0993 49.1319C32.1161 49.1415 32.1308 49.1544 32.1424 49.1699C32.154 49.1854 32.1623 49.2031 32.1668 49.2219C32.1713 49.2408 32.1719 49.2603 32.1686 49.2794C32.1633 49.3124 32.147 49.3426 32.1224 49.3651C32.0977 49.3876 32.0661 49.4011 32.0328 49.4034Z" fill="#231F20"/>
</svg>
